<svg width="227" height="196" viewBox="0 0 227 196" fill="none" xmlns="http://www.w3.org/2000/svg">
<g clip-path="url(#clip0)">
<path d="M102.274 196C136.548 196 164.332 194.604 164.332 192.882C164.332 191.159 136.548 189.763 102.274 189.763C68.0002 189.763 40.2158 191.159 40.2158 192.882C40.2158 194.604 68.0002 196 102.274 196Z" fill="#E6E6E6"/>
<path d="M31.7182 61.5927C48.7266 61.5927 62.5146 47.8047 62.5146 30.7964C62.5146 13.788 48.7266 0 31.7182 0C14.7099 0 0.921875 13.788 0.921875 30.7964C0.921875 47.8047 14.7099 61.5927 31.7182 61.5927Z" fill="#E6E6E6"/>
<path d="M31.7183 56.4601C45.8919 56.4601 57.3819 44.9701 57.3819 30.7964C57.3819 16.6228 45.8919 5.13281 31.7183 5.13281C17.5447 5.13281 6.05469 16.6228 6.05469 30.7964C6.05469 44.9701 17.5447 56.4601 31.7183 56.4601Z" fill="#51BCDA"/>
<path d="M113.499 61.5929C130.508 61.5929 144.296 47.805 144.296 30.7966C144.296 13.7882 130.508 0.000244141 113.499 0.000244141C96.4911 0.000244141 82.7031 13.7882 82.7031 30.7966C82.7031 47.805 96.4911 61.5929 113.499 61.5929Z" fill="#E6E6E6"/>
<path d="M113.5 56.4601C127.673 56.4601 139.163 44.9701 139.163 30.7964C139.163 16.6228 127.673 5.13281 113.5 5.13281C99.3259 5.13281 87.8359 16.6228 87.8359 30.7964C87.8359 44.9701 99.3259 56.4601 113.5 56.4601Z" fill="white"/>
<path d="M195.282 61.5929C212.29 61.5929 226.078 47.805 226.078 30.7966C226.078 13.7882 212.29 0.000244141 195.282 0.000244141C178.273 0.000244141 164.485 13.7882 164.485 30.7966C164.485 47.805 178.273 61.5929 195.282 61.5929Z" fill="#E6E6E6"/>
<path d="M195.283 56.4601C209.456 56.4601 220.946 44.9701 220.946 30.7964C220.946 16.6228 209.456 5.13281 195.283 5.13281C181.109 5.13281 169.619 16.6228 169.619 30.7964C169.619 44.9701 181.109 56.4601 195.283 56.4601Z" fill="white"/>
<path d="M29.3389 41.3409L21.8623 31.7282L26.2101 28.3462L29.7502 32.8979L41.7094 20.2739L45.7082 24.0626L29.3389 41.3409Z" fill="white"/>
<path d="M86.289 37.076C84.2665 32.1912 83.9381 27.581 86.7892 23.4859C86.8398 22.1099 87.1663 20.7581 87.7493 19.5106C88.3323 18.2632 89.1598 17.1455 90.1828 16.2239C91.2059 15.3023 92.4036 14.5956 93.705 14.1456C95.0063 13.6957 96.3848 13.5116 97.7586 13.6044L99.6175 13.7301C101.537 13.8547 103.382 14.5171 104.942 15.6414C106.502 16.7657 107.715 18.3065 108.44 20.0876C111.906 28.6846 112.015 40.1105 111.15 52.3573H85.7264C87.2365 46.6299 88.0117 41.2545 86.289 37.076Z" fill="#2F2E41"/>
<path d="M53.4573 52.0632L46.7388 49.0451C46.0693 48.7444 45.4724 48.3033 44.9883 47.7517C44.5043 47.2001 44.1445 46.5509 43.9333 45.848C43.7222 45.1452 43.6646 44.4052 43.7644 43.6781C43.8643 42.9511 44.1193 42.254 44.5121 41.6341C44.9465 40.9486 45.5377 40.3762 46.2369 39.9641C46.936 39.552 47.7231 39.312 48.5332 39.2639C49.3434 39.2158 50.1534 39.361 50.8964 39.6874C51.6394 40.0139 52.2941 40.5123 52.8066 41.1416L55.9105 44.9528L70.3811 57.7867L80.0001 51.3676L84.3597 58.7589L68.7562 68.1842L53.4573 52.0632Z" fill="#9F616A"/>
<path d="M83.6588 60.933L78.3545 50.7833L99.0088 41.5835L99.1876 43.5249C99.3522 45.3114 99.047 47.1099 98.3022 48.7421C97.5575 50.3743 96.3991 51.7834 94.9419 52.83L83.6588 60.933Z" fill="#FBC658"/>
<path d="M110.425 40.9771L89.3591 58.4106L88.1484 56.7157L93.9596 46.304L96.6231 45.0933C97.2612 42.3897 95.6321 38.764 93.4754 34.9237L103.645 33.4709C104.136 36.7693 106.371 39.2824 110.425 40.9771Z" fill="#9F616A"/>
<path d="M135.847 161.317L132.336 166.523L104.37 150.663L108.244 131.535L135.847 161.317Z" fill="#2F2E41"/>
<path d="M98.9229 186.136L93.2328 183.593L91.78 117.007L86.332 80.8082L107.519 76.813L111.877 86.2562C122.588 100.946 106.974 145.956 98.9229 186.136Z" fill="#2F2E41"/>
<path d="M99.3817 185.231L100.549 187.772C100.769 188.249 100.873 188.772 100.855 189.297C100.838 189.822 100.697 190.336 100.446 190.797C100.194 191.258 99.8384 191.655 99.4067 191.954C98.9751 192.254 98.4794 192.449 97.9592 192.523L82.5233 194.728C81.7644 194.837 80.9919 194.666 80.3487 194.249C79.7054 193.832 79.235 193.196 79.0244 192.459C78.8305 191.781 78.8685 191.057 79.1322 190.402C79.396 189.747 79.8706 189.199 80.4808 188.845L93.4486 182.354L99.3817 185.231Z" fill="#2F2E41"/>
<path d="M135.126 160.333L137.915 160.128C138.439 160.09 138.965 160.174 139.451 160.375C139.936 160.576 140.368 160.887 140.713 161.284C141.057 161.681 141.304 162.153 141.433 162.662C141.563 163.171 141.572 163.704 141.46 164.217L138.125 179.449C137.961 180.198 137.531 180.862 136.916 181.319C136.3 181.775 135.54 181.993 134.775 181.933C134.072 181.877 133.407 181.588 132.886 181.112C132.365 180.636 132.018 180 131.899 179.304L130.355 164.885L135.126 160.333Z" fill="#2F2E41"/>
<path d="M97.1082 38.3137C102.457 38.3137 106.793 33.9775 106.793 28.6284C106.793 23.2794 102.457 18.9431 97.1082 18.9431C91.7591 18.9431 87.4229 23.2794 87.4229 28.6284C87.4229 33.9775 91.7591 38.3137 97.1082 38.3137Z" fill="#9F616A"/>
<path d="M107.033 78.2657L85.9678 82.6241L85.4835 68.5804C82.4332 65.351 89.5474 52.417 92.0211 46.3042L95.1688 45.3357L89.8419 55.021L108.486 39.7666L112.118 40.7351L113.087 58.4108L107.033 78.2657Z" fill="#FBC658"/>
<path d="M108.488 86.7404L103.92 92.5179C103.465 93.0935 102.891 93.5646 102.238 93.8992C101.585 94.2337 100.868 94.424 100.135 94.457C99.4014 94.4901 98.6697 94.3651 97.9891 94.0906C97.3085 93.8161 96.6949 93.3985 96.1898 92.8661C95.6312 92.2774 95.2206 91.5643 94.9918 90.7856C94.763 90.007 94.7226 89.1851 94.874 88.3877C95.0253 87.5904 95.3639 86.8404 95.8621 86.1997C96.3602 85.559 97.0035 85.0459 97.739 84.7027L102.193 82.6242L118.174 71.7282L114.3 60.8322L122.532 58.4109L127.859 75.8444L108.488 86.7404Z" fill="#9F616A"/>
<path d="M109.335 50.4205H91.7872C92.4466 47.1037 94.2141 44.0947 99.0482 41.9373C102.573 35.2005 104.079 29.0899 99.0482 25.007C93.3019 23.6832 91.0763 21.2794 91.7872 17.9747L102.074 16.2798C110.533 23.8136 110.63 36.6739 109.335 50.4205Z" fill="#2F2E41"/>
<path d="M124.467 59.6215L113.329 62.285L109.455 40.0088L111.381 40.3098C113.154 40.5867 114.823 41.3222 116.224 42.4431C117.625 43.5641 118.708 45.0317 119.367 46.7005L124.467 59.6215Z" fill="#FBC658"/>
</g>
<defs>
<clipPath id="clip0">
<rect width="225.156" height="196" fill="white" transform="translate(0.921875)"/>
</clipPath>
</defs>
</svg>
