<svg width="203" height="176" viewBox="0 0 203 176" fill="none" xmlns="http://www.w3.org/2000/svg">
<g clip-path="url(#clip0)">
<path d="M110.799 49.2217C121.115 49.2217 129.478 40.8592 129.478 30.5435C129.478 20.2278 121.115 11.8652 110.799 11.8652C100.484 11.8652 92.1211 20.2278 92.1211 30.5435C92.1211 40.8592 100.484 49.2217 110.799 49.2217Z" fill="#A0616A"/>
<path d="M96.8574 39.8826C96.8574 39.8826 100.376 66.4111 94.9625 69.3888C89.5486 72.3664 127.176 72.6371 127.176 72.6371C127.176 72.6371 118.784 49.6277 122.574 42.5895L96.8574 39.8826Z" fill="#A0616A"/>
<path d="M154.653 72.7713L151.523 87.0208L144.906 117.168L144.708 118.819L142.425 137.933L140.906 150.63L139.887 159.16C133.695 162.342 129.207 164.539 129.207 164.539C129.207 164.539 128.821 162.604 128.198 160.127C123.852 161.43 115.811 163.592 108.996 164.024C111.477 166.79 112.618 169.388 111.071 171.306C106.402 177.087 87.1289 164.976 80.3877 160.46C80.2308 161.541 80.1712 162.635 80.2099 163.727L75.0511 159.759L75.5617 150.63L76.4227 135.184L77.5048 115.814C77.1636 114.985 76.8776 114.134 76.6488 113.267C75.0689 107.648 73.1512 96.429 71.6805 87.0208C70.4969 79.449 69.6079 73.0507 69.4199 71.6893C69.3945 71.5115 69.3818 71.42 69.3818 71.42L97.9392 58.8013C99.9686 63.5079 109.445 64.9227 109.445 64.9227C117.297 64.3817 123.451 60.2415 123.451 60.2415L154.653 72.7713Z" fill="#EDF2F7"/>
<path d="M131.374 159.127C131.374 159.127 130.165 159.541 128.199 160.127C123.853 161.43 115.811 163.592 108.996 164.024C103.129 164.4 98.1706 163.495 97.2638 159.668C96.8752 158.022 97.4264 156.668 98.6278 155.555C102.214 152.231 111.582 151.039 119.011 150.63C121.109 150.516 123.05 150.463 124.665 150.442C127.409 150.407 129.207 150.463 129.207 150.463L129.25 150.63L131.374 159.127Z" fill="#A0616A"/>
<path d="M95.2619 12.8759L91.7695 11.4777C91.7695 11.4777 99.0718 3.4384 109.231 4.1375L106.374 0.991641C106.374 0.991641 113.359 -1.80462 119.708 5.53561C123.046 9.3942 126.908 13.9298 129.316 19.0391H133.056L131.495 22.4762L136.959 25.9132L131.351 25.2959C131.685 27.1781 131.736 29.0996 131.503 30.9969C131.263 32.8948 130.294 34.6251 128.802 35.8224C128.802 35.8224 124.471 26.8573 124.471 25.4591V28.9545C124.471 28.9545 120.978 25.8087 120.978 23.7115L119.073 26.1582L118.121 22.3133L106.374 26.1582L108.279 23.0124L100.977 24.061L103.834 20.2161C103.834 20.2161 95.5795 24.7601 95.2619 28.605C94.9445 32.4499 92.5283 36.0931 92.5283 36.0931C92.5283 36.0931 86.0548 18.1189 95.2619 12.8759Z" fill="#2F2E41"/>
<path d="M174.954 138.281C173.052 140.343 168.337 143.45 162.622 146.813C160.496 148.062 158.233 149.35 155.924 150.63C150.415 153.686 144.647 156.713 139.887 159.16C133.694 162.342 129.206 164.539 129.206 164.539C129.206 164.539 128.82 162.604 128.198 160.127C127.365 156.813 126.11 152.528 124.802 150.63C124.756 150.564 124.71 150.503 124.664 150.442C124.283 149.942 123.9 149.65 123.521 149.65L142.424 137.933L150.593 132.868L144.708 118.819L137.326 101.196L141.782 87.0207L146.26 72.7712H154.652C154.652 72.7712 157.431 78.8368 160.984 87.295C161.515 88.56 162.064 89.8782 162.622 91.2397C169.933 109.02 179.046 133.848 174.954 138.281Z" fill="#EDF2F7"/>
<path d="M111.071 171.306C106.403 177.087 87.129 164.976 80.3878 160.46C78.9197 159.477 78.0459 158.855 78.0459 158.855L84.213 150.63L86.1663 148.027C86.1663 148.027 87.9138 148.954 90.497 150.463C90.591 150.519 90.685 150.574 90.7815 150.63C93.0091 151.938 95.8056 153.648 98.6276 155.555C102.521 158.189 106.458 161.194 108.996 164.024C111.478 166.79 112.618 169.388 111.071 171.306Z" fill="#A0616A"/>
<path d="M90.4976 150.463C89.8083 150.46 89.12 150.516 88.4402 150.63C82.6007 151.634 80.8786 156.919 80.3884 160.46C80.2314 161.542 80.1719 162.635 80.2106 163.727L75.0518 159.759L73.1722 158.314C68.6485 156.737 64.6175 153.935 61.1224 150.63C58.0904 147.713 55.3706 144.488 53.0071 141.006C50.6529 137.575 48.5543 133.976 46.7282 130.237C46.2186 129.193 45.9447 128.051 45.9259 126.89C45.907 125.729 46.1436 124.578 46.6189 123.518L53.0071 109.282L62.3441 88.4738C62.4127 87.9786 62.4881 87.4943 62.5702 87.021C64.4219 76.4037 69.3825 71.6895 69.3825 71.6895H73.1722L75.7071 87.021L78.8567 106.068L76.6495 113.267L71.5491 129.891L76.4234 135.185L90.4976 150.463Z" fill="#EDF2F7"/>
<path d="M94.786 106.084L98.0257 109.863C99.2294 109.634 100.486 109.364 101.781 109.061L100.85 106.084L103.126 108.738C116.841 105.365 133.841 98.8062 133.841 98.8062C133.841 98.8062 115.488 100.152 101.784 97.1581C95.721 95.8335 89.4827 98.8391 86.9946 104.525C85.5485 107.829 85.7756 110.693 90.9047 110.693C92.6378 110.663 94.3661 110.5 96.0743 110.206L94.786 106.084Z" fill="#FBC658"/>
<path d="M168.643 168.207V169.749C168.644 170.172 168.566 170.592 168.412 170.986C168.344 171.162 168.261 171.332 168.166 171.494C167.863 172.002 167.433 172.423 166.919 172.715C166.405 173.007 165.823 173.161 165.232 173.16H51.8077C51.2163 173.161 50.6349 173.007 50.1206 172.715C49.6063 172.423 49.1767 172.002 48.874 171.494C48.7782 171.332 48.6958 171.162 48.6276 170.986C48.474 170.592 48.3956 170.172 48.3965 169.749V168.207C48.3964 167.759 48.4845 167.316 48.6559 166.902C48.8273 166.488 49.0786 166.112 49.3954 165.795C49.7121 165.478 50.0882 165.227 50.5022 165.055C50.9161 164.884 51.3597 164.796 51.8077 164.796H58.3457V164.077C58.3457 164.058 58.3493 164.04 58.3565 164.023C58.3636 164.005 58.3741 163.99 58.3873 163.977C58.4005 163.963 58.4162 163.953 58.4335 163.946C58.4508 163.939 58.4693 163.935 58.488 163.935H61.8992C61.9179 163.935 61.9364 163.939 61.9537 163.946C61.9709 163.953 61.9866 163.963 61.9998 163.977C62.0131 163.99 62.0235 164.005 62.0307 164.023C62.0378 164.04 62.0415 164.058 62.0414 164.077V164.796H64.1725V164.077C64.1725 164.058 64.1761 164.04 64.1832 164.023C64.1904 164.005 64.2009 163.99 64.2141 163.977C64.2273 163.963 64.243 163.953 64.2603 163.946C64.2775 163.939 64.296 163.935 64.3147 163.935H67.726C67.7446 163.935 67.7632 163.939 67.7804 163.946C67.7977 163.953 67.8134 163.963 67.8266 163.977C67.8398 163.99 67.8503 164.005 67.8574 164.023C67.8646 164.04 67.8682 164.058 67.8682 164.077V164.796H70.0018V164.077C70.0018 164.058 70.0054 164.04 70.0126 164.023C70.0197 164.005 70.0302 163.99 70.0434 163.977C70.0566 163.963 70.0723 163.953 70.0896 163.946C70.1068 163.939 70.1254 163.935 70.144 163.935H73.5553C73.574 163.935 73.5925 163.939 73.6097 163.946C73.627 163.953 73.6427 163.963 73.6559 163.977C73.6691 163.99 73.6796 164.005 73.6868 164.023C73.6939 164.04 73.6975 164.058 73.6975 164.077V164.796H75.8286V164.077C75.8286 164.058 75.8322 164.04 75.8394 164.023C75.8465 164.005 75.857 163.99 75.8702 163.977C75.8834 163.963 75.8991 163.953 75.9164 163.946C75.9336 163.939 75.9521 163.935 75.9708 163.935H79.3821C79.4008 163.935 79.4193 163.939 79.4365 163.946C79.4538 163.953 79.4695 163.963 79.4827 163.977C79.4959 163.99 79.5064 164.005 79.5135 164.023C79.5207 164.04 79.5243 164.058 79.5243 164.077V164.796H81.6554V164.077C81.6553 164.058 81.659 164.04 81.6661 164.023C81.6733 164.005 81.6838 163.99 81.697 163.977C81.7102 163.963 81.7259 163.953 81.7431 163.946C81.7604 163.939 81.7789 163.935 81.7976 163.935H85.2088C85.2275 163.935 85.2461 163.939 85.2633 163.946C85.2806 163.953 85.2963 163.963 85.3095 163.977C85.3227 163.99 85.3332 164.005 85.3403 164.023C85.3475 164.04 85.3511 164.058 85.3511 164.077V164.796H87.4847V164.077C87.4847 164.058 87.4883 164.04 87.4955 164.023C87.5026 164.005 87.5131 163.99 87.5263 163.977C87.5395 163.963 87.5552 163.953 87.5725 163.946C87.5897 163.939 87.6083 163.935 87.6269 163.935H91.0382C91.0569 163.935 91.0754 163.939 91.0926 163.946C91.1099 163.953 91.1256 163.963 91.1388 163.977C91.152 163.99 91.1625 164.005 91.1697 164.023C91.1768 164.04 91.1804 164.058 91.1804 164.077V164.796H93.3115V164.077C93.3115 164.058 93.3151 164.04 93.3222 164.023C93.3294 164.005 93.3399 163.99 93.3531 163.977C93.3663 163.963 93.382 163.953 93.3992 163.946C93.4165 163.939 93.435 163.935 93.4537 163.935H120.175C120.193 163.935 120.212 163.939 120.229 163.946C120.246 163.953 120.262 163.963 120.275 163.977C120.288 163.99 120.299 164.005 120.306 164.023C120.313 164.04 120.317 164.058 120.317 164.077V164.796H122.45V164.077C122.45 164.058 122.454 164.04 122.461 164.023C122.468 164.005 122.479 163.99 122.492 163.977C122.505 163.963 122.521 163.953 122.538 163.946C122.556 163.939 122.574 163.935 122.593 163.935H126.004C126.042 163.935 126.078 163.95 126.104 163.977C126.131 164.004 126.146 164.04 126.146 164.077V164.796H128.277V164.077C128.277 164.058 128.281 164.04 128.288 164.023C128.295 164.005 128.306 163.99 128.319 163.977C128.332 163.963 128.348 163.953 128.365 163.946C128.382 163.939 128.401 163.935 128.42 163.935H131.831C131.849 163.935 131.868 163.939 131.885 163.946C131.902 163.953 131.918 163.963 131.931 163.977C131.945 163.99 131.955 164.005 131.962 164.023C131.969 164.04 131.973 164.058 131.973 164.077V164.796H134.104V164.077C134.104 164.058 134.108 164.04 134.115 164.023C134.122 164.005 134.132 163.99 134.146 163.977C134.159 163.963 134.175 163.953 134.192 163.946C134.209 163.939 134.228 163.935 134.246 163.935H137.658C137.676 163.935 137.695 163.939 137.712 163.946C137.729 163.953 137.745 163.963 137.758 163.977C137.771 163.99 137.782 164.005 137.789 164.023C137.796 164.04 137.8 164.058 137.8 164.077V164.796H139.933V164.077C139.933 164.058 139.937 164.04 139.944 164.023C139.951 164.005 139.962 163.99 139.975 163.977C139.988 163.963 140.004 163.953 140.021 163.946C140.038 163.939 140.057 163.935 140.076 163.935H143.487C143.524 163.935 143.56 163.951 143.586 163.977C143.612 164.004 143.627 164.04 143.627 164.077V164.796H145.76V164.077C145.76 164.058 145.764 164.04 145.771 164.023C145.778 164.005 145.789 163.99 145.802 163.977C145.815 163.963 145.831 163.953 145.848 163.946C145.865 163.939 145.884 163.935 145.902 163.935H149.314C149.332 163.935 149.351 163.939 149.368 163.946C149.385 163.953 149.401 163.963 149.414 163.977C149.428 163.99 149.438 164.005 149.445 164.023C149.452 164.04 149.456 164.058 149.456 164.077V164.796H151.587V164.077C151.587 164.058 151.591 164.04 151.598 164.023C151.605 164.005 151.615 163.99 151.629 163.977C151.642 163.963 151.657 163.953 151.675 163.946C151.692 163.939 151.71 163.935 151.729 163.935H155.14C155.159 163.935 155.178 163.939 155.195 163.946C155.212 163.953 155.228 163.963 155.241 163.977C155.254 163.99 155.265 164.005 155.272 164.023C155.279 164.04 155.283 164.058 155.283 164.077V164.796H165.232C165.68 164.796 166.124 164.884 166.537 165.055C166.951 165.227 167.327 165.478 167.644 165.795C167.961 166.112 168.212 166.488 168.384 166.902C168.555 167.316 168.643 167.759 168.643 168.207Z" fill="#3F3D56"/>
<path d="M201.624 170.986H15.4414V171.494H201.624V170.986Z" fill="#3F3D56"/>
<path d="M159.51 103.277H117.233V102.406H98.0636V103.277H55.6126C54.8542 103.277 54.1268 103.578 53.5905 104.115C53.0542 104.651 52.7529 105.378 52.7529 106.137V164.027C52.7529 164.785 53.0542 165.512 53.5905 166.049C54.1268 166.585 54.8542 166.886 55.6126 166.886H159.51C160.269 166.886 160.996 166.585 161.532 166.049C162.069 165.512 162.37 164.785 162.37 164.027V106.137C162.37 105.761 162.296 105.389 162.152 105.042C162.008 104.696 161.798 104.38 161.532 104.115C161.267 103.849 160.951 103.639 160.604 103.495C160.257 103.351 159.886 103.277 159.51 103.277Z" fill="#3F3D56"/>
<path d="M107.644 129.838C111.151 129.838 113.994 126.995 113.994 123.488C113.994 119.981 111.151 117.138 107.644 117.138C104.137 117.138 101.294 119.981 101.294 123.488C101.294 126.995 104.137 129.838 107.644 129.838Z" stroke="#D0CDE1" stroke-width="0.508002" stroke-miterlimit="10"/>
<path d="M105.613 132.124C109.12 132.124 111.963 129.281 111.963 125.774C111.963 122.267 109.12 119.424 105.613 119.424C102.106 119.424 99.2627 122.267 99.2627 125.774C99.2627 129.281 102.106 132.124 105.613 132.124Z" fill="#D0CDE1"/>
<path d="M27.6198 168.42H20.5078V175.532H27.6198V168.42Z" fill="#D0CDE1"/>
<path d="M23.3037 162.832V171.468H31.9397V162.832H23.3037ZM31.5638 171.092H23.6771V163.208H31.5638V171.092Z" fill="#3F3D56"/>
<path d="M192.214 168.42H185.102V175.532H192.214V168.42Z" fill="#D0CDE1"/>
<path d="M187.896 162.832V171.468H196.533V162.832H187.896ZM196.157 171.092H188.27V163.208H196.157V171.092Z" fill="#3F3D56"/>
<path d="M38.3259 152.807C38.5629 160.922 33.8212 163.896 27.8704 164.07C27.7322 164.074 27.5946 164.076 27.4576 164.077C27.1817 164.079 26.9084 164.075 26.6378 164.063C21.2559 163.84 16.9959 160.983 16.7754 153.436C16.5474 145.625 26.2418 135.477 26.9691 134.727L26.9704 134.726C26.9981 134.697 27.0122 134.683 27.0122 134.683C27.0122 134.683 38.0889 144.692 38.3259 152.807Z" fill="#EDF2F7"/>
<path d="M27.4418 162.84L31.2219 157.218L27.4495 163.445L27.4574 164.077C27.1814 164.079 26.9081 164.075 26.6375 164.063L26.825 155.932L26.8199 155.87L26.8268 155.858L26.8448 155.089L22.7051 149.079L26.8399 154.514L26.8545 154.677L26.9962 148.533L23.4206 142.302L27.0063 147.454L26.9689 134.727L26.969 134.684L26.9702 134.726L27.2076 144.757L30.4663 140.682L27.2182 145.621L27.2894 151.116L30.288 145.753L27.3004 151.924L27.34 154.979L31.7009 147.509L27.3532 156.045L27.4418 162.84Z" fill="#3F3D56"/>
<path d="M202.92 152.807C203.157 160.922 198.415 163.896 192.464 164.07C192.326 164.074 192.188 164.076 192.051 164.077C191.775 164.079 191.502 164.075 191.232 164.063C185.85 163.84 181.59 160.983 181.369 153.436C181.141 145.625 190.836 135.477 191.563 134.727L191.564 134.726C191.592 134.697 191.606 134.683 191.606 134.683C191.606 134.683 202.683 144.692 202.92 152.807Z" fill="#EDF2F7"/>
<path d="M192.035 162.84L195.815 157.218L192.042 163.445L192.05 164.077C191.774 164.079 191.501 164.075 191.23 164.063L191.418 155.932L191.413 155.87L191.42 155.858L191.438 155.089L187.298 149.079L191.433 154.514L191.447 154.677L191.589 148.533L188.013 142.302L191.599 147.454L191.562 134.727L191.562 134.684L191.563 134.726L191.8 144.757L195.059 140.682L191.811 145.621L191.882 151.116L194.881 145.753L191.893 151.924L191.933 154.979L196.294 147.509L191.946 156.045L192.035 162.84Z" fill="#3F3D56"/>
</g>
<defs>
<clipPath id="clip0">
<rect width="202.852" height="175.063" fill="white" transform="translate(0.0742188 0.468262)"/>
</clipPath>
</defs>
</svg>
