<svg width="304" height="217" viewBox="0 0 304 217" fill="none" xmlns="http://www.w3.org/2000/svg">
<g clip-path="url(#clip0)">
<path opacity="0.1" d="M272.64 183.549C270.38 184.714 268.012 185.72 265.679 186.708C257.048 190.348 248.284 194.027 239.016 195.278C221.599 197.611 203.631 191.262 186.522 195.224C172.191 198.531 160.339 208.666 146.337 213.18C139.827 215.278 133.054 216.1 126.22 216.1H125.337C124.496 216.1 123.658 216.068 122.817 216.037C115.888 215.776 108.93 214.767 102.138 213.443C80.69 209.317 58.8615 201.753 42.4639 187.828C90.2092 179.102 188.56 165.714 272.64 183.549Z" fill="#252223"/>
<path opacity="0.3" d="M289.281 79.1361V58.8216H277.219V79.1361H262.936V47.7121H252.461V24.2235H243.891V0.100098H226.116V24.2235H217.546V47.7121H207.388V19.4623H201.675V5.17872H198.183V19.4623H177.869V109.608H162.316V100.085H152.793V109.608H137.24V79.1361H109.307V58.8216H97.2457V79.1361H96.6109V118.178H83.9144V95.3242H68.6785V118.178H55.982V47.7121H46.1421V24.2235H9.95698V47.7121H0.43457V171.821H55.982H96.6109H137.24H177.869H207.388H262.936H303.565V79.1361H289.281Z" fill="#51BCDA"/>
<path opacity="0.4" d="M19.7962 55.0127H6.46484V62.6306H19.7962V55.0127Z" fill="white"/>
<path opacity="0.4" d="M36.3024 62.6306H49.6338V55.0127H36.3024V62.6306Z" fill="white"/>
<path opacity="0.4" d="M19.7962 69.931H6.46484V77.549H19.7962V69.931Z" fill="white"/>
<path opacity="0.4" d="M36.3024 77.5491H49.6338V69.9311H36.3024V77.5491Z" fill="white"/>
<path opacity="0.4" d="M19.7962 84.8495H6.46484V92.4674H19.7962V84.8495Z" fill="white"/>
<path opacity="0.4" d="M36.3024 92.4674H49.6338V84.8495H36.3024V92.4674Z" fill="white"/>
<path opacity="0.4" d="M19.7962 99.7681H6.46484V107.386H19.7962V99.7681Z" fill="white"/>
<path opacity="0.4" d="M36.3024 107.386H49.6338V99.7679H36.3024V107.386Z" fill="white"/>
<path opacity="0.4" d="M19.7962 114.687H6.46484V122.304H19.7962V114.687Z" fill="white"/>
<path opacity="0.4" d="M36.3024 122.304H49.6338V114.687H36.3024V122.304Z" fill="white"/>
<path opacity="0.4" d="M19.7962 129.605H6.46484V137.223H19.7962V129.605Z" fill="white"/>
<path opacity="0.4" d="M36.3024 137.223H49.6338V129.605H36.3024V137.223Z" fill="white"/>
<path opacity="0.4" d="M19.7962 144.523H6.46484V152.141H19.7962V144.523Z" fill="white"/>
<path opacity="0.4" d="M36.3024 152.141H49.6338V144.523H36.3024V152.141Z" fill="white"/>
<path opacity="0.4" d="M91.8497 125.796H60.7432V129.605H91.8497V125.796Z" fill="white"/>
<path opacity="0.4" d="M91.8497 131.509H60.7432V135.318H91.8497V131.509Z" fill="white"/>
<path opacity="0.4" d="M91.8497 137.223H60.7432V141.032H91.8497V137.223Z" fill="white"/>
<path opacity="0.4" d="M173.108 127.7H142.001V131.509H173.108V127.7Z" fill="white"/>
<path opacity="0.4" d="M173.108 133.414H142.001V137.223H173.108V133.414Z" fill="white"/>
<path opacity="0.4" d="M173.108 139.127H142.001V142.936H173.108V139.127Z" fill="white"/>
<path opacity="0.4" d="M91.8497 142.936H60.7432V146.745H91.8497V142.936Z" fill="white"/>
<path opacity="0.4" d="M91.8497 148.65H60.7432V152.459H91.8497V148.65Z" fill="white"/>
<path opacity="0.4" d="M91.8497 154.363H60.7432V158.172H91.8497V154.363Z" fill="white"/>
<path opacity="0.4" d="M111.847 86.4366H103.276V97.5461H111.847V86.4366Z" fill="white"/>
<path opacity="0.4" d="M122.004 97.546H130.574V86.4365H122.004V97.546Z" fill="white"/>
<path opacity="0.4" d="M111.847 104.212H103.276V115.321H111.847V104.212Z" fill="white"/>
<path opacity="0.4" d="M122.004 115.321H130.574V104.212H122.004V115.321Z" fill="white"/>
<path opacity="0.4" d="M111.847 121.987H103.276V133.096H111.847V121.987Z" fill="white"/>
<path opacity="0.4" d="M122.004 133.096H130.574V121.987H122.004V133.096Z" fill="white"/>
<path opacity="0.4" d="M111.847 139.762H103.276V150.872H111.847V139.762Z" fill="white"/>
<path opacity="0.4" d="M122.004 150.872H130.574V139.762H122.004V150.872Z" fill="white"/>
<path opacity="0.4" d="M189.296 26.7628H177.869V41.3638H189.296V26.7628Z" fill="white"/>
<path opacity="0.4" d="M189.296 47.7122H177.869V62.3132H189.296V47.7122Z" fill="white"/>
<path opacity="0.4" d="M189.296 68.6614H177.869V83.2624H189.296V68.6614Z" fill="white"/>
<path opacity="0.4" d="M189.296 89.6107H177.869V104.212H189.296V89.6107Z" fill="white"/>
<path opacity="0.4" d="M189.296 110.56H177.869V125.161H189.296V110.56Z" fill="white"/>
<path opacity="0.4" d="M189.296 131.509H177.869V146.11H189.296V131.509Z" fill="white"/>
<path opacity="0.4" d="M256.429 56.5997H213.896V68.9789H256.429V56.5997Z" fill="white"/>
<path opacity="0.4" d="M256.587 83.2625H214.054V95.6416H256.587V83.2625Z" fill="white"/>
<path opacity="0.4" d="M256.746 109.925H214.213V122.304H256.746V109.925Z" fill="white"/>
<path opacity="0.4" d="M256.905 136.588H214.371V148.967H256.905V136.588Z" fill="white"/>
<path opacity="0.4" d="M15.6705 30.8893H9.95703V42.951H15.6705V30.8893Z" fill="white"/>
<path opacity="0.4" d="M303.565 86.4366H289.281V104.847H303.565V86.4366Z" fill="white"/>
<path opacity="0.4" d="M303.565 113.099H289.281V131.509H303.565V113.099Z" fill="white"/>
<path opacity="0.4" d="M303.565 139.762H289.281V158.172H303.565V139.762Z" fill="white"/>
<path d="M16.2006 152.316C16.2006 152.316 -8.78937 167.393 37.2769 190.605C37.2769 190.605 47.4341 171.764 36.204 156.401C34.0259 153.406 30.8246 151.313 27.2069 150.521C23.5891 149.728 19.8062 150.29 16.5752 152.1L16.2006 152.316Z" fill="#51BCDA"/>
<path d="M16.4893 151.998C16.4893 151.998 37.8734 168.361 37.2767 190.605" stroke="#535461" stroke-width="0.317414" stroke-miterlimit="10"/>
<path d="M38.439 191.462C38.439 191.462 30.6084 164.876 39.9086 145.307C43.8096 137.096 45.1046 127.875 43.3017 118.962C42.4407 114.73 41.1922 110.586 39.5721 106.583" stroke="#535461" stroke-width="0.634827" stroke-miterlimit="10"/>
<path d="M45.3487 94.2323C45.3487 97.4889 39.4511 106.929 39.4511 106.929C39.4511 106.929 33.5504 97.4794 33.5504 94.2323C33.5322 93.4461 33.6713 92.6642 33.9595 91.9325C34.2478 91.2008 34.6794 90.5341 35.229 89.9716C35.7786 89.4092 36.4351 88.9622 37.1599 88.657C37.8847 88.3519 38.6631 88.1947 39.4495 88.1947C40.236 88.1947 41.0144 88.3519 41.7392 88.657C42.464 88.9622 43.1205 89.4092 43.6701 89.9716C44.2197 90.5341 44.6513 91.2008 44.9396 91.9325C45.2278 92.6642 45.3669 93.4461 45.3487 94.2323Z" fill="#51BCDA"/>
<path d="M55.1125 112.28C53.3413 115.017 43.2539 119.74 43.2539 119.74C43.2539 119.74 43.4348 108.602 45.206 105.869C46.0663 104.578 47.4003 103.678 48.9193 103.363C50.4383 103.048 52.0201 103.344 53.3224 104.187C54.6247 105.03 55.5427 106.352 55.8777 107.867C56.2128 109.381 55.9378 110.967 55.1125 112.28Z" fill="#51BCDA"/>
<path d="M54.6837 143.124C51.7762 144.59 40.6826 143.574 40.6826 143.574C40.6826 143.574 46.4627 134.052 49.3734 132.585C50.7681 131.904 52.375 131.8 53.8459 132.296C55.3168 132.791 56.5332 133.846 57.2317 135.233C57.9301 136.619 58.0543 138.224 57.5774 139.701C57.1005 141.178 56.0609 142.408 54.6837 143.124Z" fill="#51BCDA"/>
<path d="M49.1066 166.387C46.4879 168.323 35.3848 169.199 35.3848 169.199C35.3848 169.199 39.4699 158.836 42.0917 156.899C43.3517 156.005 44.9121 155.641 46.4377 155.885C47.9633 156.129 49.3324 156.961 50.2509 158.204C51.1694 159.446 51.564 160.999 51.3501 162.529C51.1361 164.059 50.3306 165.444 49.1066 166.387Z" fill="#51BCDA"/>
<path d="M30.8647 120.371C33.2009 122.641 44.0913 124.993 44.0913 124.993C44.0913 124.993 41.4251 114.179 39.0857 111.909C38.5301 111.369 37.8736 110.944 37.1536 110.658C36.4337 110.372 35.6645 110.231 34.8899 110.242C34.1153 110.253 33.3505 110.417 32.6392 110.723C31.9278 111.03 31.2839 111.474 30.7441 112.03C30.2043 112.585 29.7792 113.242 29.4931 113.962C29.2071 114.682 29.0656 115.451 29.0768 116.226C29.088 117 29.2516 117.765 29.5584 118.476C29.8652 119.188 30.3091 119.832 30.8647 120.371Z" fill="#51BCDA"/>
<path d="M24.6878 147.659C27.5953 149.129 38.6889 148.113 38.6889 148.113C38.6889 148.113 32.9088 138.591 30.0013 137.124C29.3078 136.757 28.548 136.532 27.7663 136.462C26.9846 136.392 26.1969 136.478 25.4491 136.716C24.7013 136.955 24.0085 137.339 23.4113 137.849C22.8141 138.358 22.3245 138.981 21.9711 139.682C21.6176 140.382 21.4076 141.147 21.3531 141.929C21.2986 142.712 21.4009 143.498 21.6539 144.241C21.9069 144.984 22.3055 145.669 22.8264 146.256C23.3474 146.843 23.9802 147.32 24.6878 147.659Z" fill="#51BCDA"/>
<path d="M22.3238 175.008C24.9425 176.944 36.0488 177.82 36.0488 177.82C36.0488 177.82 31.9605 167.456 29.3387 165.52C28.0787 164.626 26.5183 164.262 24.9927 164.506C23.4671 164.75 22.098 165.582 21.1795 166.825C20.261 168.067 19.8664 169.62 20.0803 171.15C20.2943 172.68 21.0998 174.065 22.3238 175.008Z" fill="#51BCDA"/>
<path opacity="0.25" d="M45.3487 94.2323C45.3487 97.4889 39.4511 106.929 39.4511 106.929C39.4511 106.929 33.5504 97.4794 33.5504 94.2323C33.5322 93.4461 33.6713 92.6642 33.9595 91.9325C34.2478 91.2008 34.6794 90.5341 35.229 89.9716C35.7786 89.4092 36.4351 88.9622 37.1599 88.657C37.8847 88.3519 38.6631 88.1947 39.4495 88.1947C40.236 88.1947 41.0144 88.3519 41.7392 88.657C42.464 88.9622 43.1205 89.4092 43.6701 89.9716C44.2197 90.5341 44.6513 91.2008 44.9396 91.9325C45.2278 92.6642 45.3669 93.4461 45.3487 94.2323Z" fill="black"/>
<path opacity="0.25" d="M55.1125 112.28C53.3413 115.017 43.2539 119.74 43.2539 119.74C43.2539 119.74 43.4348 108.602 45.206 105.869C46.0663 104.578 47.4003 103.678 48.9193 103.363C50.4383 103.048 52.0201 103.344 53.3224 104.187C54.6247 105.03 55.5427 106.352 55.8777 107.867C56.2128 109.381 55.9378 110.967 55.1125 112.28Z" fill="black"/>
<path opacity="0.25" d="M54.6837 143.124C51.7762 144.59 40.6826 143.574 40.6826 143.574C40.6826 143.574 46.4627 134.052 49.3734 132.585C50.7681 131.904 52.375 131.8 53.8459 132.296C55.3168 132.791 56.5332 133.846 57.2317 135.233C57.9301 136.619 58.0543 138.224 57.5774 139.701C57.1005 141.178 56.0609 142.408 54.6837 143.124Z" fill="black"/>
<path opacity="0.25" d="M49.1066 166.387C46.4879 168.323 35.3848 169.199 35.3848 169.199C35.3848 169.199 39.4699 158.836 42.0917 156.899C43.3517 156.005 44.9121 155.641 46.4377 155.885C47.9633 156.129 49.3324 156.961 50.2509 158.204C51.1694 159.446 51.564 160.999 51.3501 162.529C51.1361 164.059 50.3306 165.444 49.1066 166.387Z" fill="black"/>
<path opacity="0.25" d="M30.8647 120.371C33.2009 122.641 44.0913 124.993 44.0913 124.993C44.0913 124.993 41.4251 114.179 39.0857 111.909C38.5301 111.369 37.8736 110.944 37.1536 110.658C36.4337 110.372 35.6645 110.231 34.8899 110.242C34.1153 110.253 33.3505 110.417 32.6392 110.723C31.9278 111.03 31.2839 111.474 30.7441 112.03C30.2043 112.585 29.7792 113.242 29.4931 113.962C29.2071 114.682 29.0656 115.451 29.0768 116.226C29.088 117 29.2516 117.765 29.5584 118.476C29.8652 119.188 30.3091 119.832 30.8647 120.371Z" fill="black"/>
<path opacity="0.25" d="M24.6878 147.659C27.5953 149.129 38.6889 148.113 38.6889 148.113C38.6889 148.113 32.9088 138.591 30.0013 137.124C29.3078 136.757 28.548 136.532 27.7663 136.462C26.9846 136.392 26.1969 136.478 25.4491 136.716C24.7013 136.955 24.0085 137.339 23.4113 137.849C22.8141 138.358 22.3245 138.981 21.9711 139.682C21.6176 140.382 21.4076 141.147 21.3531 141.929C21.2986 142.712 21.4009 143.498 21.6539 144.241C21.9069 144.984 22.3055 145.669 22.8264 146.256C23.3474 146.843 23.9802 147.32 24.6878 147.659Z" fill="black"/>
<path opacity="0.25" d="M22.3238 175.008C24.9425 176.944 36.0488 177.82 36.0488 177.82C36.0488 177.82 31.9605 167.456 29.3387 165.52C28.0787 164.626 26.5183 164.262 24.9927 164.506C23.4671 164.75 22.098 165.582 21.1795 166.825C20.261 168.067 19.8664 169.62 20.0803 171.15C20.2943 172.68 21.0998 174.065 22.3238 175.008Z" fill="black"/>
<path d="M282.863 184.597C282.863 184.597 275.032 158.01 284.332 138.442C288.233 130.23 289.532 121.009 287.729 112.096C286.865 107.865 285.616 103.721 283.999 99.7172" stroke="#535461" stroke-width="0.634827" stroke-miterlimit="10"/>
<path d="M289.786 87.3667C289.786 90.6233 283.885 100.063 283.885 100.063C283.885 100.063 277.984 90.6138 277.984 87.3667C277.984 85.8017 278.606 84.3008 279.713 83.1942C280.819 82.0876 282.32 81.4659 283.885 81.4659C285.45 81.4659 286.951 82.0876 288.058 83.1942C289.164 84.3008 289.786 85.8017 289.786 87.3667Z" fill="#51BCDA"/>
<path d="M299.536 105.415C297.765 108.151 287.678 112.874 287.678 112.874C287.678 112.874 287.862 101.736 289.633 99.0029C290.483 97.6897 291.82 96.768 293.35 96.4406C294.88 96.1132 296.477 96.4069 297.791 97.2572C299.104 98.1074 300.026 99.4445 300.353 100.974C300.68 102.504 300.387 104.101 299.536 105.415Z" fill="#51BCDA"/>
<path d="M299.111 136.258C296.2 137.724 285.106 136.709 285.106 136.709C285.106 136.709 290.89 127.186 293.797 125.72C295.195 125.015 296.815 124.894 298.301 125.384C299.788 125.874 301.018 126.935 301.723 128.332C302.428 129.729 302.548 131.35 302.058 132.836C301.568 134.322 300.508 135.553 299.111 136.258Z" fill="#51BCDA"/>
<path d="M293.535 159.521C290.913 161.457 279.81 162.333 279.81 162.333C279.81 162.333 283.898 151.97 286.517 150.033C287.775 149.118 289.345 148.737 290.884 148.973C292.423 149.21 293.806 150.045 294.732 151.296C295.657 152.548 296.051 154.115 295.827 155.655C295.603 157.196 294.779 158.585 293.535 159.521Z" fill="#51BCDA"/>
<path d="M275.289 113.496C277.628 115.766 288.516 118.118 288.516 118.118C288.516 118.118 285.849 107.303 283.513 105.034C282.96 104.481 282.303 104.044 281.579 103.747C280.856 103.451 280.081 103.301 279.299 103.307C278.517 103.313 277.744 103.474 277.025 103.781C276.306 104.088 275.655 104.534 275.111 105.095C274.566 105.656 274.138 106.319 273.851 107.047C273.565 107.774 273.426 108.551 273.443 109.333C273.459 110.115 273.631 110.885 273.948 111.6C274.265 112.314 274.721 112.959 275.289 113.496Z" fill="#51BCDA"/>
<path d="M269.125 140.794C272.036 142.263 283.13 141.248 283.13 141.248C283.13 141.248 277.349 131.725 274.439 130.259C273.745 129.891 272.985 129.666 272.204 129.596C271.422 129.526 270.634 129.613 269.887 129.851C269.139 130.089 268.446 130.474 267.849 130.983C267.252 131.492 266.762 132.115 266.409 132.816C266.055 133.517 265.845 134.281 265.791 135.064C265.736 135.847 265.838 136.632 266.091 137.375C266.344 138.118 266.743 138.803 267.264 139.39C267.785 139.977 268.418 140.454 269.125 140.794Z" fill="#51BCDA"/>
<path d="M266.748 168.142C269.37 170.078 280.473 170.954 280.473 170.954C280.473 170.954 276.385 160.594 273.766 158.655C272.507 157.739 270.938 157.358 269.399 157.594C267.86 157.831 266.477 158.666 265.551 159.917C264.626 161.169 264.232 162.736 264.456 164.276C264.68 165.817 265.504 167.206 266.748 168.142Z" fill="#51BCDA"/>
<path d="M247.541 182.01C247.541 182.01 243.332 167.726 248.331 157.207C250.453 152.81 251.094 147.843 250.156 143.05C249.692 140.778 249.02 138.554 248.15 136.404" stroke="#535461" stroke-width="0.634827" stroke-miterlimit="10"/>
<path d="M251.261 129.757C251.261 131.509 248.087 136.588 248.087 136.588C248.087 136.588 244.913 131.509 244.913 129.757C244.913 128.915 245.248 128.108 245.843 127.513C246.438 126.918 247.245 126.583 248.087 126.583C248.929 126.583 249.736 126.918 250.332 127.513C250.927 128.108 251.261 128.915 251.261 129.757Z" fill="#51BCDA"/>
<path d="M256.502 139.457C255.549 140.927 250.128 143.466 250.128 143.466C250.128 143.466 250.226 137.48 251.179 136.01C251.653 135.346 252.366 134.889 253.168 134.737C253.971 134.584 254.801 134.747 255.487 135.191C256.173 135.635 256.661 136.326 256.85 137.121C257.039 137.915 256.914 138.752 256.502 139.457Z" fill="#51BCDA"/>
<path d="M256.273 156.03C254.708 156.817 248.747 156.271 248.747 156.271C248.747 156.271 251.855 151.154 253.416 150.367C254.162 150.03 255.009 149.994 255.781 150.267C256.552 150.539 257.189 151.099 257.557 151.83C257.926 152.56 257.998 153.405 257.759 154.188C257.519 154.97 256.987 155.63 256.273 156.03Z" fill="#51BCDA"/>
<path d="M253.274 168.532C251.868 169.574 245.9 170.043 245.9 170.043C245.9 170.043 248.097 164.476 249.506 163.435C249.839 163.16 250.224 162.956 250.638 162.835C251.052 162.714 251.486 162.678 251.914 162.731C252.342 162.783 252.755 162.922 253.128 163.139C253.5 163.357 253.825 163.648 254.081 163.995C254.338 164.341 254.521 164.737 254.619 165.157C254.717 165.577 254.729 166.012 254.654 166.437C254.578 166.862 254.417 167.267 254.18 167.627C253.942 167.987 253.634 168.295 253.274 168.532Z" fill="#51BCDA"/>
<path d="M243.471 143.806C244.741 145.025 250.578 146.288 250.578 146.288C250.578 146.288 249.147 140.476 247.89 139.257C247.596 138.944 247.242 138.694 246.849 138.521C246.456 138.348 246.032 138.258 245.602 138.254C245.173 138.25 244.747 138.333 244.351 138.499C243.955 138.664 243.596 138.908 243.297 139.216C242.998 139.524 242.764 139.89 242.61 140.29C242.456 140.691 242.385 141.119 242.402 141.548C242.418 141.977 242.521 142.399 242.705 142.787C242.889 143.175 243.15 143.522 243.471 143.806Z" fill="#51BCDA"/>
<path d="M240.152 158.47C241.717 159.258 247.678 158.715 247.678 158.715C247.678 158.715 244.57 153.598 243.005 152.808C242.26 152.471 241.413 152.435 240.641 152.708C239.87 152.98 239.233 153.54 238.865 154.271C238.496 155.001 238.424 155.846 238.663 156.629C238.902 157.411 239.435 158.071 240.149 158.47H240.152Z" fill="#51BCDA"/>
<path d="M238.882 173.17C240.289 174.211 246.256 174.681 246.256 174.681C246.256 174.681 244.05 169.11 242.653 168.069C241.975 167.608 241.145 167.427 240.336 167.565C239.528 167.702 238.804 168.147 238.316 168.807C237.829 169.466 237.615 170.289 237.721 171.102C237.826 171.916 238.243 172.657 238.882 173.17Z" fill="#51BCDA"/>
<path opacity="0.1" d="M84.4473 15.2343H82.2635C82.4701 15.2437 82.6764 15.2112 82.87 15.1386C83.0637 15.066 83.2406 14.955 83.3901 14.8121C83.5396 14.6693 83.6586 14.4976 83.7399 14.3075C83.8212 14.1174 83.8631 13.9127 83.8631 13.706C83.8631 13.4992 83.8212 13.2945 83.7399 13.1044C83.6586 12.9143 83.5396 12.7426 83.3901 12.5998C83.2406 12.4569 83.0637 12.3459 82.87 12.2733C82.6764 12.2008 82.4701 12.1682 82.2635 12.1776H64.5741C64.3675 12.1682 64.1612 12.2008 63.9675 12.2733C63.7739 12.3459 63.597 12.4569 63.4475 12.5998C63.298 12.7426 63.179 12.9143 63.0977 13.1044C63.0164 13.2945 62.9745 13.4992 62.9745 13.706C62.9745 13.9127 63.0164 14.1174 63.0977 14.3075C63.179 14.4976 63.298 14.6693 63.4475 14.8121C63.597 14.955 63.7739 15.066 63.9675 15.1386C64.1612 15.2112 64.3675 15.2437 64.5741 15.2343H66.7579C66.3521 15.2343 65.9629 15.3955 65.676 15.6824C65.3891 15.9693 65.2279 16.3585 65.2279 16.7642C65.2279 17.17 65.3891 17.5591 65.676 17.8461C65.9629 18.133 66.3521 18.2942 66.7579 18.2942H63.7012C63.4946 18.2848 63.2883 18.3173 63.0946 18.3899C62.901 18.4624 62.7241 18.5735 62.5746 18.7163C62.4251 18.8592 62.3061 19.0309 62.2248 19.221C62.1435 19.4111 62.1016 19.6157 62.1016 19.8225C62.1016 20.0293 62.1435 20.2339 62.2248 20.4241C62.3061 20.6142 62.4251 20.7859 62.5746 20.9287C62.7241 21.0716 62.901 21.1826 63.0946 21.2552C63.2883 21.3277 63.4946 21.3603 63.7012 21.3509H81.3906C81.5972 21.3603 81.8035 21.3277 81.9972 21.2552C82.1908 21.1826 82.3677 21.0716 82.5172 20.9287C82.6667 20.7859 82.7857 20.6142 82.867 20.4241C82.9483 20.2339 82.9902 20.0293 82.9902 19.8225C82.9902 19.6157 82.9483 19.4111 82.867 19.221C82.7857 19.0309 82.6667 18.8592 82.5172 18.7163C82.3677 18.5735 82.1908 18.4624 81.9972 18.3899C81.8035 18.3173 81.5972 18.2848 81.3906 18.2942H84.4473C84.8531 18.2942 85.2422 18.133 85.5291 17.8461C85.8161 17.5591 85.9773 17.17 85.9773 16.7642C85.9773 16.3585 85.8161 15.9693 85.5291 15.6824C85.2422 15.3955 84.8531 15.2343 84.4473 15.2343Z" fill="#252223"/>
<path opacity="0.1" d="M162.531 53.6414H160.347C160.554 53.6508 160.76 53.6183 160.954 53.5457C161.148 53.4732 161.325 53.3621 161.474 53.2193C161.624 53.0764 161.743 52.9047 161.824 52.7146C161.905 52.5245 161.947 52.3198 161.947 52.1131C161.947 51.9063 161.905 51.7017 161.824 51.5115C161.743 51.3214 161.624 51.1497 161.474 51.0069C161.325 50.864 161.148 50.753 160.954 50.6804C160.76 50.6079 160.554 50.5753 160.347 50.5847H142.658C142.451 50.5753 142.245 50.6079 142.052 50.6804C141.858 50.753 141.681 50.864 141.531 51.0069C141.382 51.1497 141.263 51.3214 141.182 51.5115C141.1 51.7017 141.058 51.9063 141.058 52.1131C141.058 52.3198 141.1 52.5245 141.182 52.7146C141.263 52.9047 141.382 53.0764 141.531 53.2193C141.681 53.3621 141.858 53.4732 142.052 53.5457C142.245 53.6183 142.451 53.6508 142.658 53.6414H144.842C144.436 53.6414 144.047 53.8026 143.76 54.0895C143.473 54.3764 143.312 54.7656 143.312 55.1713C143.312 55.5771 143.473 55.9663 143.76 56.2532C144.047 56.5401 144.436 56.7013 144.842 56.7013H141.785C141.579 56.6919 141.372 56.7244 141.179 56.797C140.985 56.8695 140.808 56.9806 140.659 57.1234C140.509 57.2663 140.39 57.438 140.309 57.6281C140.227 57.8182 140.186 58.0229 140.186 58.2296C140.186 58.4364 140.227 58.641 140.309 58.8312C140.39 59.0213 140.509 59.193 140.659 59.3358C140.808 59.4787 140.985 59.5897 141.179 59.6623C141.372 59.7348 141.579 59.7674 141.785 59.758H159.475C159.681 59.7674 159.887 59.7348 160.081 59.6623C160.275 59.5897 160.452 59.4787 160.601 59.3358C160.751 59.193 160.87 59.0213 160.951 58.8312C161.032 58.641 161.074 58.4364 161.074 58.2296C161.074 58.0229 161.032 57.8182 160.951 57.6281C160.87 57.438 160.751 57.2663 160.601 57.1234C160.452 56.9806 160.275 56.8695 160.081 56.797C159.887 56.7244 159.681 56.6919 159.475 56.7013H162.531C162.732 56.7013 162.931 56.6617 163.117 56.5848C163.302 56.5079 163.471 56.3952 163.613 56.2532C163.755 56.1111 163.868 55.9425 163.945 55.7568C164.022 55.5712 164.061 55.3723 164.061 55.1713C164.061 54.9704 164.022 54.7715 163.945 54.5859C163.868 54.4002 163.755 54.2316 163.613 54.0895C163.471 53.9475 163.302 53.8348 163.117 53.7579C162.931 53.681 162.732 53.6414 162.531 53.6414Z" fill="#252223"/>
<path opacity="0.1" d="M295.527 3.49004H293.344C293.55 3.49946 293.756 3.4669 293.95 3.39435C294.144 3.32179 294.321 3.21073 294.47 3.06788C294.62 2.92503 294.739 2.75336 294.82 2.56323C294.901 2.37311 294.943 2.16847 294.943 1.9617C294.943 1.75492 294.901 1.55028 294.82 1.36016C294.739 1.17003 294.62 0.998358 294.47 0.855511C294.321 0.712663 294.144 0.601607 293.95 0.529047C293.756 0.456488 293.55 0.423934 293.344 0.43335H275.654C275.448 0.423934 275.241 0.456488 275.048 0.529047C274.854 0.601607 274.677 0.712663 274.528 0.855511C274.378 0.998358 274.259 1.17003 274.178 1.36016C274.096 1.55028 274.055 1.75492 274.055 1.9617C274.055 2.16847 274.096 2.37311 274.178 2.56323C274.259 2.75336 274.378 2.92503 274.528 3.06788C274.677 3.21073 274.854 3.32179 275.048 3.39435C275.241 3.4669 275.448 3.49946 275.654 3.49004H277.838C277.432 3.49004 277.043 3.65123 276.756 3.93815C276.469 4.22507 276.308 4.61421 276.308 5.01998C276.308 5.42574 276.469 5.81488 276.756 6.1018C277.043 6.38872 277.432 6.54991 277.838 6.54991H274.781C274.575 6.5405 274.368 6.57305 274.175 6.64561C273.981 6.71817 273.804 6.82923 273.655 6.97207C273.505 7.11492 273.386 7.28659 273.305 7.47672C273.224 7.66684 273.182 7.87148 273.182 8.07826C273.182 8.28504 273.224 8.48967 273.305 8.6798C273.386 8.86992 273.505 9.0416 273.655 9.18444C273.804 9.32729 273.981 9.43834 274.175 9.5109C274.368 9.58346 274.575 9.61602 274.781 9.6066H292.471C292.677 9.61602 292.884 9.58346 293.077 9.5109C293.271 9.43834 293.448 9.32729 293.597 9.18444C293.747 9.0416 293.866 8.86992 293.947 8.6798C294.028 8.48967 294.07 8.28504 294.07 8.07826C294.07 7.87148 294.028 7.66684 293.947 7.47672C293.866 7.28659 293.747 7.11492 293.597 6.97207C293.448 6.82923 293.271 6.71817 293.077 6.64561C292.884 6.57305 292.677 6.5405 292.471 6.54991H295.527C295.933 6.54991 296.322 6.38872 296.609 6.1018C296.896 5.81488 297.057 5.42574 297.057 5.01998C297.057 4.61421 296.896 4.22507 296.609 3.93815C296.322 3.65123 295.933 3.49004 295.527 3.49004Z" fill="#252223"/>
<path d="M224.37 167.961C224.496 167.961 224.617 167.911 224.706 167.822C224.796 167.732 224.846 167.611 224.846 167.485C224.846 167.359 224.796 167.238 224.706 167.148C224.617 167.059 224.496 167.009 224.37 167.009C224.243 167.009 224.122 167.059 224.033 167.148C223.944 167.238 223.894 167.359 223.894 167.485C223.894 167.611 223.944 167.732 224.033 167.822C224.122 167.911 224.243 167.961 224.37 167.961Z" fill="#535461"/>
<g opacity="0.5">
<path opacity="0.5" d="M166.134 140.718L161.522 119.006H161.995L161.922 118.638H162.055L159.669 106.894C159.669 106.894 159.789 94.6259 160.37 89.8805C160.795 86.4176 161.468 82.0055 160.976 78.2918C161.044 78.1893 161.107 78.0834 161.164 77.9743C161.367 77.5793 161.49 77.1477 161.525 76.7047C161.703 75.6667 161.564 74.5992 161.125 73.6417L165.922 70.6453C166.03 70.6453 166.141 70.6675 166.239 70.6738C166.239 70.6294 166.195 70.5596 166.16 70.4675C168.429 70.5868 170.676 69.9784 172.575 68.7308C174.474 67.4833 175.925 65.6619 176.717 63.532C177.139 64.1661 177.661 64.7277 178.263 65.1953C179.555 66.1634 181.589 66.3792 182.665 65.1762C183.057 64.6961 183.322 64.1253 183.436 63.5162C183.5 63.2432 183.544 62.9639 183.582 62.6877C184.192 59.4437 182.856 56.0982 181.132 53.2542C178.977 49.7023 176.117 46.4869 172.483 44.4682C168.848 42.4494 164.388 41.7257 160.456 43.0715C156.523 44.4174 152.562 48.0708 152.203 52.2131C152.025 54.3302 152.279 55.311 151.841 57.3901C151.622 58.4248 152.095 60.4404 152.089 61.5831C152.05 61.7929 152.025 62.005 152.013 62.2179C151.949 63.4876 152.454 64.6874 152.822 65.9063C147.635 66.1666 133.996 67.2172 130.057 71.223C125.156 76.2032 113.139 77.9839 113.139 77.9839L93.1259 82.0119L86.1428 84.9765L86.2222 85.2939L86.0825 85.3542C86.0825 85.3542 86.3301 86.2779 86.6856 87.4968C85.1278 88.9068 84.1079 90.8142 83.8003 92.8928C83.4131 95.048 83.6194 97.8222 84.9843 101.361C84.9843 101.361 91.8753 114.017 92.3515 119.121L101.049 136.48C100.303 137.969 92.8498 153.014 91.5674 161.435C91.466 162.041 91.3971 162.653 91.3611 163.267C91.3611 163.267 91.3135 163.711 91.1961 164.451C90.685 167.571 89.0694 175.243 85.124 178.829L85.1747 178.874L85.0605 178.985L85.1493 179.061C83.9654 181.324 85.6762 184.39 85.6762 184.39L87.622 193.081L89.7995 193.434L92.0912 192.5L93.3608 194.941C93.3608 194.941 103.248 196.528 106.057 196.436C108.866 196.344 103.677 191.583 101.858 190.171C100.849 189.39 100.058 186.181 99.5568 183.479C99.8215 183.265 100.059 183.018 100.265 182.746C100.265 182.746 99.0552 176.398 102.696 167.688C104.248 163.981 105.918 159.718 107.33 156.045C108.089 160.978 108.886 166.06 109.473 169.529C110.327 174.554 110.216 177.62 109.952 179.35C109.903 179.953 109.761 180.546 109.53 181.105C109.542 181.121 109.552 181.138 109.562 181.156C109.545 181.201 109.525 181.244 109.501 181.286C109.52 181.318 109.539 181.346 109.555 181.378C107.568 183.651 109.638 187.358 109.638 187.358L111.584 196.024L113.761 196.376L116.053 195.443L117.322 197.884C117.322 197.884 127.21 199.471 130.019 199.379C132.828 199.287 127.638 194.525 125.816 193.113C124.398 192.012 123.414 186.098 123.049 183.562C123.312 183.537 123.458 183.518 123.458 183.518L123.429 183.343H123.49L122.245 176.068C120.119 174.236 120.414 148.218 120.414 148.218C120.414 148.218 119.306 150.938 119.271 150.719C119.379 150.281 119.779 149.043 120.706 146.406C121.25 144.893 121.653 143.333 121.909 141.746C122.915 135.553 121.039 131.766 121.039 131.766C121.163 130.522 119.852 125.688 118.303 120.54L123.169 111.055C123.846 111.31 124.58 111.37 125.289 111.23L128.975 104.564C128.975 104.564 136.593 100.025 138.773 100.377C140.801 100.695 147.156 99.3046 149.613 96.6573C149.79 96.4639 149.951 96.2569 150.095 96.0384C152.073 93.0071 151.26 111.865 151.26 111.865L150.203 118.397L150.146 118.759L153.298 118.822L160.726 144.298C160.726 144.298 161.192 152.938 169.632 154.858C178.072 156.779 166.134 140.718 166.134 140.718ZM115.402 111.274C114.945 109.865 114.545 108.649 114.243 107.738L115.815 106.513C115.815 106.513 116.011 106.678 116.345 106.942L115.402 111.274Z" fill="url(#paint0_linear)"/>
</g>
<path d="M123.061 180.807C123.061 180.807 124.137 189.872 125.917 191.25C127.698 192.627 132.751 197.252 130.012 197.354C127.273 197.455 117.633 195.9 117.633 195.9L116.386 193.519L114.164 194.427L112.04 194.084L110.136 185.612C110.136 185.612 107.463 180.826 111.224 178.893C114.986 176.96 123.061 180.807 123.061 180.807Z" fill="#3A384D"/>
<path opacity="0.1" d="M114.018 106.484C114.018 106.484 121.494 128.732 121.211 131.589C121.211 131.589 123.95 137.112 120.929 145.698C117.907 154.284 120.611 147.643 120.611 147.643C120.611 147.643 120.325 173.002 122.395 174.789L123.607 181.88C123.607 181.88 111.952 183.264 109.99 179.68C109.99 179.68 111.508 177.023 110.022 168.253C108.537 159.483 105.674 140.159 105.674 140.159L97.916 96.0796L114.018 106.484Z" fill="black"/>
<path d="M114.047 106.307C114.047 106.307 121.522 128.567 121.239 131.424C121.239 131.424 123.979 136.947 120.957 145.533C117.935 154.119 120.639 147.478 120.639 147.478C120.639 147.478 120.354 172.84 122.423 174.624L123.636 181.718C123.636 181.718 111.98 183.099 110.019 179.515C110.019 179.515 111.536 176.858 110.05 168.088C108.565 159.318 105.699 139.984 105.699 139.984L97.9443 95.9019L114.047 106.307Z" fill="#BEC7DE"/>
<path opacity="0.1" d="M99.8678 97.0572L107.47 140.27C107.47 140.27 110.327 159.604 111.822 168.374C113.317 177.144 111.79 179.801 111.79 179.801C112.361 180.845 113.748 181.464 115.431 181.823C113.069 181.546 110.939 180.902 110.196 179.544C110.196 179.544 111.717 176.887 110.231 168.117C108.746 159.347 105.88 140.013 105.88 140.013L98.1221 95.9304L99.8678 97.0572Z" fill="black"/>
<path d="M99.7498 177.947C99.7498 177.947 100.823 187.012 102.607 188.39C104.39 189.767 109.44 194.392 106.701 194.494C103.962 194.595 94.3221 193.04 94.3221 193.04L93.0746 190.659L90.8527 191.57L88.7292 191.224L86.8248 182.753C86.8248 182.753 84.1521 177.966 87.9103 176.033C91.6685 174.1 99.7498 177.947 99.7498 177.947Z" fill="#3A384D"/>
<path opacity="0.1" d="M114.018 106.484C114.018 106.484 121.494 128.732 121.211 131.589C121.211 131.589 123.95 137.112 120.929 145.698C117.907 154.284 120.611 147.643 120.611 147.643C120.611 147.643 120.325 173.002 122.395 174.789L123.607 181.88C123.607 181.88 111.952 183.264 109.99 179.68C109.99 179.68 111.508 177.023 110.022 168.253C108.537 159.483 105.674 140.159 105.674 140.159L97.916 96.0796L114.018 106.484Z" fill="black"/>
<path opacity="0.1" d="M90.3294 86.8682C90.3294 86.8682 82.01 90.0614 86.4855 101.672C86.4855 101.672 93.2052 114.007 93.6718 118.984L102.178 135.966C102.178 135.966 93.1068 153.919 92.7037 162.019C92.7037 162.019 91.4912 172.894 86.5966 177.363C86.5966 177.363 97.1252 186.323 101.045 181.15C101.045 181.15 99.8677 174.973 103.42 166.472C106.971 157.972 111.183 146.507 111.183 146.507C111.183 146.507 121.369 139.622 114.583 125.459L106.965 93.9244L106.841 86.827L100.998 84.7955L90.3294 86.8682Z" fill="black"/>
<path opacity="0.1" d="M89.9486 86.9857C89.9486 86.9857 81.6291 90.1789 86.1047 101.79C86.1047 101.79 92.8212 114.128 93.2878 119.105L101.794 136.086C101.794 136.086 92.7228 154.036 92.326 162.14C92.326 162.14 91.1135 173.011 86.2158 177.483C86.2158 177.483 96.7444 186.444 100.668 181.27C100.668 181.27 99.4868 175.09 103.039 166.593C106.591 158.096 110.803 146.615 110.803 146.615C110.803 146.615 120.992 139.73 114.205 125.567L106.587 94.0323L106.464 86.9349L100.623 84.9034L89.9486 86.9857Z" fill="black"/>
<path d="M89.9769 86.8112C89.9769 86.8112 81.6575 90.0076 86.133 101.615C86.133 101.615 91.0688 110.678 92.7701 116.401C93.5128 118.859 94.4687 121.247 95.6268 123.539L101.823 135.918C101.823 135.918 92.7511 153.871 92.3511 161.972C92.3511 161.972 91.1386 172.846 86.2409 177.315C86.2409 177.315 96.7695 186.276 100.693 181.102C100.693 181.102 99.512 174.925 103.064 166.425C106.616 157.925 110.828 146.447 110.828 146.447C110.828 146.447 121.017 139.562 114.23 125.399L106.613 93.8642L106.489 86.7668L100.648 84.7354L89.9769 86.8112Z" fill="#BEC7DE"/>
<path opacity="0.1" d="M89.9769 86.8111L100.658 84.7257L102.051 85.2114L92.1004 87.1508C92.1004 87.1508 83.781 90.3439 88.2565 101.955C88.2565 101.955 93.1891 111.017 94.8936 116.74C95.6363 119.198 96.5922 121.587 97.7503 123.879L103.949 136.258C103.949 136.258 94.865 154.204 94.4746 162.305C94.4746 162.305 93.2589 173.179 88.3644 177.649C88.3644 177.649 92.9003 181.508 97.125 182.699C92.4654 182.603 86.2409 177.303 86.2409 177.303C91.1386 172.833 92.3511 161.959 92.3511 161.959C92.7511 153.858 101.823 135.905 101.823 135.905L95.6268 123.526C94.4687 121.234 93.5128 118.846 92.7701 116.388C91.0688 110.674 86.133 101.603 86.133 101.603C81.6575 90.0075 89.9769 86.8111 89.9769 86.8111Z" fill="black"/>
<path d="M124.255 109.408L117.631 122.311C117.631 122.311 119.573 139.502 115.863 139.991C112.152 140.479 113.641 121.124 113.641 121.124L117.212 104.64L124.255 109.408Z" fill="#BE7C5E"/>
<path d="M160.462 117.8L165.198 140.159C165.198 140.159 176.822 155.83 168.594 153.957C160.367 152.084 159.913 143.65 159.913 143.65L151.978 116.416L160.462 117.8Z" fill="#BE7C5E"/>
<path d="M165.182 71.7404L153.469 79.1044L149.289 67.9029C149.289 67.9029 158.983 68.5631 160.113 64.9351C161.243 61.307 165.182 71.7404 165.182 71.7404Z" fill="#BE7C5E"/>
<path d="M159.167 76.3969L158.418 73.1879L146.874 73.864L142.224 92.5311L150.886 92.8421L155.736 85.2782L158.38 77.9015L159.167 76.3969Z" fill="#BE7C5E"/>
<path opacity="0.1" d="M155.174 73.0291L156.126 67.6489C156.126 67.6489 134.761 67.9156 129.984 72.7688C125.207 77.6221 113.495 79.3615 113.495 79.3615L93.9863 83.2847L87.165 86.1764C87.165 86.1764 89.0886 93.3817 89.9138 93.88C90.7391 94.3783 99.9505 86.789 99.9505 86.789L103.442 87.7158L92.0723 99.6696L113.056 120.301L113.444 108.932L116.132 106.83C116.132 106.83 122.522 112.227 125.372 111.408L128.965 104.91C128.965 104.91 136.393 100.485 138.516 100.828C140.494 101.146 146.69 99.7839 149.083 97.2033C149.251 97.0225 149.404 96.8282 149.54 96.6224C151.47 93.6673 150.676 112.049 150.676 112.049L149.591 118.768L161.167 119.006L158.843 107.561C158.843 107.561 158.961 95.6035 159.526 90.9757C160.091 86.3478 161.113 79.9836 159.04 76.016L154.965 79.8947L147.874 91.2772L150.565 81.3675L155.174 73.0291Z" fill="black"/>
<path d="M155.234 72.6735L154.221 67.1537C154.221 67.1537 134.831 67.56 130.053 72.4132C125.276 77.2665 113.548 79.0027 113.548 79.0027L94.0397 82.9291L87.2471 85.824C87.2471 85.824 89.1706 93.0292 89.9959 93.5244C90.8211 94.0196 100.036 86.4366 100.036 86.4366L103.527 87.3634L92.1575 99.3172L113.142 119.949L113.529 108.576L116.227 106.472C116.227 106.472 122.616 111.868 125.467 111.052L129.06 104.555C129.06 104.555 136.446 100.13 138.582 100.482C140.56 100.8 146.756 99.4347 149.149 96.8541C149.317 96.6732 149.47 96.479 149.606 96.2732C151.536 93.3181 150.742 111.703 150.742 111.703L149.657 118.422L161.233 118.66L158.91 107.214C158.91 107.214 159.027 95.2543 159.592 90.6296C160.157 86.0049 161.179 79.6344 159.106 75.6699L155.031 79.5328L147.93 90.9057L150.622 80.9961L155.234 72.6735Z" fill="#4A5568"/>
<path opacity="0.1" d="M130.777 79.7012C130.777 79.7012 119.22 89.4489 118.011 94.699L130.777 79.7012Z" fill="black"/>
<path opacity="0.1" d="M143.395 88.103C143.395 88.103 134.507 94.8322 132.92 99.1109L143.395 88.103Z" fill="black"/>
<path opacity="0.1" d="M117.439 98.2349C117.439 98.2349 116.605 102.272 116.439 104.424L117.439 98.2349Z" fill="black"/>
<path opacity="0.1" d="M113.215 107.532C113.215 107.532 99.9023 95.5813 98.0391 95.8257L113.215 107.532Z" fill="black"/>
<path opacity="0.1" d="M160.252 65.1382C161.335 61.6657 164.991 71.0802 165.299 71.8896C164.952 71.87 164.605 71.8319 164.261 71.7754C162.873 71.5532 161.545 71.0506 160.357 70.298C159.17 69.5454 158.148 68.5588 157.354 67.3982C158.78 66.9507 159.916 66.2428 160.252 65.1382Z" fill="black"/>
<path d="M165.779 71.7054C171.518 71.7054 176.171 67.0527 176.171 61.3133C176.171 55.5739 171.518 50.9211 165.779 50.9211C160.039 50.9211 155.387 55.5739 155.387 61.3133C155.387 67.0527 160.039 71.7054 165.779 71.7054Z" fill="#BE7C5E"/>
<path opacity="0.1" d="M174.219 62.8115C175.035 64.1542 175.777 65.6111 177.037 66.5507C178.298 67.4902 180.281 67.7029 181.329 66.5316C181.71 66.063 181.967 65.5065 182.078 64.9128C182.846 61.6403 181.503 58.2471 179.761 55.3618C177.66 51.8989 174.869 48.766 171.33 46.7917C167.791 44.8174 163.439 44.1159 159.605 45.43C155.771 46.7441 152.622 50.2547 152.305 54.2922C152.13 56.3553 152.651 58.4598 152.222 60.4881C152 61.5451 151.521 62.5513 151.467 63.6305C151.365 65.6333 152.736 67.4966 152.612 69.4994C152.536 70.7342 151.905 71.8547 151.517 73.0323C150.565 75.8699 151.079 78.9584 150.882 81.9421C150.686 84.9257 149.381 88.2713 146.524 89.1537C149.683 90.7408 154.038 89.0712 155.323 85.7764C155.714 84.7702 155.856 83.6529 156.45 82.7515C157.453 81.2279 159.538 80.6248 160.38 79.006C161.221 77.3872 160.491 75.416 159.57 73.8448C158.65 72.2736 157.501 70.6929 157.482 68.8741C157.488 67.986 157.765 67.121 158.275 66.3941C158.786 65.6673 159.505 65.1129 160.338 64.8049C161.205 64.5034 162.141 64.4875 163.052 64.3859C165.312 64.0956 167.471 63.272 169.35 61.9831C171.791 60.3865 172.444 59.8913 174.219 62.8115Z" fill="black"/>
<path d="M174.286 62.3576C175.101 63.7035 175.844 65.1572 177.104 66.0999C178.364 67.0426 180.348 67.2521 181.396 66.0809C181.776 65.6119 182.033 65.0555 182.145 64.4621C182.913 61.1895 181.57 57.7964 179.828 54.9111C177.726 51.4449 174.936 48.3152 171.397 46.3409C167.858 44.3666 163.506 43.6683 159.672 44.9792C155.838 46.2901 151.978 49.8547 151.638 53.8922C151.464 55.9554 151.714 56.9108 151.286 58.9359C151.064 59.9929 151.581 62.11 151.527 63.1829C151.426 65.1858 152.797 67.049 152.673 69.0519C152.597 70.2866 151.965 71.4071 151.578 72.5815C150.626 75.4224 151.14 78.5108 150.943 81.4945C150.746 84.4782 149.442 87.8205 146.585 88.703C149.743 90.29 154.098 88.6204 155.384 85.3257C155.774 84.3226 155.917 83.2054 156.51 82.3039C157.514 80.7803 159.599 80.1772 160.44 78.5584C161.281 76.9396 160.551 74.9653 159.634 73.3941C158.717 71.8229 157.561 70.2453 157.542 68.4234C157.549 67.5358 157.827 66.6715 158.337 65.9453C158.847 65.219 159.566 64.6652 160.399 64.3573C161.265 64.0558 162.202 64.0399 163.113 63.9383C165.372 63.6466 167.531 62.8231 169.41 61.5355C171.864 59.9326 172.518 59.4406 174.286 62.3576Z" fill="#723647"/>
<path d="M152.719 68.3735L157.128 69.086C157.47 69.1414 157.793 68.9092 157.848 68.5674C157.903 68.2256 157.67 67.9037 157.328 67.8483L152.919 67.1358C152.576 67.0804 152.254 67.3126 152.198 67.6544C152.143 67.9962 152.376 68.3181 152.719 68.3735Z" fill="#252A62"/>
<path d="M143.633 156.093C143.706 161.064 147.899 164.981 152.87 164.981H153.562C154.173 164.979 154.76 165.216 155.199 165.641C155.532 165.953 155.764 166.357 155.863 166.803C155.91 166.982 155.933 167.166 155.933 167.352V176.128C155.929 177.816 156.412 179.469 157.323 180.889C158.648 182.902 159.367 185.253 159.392 187.663C159.392 188.225 159.504 188.782 159.722 189.301C159.939 189.82 160.258 190.29 160.659 190.684C161.061 191.079 161.537 191.389 162.059 191.597C162.582 191.805 163.14 191.907 163.703 191.897C166.026 191.856 167.848 189.856 167.848 187.53V185.336L169.004 185.47V187.669C169.004 188.231 169.116 188.787 169.334 189.305C169.551 189.823 169.87 190.293 170.271 190.686C170.672 191.08 171.147 191.39 171.669 191.598C172.191 191.806 172.749 191.907 173.311 191.897C175.638 191.856 177.46 189.856 177.46 187.53V186.419C178.612 186.901 185.147 186.901 186.96 186.419L187.452 186.381V187.65C187.45 188.214 187.561 188.772 187.778 189.292C187.994 189.813 188.313 190.284 188.714 190.68C189.116 191.075 189.592 191.387 190.115 191.596C190.639 191.805 191.199 191.907 191.762 191.897C194.086 191.856 195.908 189.856 195.908 187.53V185.708L196.292 185.673V187.673C196.293 188.234 196.406 188.79 196.624 189.308C196.842 189.825 197.161 190.294 197.562 190.688C197.963 191.081 198.439 191.39 198.961 191.598C199.483 191.806 200.041 191.907 200.602 191.897C201.627 191.863 202.605 191.464 203.362 190.772C204.118 190.08 204.603 189.141 204.729 188.123C204.753 187.926 204.765 187.728 204.767 187.53V178.35C204.77 175.197 203.714 172.134 201.767 169.653C201.43 169.214 201.241 168.679 201.228 168.125C201.215 167.572 201.378 167.029 201.694 166.574C203.846 163.422 207.03 158.102 206.925 154.331C206.947 153.309 206.588 152.314 205.919 151.541C205.878 151.494 205.833 151.449 205.792 151.405C202.694 148.161 197.241 150.713 197.714 155.173C197.875 156.666 197.767 158.176 197.396 159.632C197.182 160.454 196.891 161.254 196.53 162.022C196.168 162.793 195.572 163.431 194.828 163.845C194.083 164.259 193.227 164.429 192.381 164.33C191.806 164.26 191.227 164.225 190.648 164.225H172.873C171.83 164.226 170.812 163.899 169.964 163.292C169.116 162.684 168.479 161.826 168.143 160.838C167.963 160.321 167.872 159.777 167.874 159.229V145.39C167.874 145.029 167.802 144.672 167.661 144.34C167.521 144.008 167.315 143.708 167.056 143.457C166.798 143.206 166.491 143.009 166.155 142.879C165.819 142.749 165.46 142.687 165.1 142.698C164.748 142.711 164.402 142.794 164.083 142.943C163.764 143.092 163.478 143.303 163.243 143.565C162.761 144.095 162.494 144.785 162.494 145.501C162.494 145.688 162.457 145.874 162.386 146.047C162.314 146.22 162.209 146.377 162.077 146.51C161.945 146.642 161.787 146.747 161.614 146.818C161.441 146.89 161.256 146.927 161.068 146.926H152.666C151.469 146.926 150.283 147.164 149.178 147.626C148.074 148.089 147.072 148.766 146.231 149.619C145.39 150.472 144.728 151.484 144.282 152.595C143.836 153.707 143.615 154.896 143.633 156.093Z" fill="#FBC658"/>
<path d="M196.438 188.723C196.676 189.645 197.217 190.459 197.975 191.035C198.733 191.611 199.663 191.915 200.615 191.897C201.639 191.863 202.618 191.463 203.374 190.772C204.131 190.08 204.615 189.141 204.741 188.123C202.151 187.434 198.602 186.958 196.438 188.723Z" fill="#FBDCA3"/>
<path d="M187.581 188.723C187.82 189.645 188.362 190.459 189.121 191.035C189.879 191.611 190.809 191.915 191.761 191.897C192.783 191.859 193.757 191.458 194.51 190.766C195.262 190.075 195.744 189.138 195.869 188.123C193.31 187.434 189.771 186.958 187.581 188.723Z" fill="#FBDCA3"/>
<path d="M169.14 188.723C169.378 189.645 169.92 190.459 170.677 191.035C171.435 191.611 172.365 191.915 173.317 191.897C174.341 191.863 175.32 191.463 176.076 190.772C176.833 190.08 177.318 189.141 177.443 188.123C174.853 187.434 171.311 186.958 169.14 188.723Z" fill="#FBDCA3"/>
<path d="M159.522 188.723C159.761 189.645 160.303 190.46 161.061 191.036C161.82 191.612 162.751 191.915 163.703 191.897C164.724 191.859 165.699 191.458 166.451 190.766C167.204 190.075 167.686 189.138 167.81 188.123C165.252 187.434 161.703 186.958 159.522 188.723Z" fill="#FBDCA3"/>
<path d="M197.371 159.632C200.358 158.432 204.002 156.236 206.894 154.331C206.915 153.309 206.557 152.314 205.887 151.541C205.846 151.494 205.802 151.449 205.76 151.405C202.662 148.161 197.209 150.713 197.682 155.172C197.845 156.666 197.74 158.176 197.371 159.632Z" fill="#FBDCA3"/>
<path d="M193.756 164.25C193.756 164.25 185.531 174.605 172.076 164.225L193.756 164.25Z" fill="#FBDCA3"/>
<path d="M167.848 145.006C167.848 145.006 162.852 151.541 167.848 159.607V145.006Z" fill="#FBDCA3"/>
<path d="M155.933 167.301C155.933 167.301 160.335 172.767 155.99 177.115L155.933 167.301Z" fill="#FBDCA3"/>
<path opacity="0.1" d="M155.548 166.145C155.865 166.463 155.764 166.749 155.865 167.199L170.149 163.457C169.381 162.863 168.425 162.162 168.111 161.235C166.403 162.552 163.017 164.781 155.548 166.145Z" fill="black"/>
<path d="M155.199 165.654C155.532 165.965 155.763 166.37 155.863 166.815L169.794 163.184C169.016 162.584 168.433 161.768 168.118 160.838C166.404 162.168 162.668 164.282 155.199 165.654Z" fill="#383F4D"/>
<path opacity="0.1" d="M167.594 161.607C167.594 161.607 163.236 164.885 155.933 165.901L167.594 161.607Z" fill="black"/>
<path d="M167.594 161.222C167.594 161.222 163.236 164.501 155.933 165.517L167.594 161.222Z" fill="#F3AD55"/>
<path opacity="0.1" d="M156.701 161.534C156.701 161.534 149.4 163.841 147.477 156.537L156.701 161.534Z" fill="black"/>
<path d="M156.701 161.149C156.701 161.149 149.4 163.457 147.477 156.153L156.701 161.149Z" fill="#FBDCA3"/>
<path d="M143.632 156.537C144.057 156.537 144.401 155.935 144.401 155.192C144.401 154.448 144.057 153.846 143.632 153.846C143.208 153.846 142.864 154.448 142.864 155.192C142.864 155.935 143.208 156.537 143.632 156.537Z" fill="#383F4D"/>
<path opacity="0.1" d="M201.865 182.867L200.329 170.567C200.329 170.567 204.941 177.868 201.865 182.867Z" fill="black"/>
<path d="M199.945 170.567C199.945 170.567 204.557 177.868 201.482 182.867L199.945 170.567Z" fill="#FBDCA3"/>
</g>
<defs>
<linearGradient id="paint0_linear" x1="80.9105" y1="110.807" x2="177.03" y2="126.34" gradientUnits="userSpaceOnUse">
<stop stop-color="#808080" stop-opacity="0.25"/>
<stop offset="0.54" stop-color="#808080" stop-opacity="0.12"/>
<stop offset="1" stop-color="#808080" stop-opacity="0.1"/>
</linearGradient>
<clipPath id="clip0">
<rect width="303.13" height="216" fill="white" transform="translate(0.43457 0.100098)"/>
</clipPath>
</defs>
</svg>
