<svg width="375" height="812" viewBox="0 0 375 812" fill="none" xmlns="http://www.w3.org/2000/svg">
<g clip-path="url(#clip0)">
<rect width="375" height="812" rx="30" fill="#51BCDA"/>
<rect width="375" height="812" rx="30" fill="url(#paint0_linear)"/>
<g filter="url(#filter0_d)">
<path d="M0 153C0 136.431 13.4315 123 30 123H345C361.569 123 375 136.431 375 153V838C375 854.569 361.569 868 345 868H30C13.4315 868 0 854.569 0 838V153Z" fill="white"/>
</g>
<path d="M137.123 93L133.686 81.7988H133.598C133.721 84.0775 133.783 85.5977 133.783 86.3594V93H131.078V78.7227H135.199L138.578 89.6406H138.637L142.221 78.7227H146.342V93H143.52V86.2422C143.52 85.9232 143.523 85.5553 143.529 85.1387C143.542 84.722 143.588 83.6152 143.666 81.8184H143.578L139.896 93H137.123ZM154.232 83.9961C153.601 83.9961 153.106 84.1979 152.748 84.6016C152.39 84.9987 152.185 85.5651 152.133 86.3008H156.312C156.299 85.5651 156.107 84.9987 155.736 84.6016C155.365 84.1979 154.864 83.9961 154.232 83.9961ZM154.652 93.1953C152.895 93.1953 151.521 92.7103 150.531 91.7402C149.542 90.7702 149.047 89.3965 149.047 87.6191C149.047 85.7897 149.503 84.377 150.414 83.3809C151.332 82.3783 152.598 81.877 154.213 81.877C155.756 81.877 156.957 82.3164 157.816 83.1953C158.676 84.0742 159.105 85.2884 159.105 86.8379V88.2832H152.064C152.097 89.1296 152.348 89.7904 152.816 90.2656C153.285 90.7409 153.943 90.9785 154.789 90.9785C155.447 90.9785 156.068 90.9102 156.654 90.7734C157.24 90.6367 157.852 90.4186 158.49 90.1191V92.4238C157.969 92.6842 157.413 92.8763 156.82 93C156.228 93.1302 155.505 93.1953 154.652 93.1953ZM164.984 93.1953C163.702 93.1953 162.693 92.6973 161.957 91.7012C161.228 90.7051 160.863 89.3249 160.863 87.5605C160.863 85.7702 161.234 84.377 161.977 83.3809C162.725 82.3783 163.754 81.877 165.062 81.877C166.436 81.877 167.484 82.4108 168.207 83.4785H168.305C168.155 82.6647 168.08 81.9388 168.08 81.3008V77.8047H171.068V93H168.783L168.207 91.584H168.08C167.403 92.6582 166.371 93.1953 164.984 93.1953ZM166.029 90.8223C166.791 90.8223 167.348 90.6009 167.699 90.1582C168.057 89.7155 168.253 88.9635 168.285 87.9023V87.5801C168.285 86.4082 168.103 85.5684 167.738 85.0605C167.38 84.5527 166.794 84.2988 165.98 84.2988C165.316 84.2988 164.799 84.582 164.428 85.1484C164.063 85.7083 163.881 86.5254 163.881 87.5996C163.881 88.6738 164.066 89.4811 164.438 90.0215C164.809 90.5553 165.339 90.8223 166.029 90.8223ZM179.613 93V78.7227H182.641V93H179.613ZM196.078 93H193.1V86.623C193.1 85.8353 192.96 85.2461 192.68 84.8555C192.4 84.4583 191.954 84.2598 191.342 84.2598C190.508 84.2598 189.906 84.5397 189.535 85.0996C189.164 85.653 188.979 86.5742 188.979 87.8633V93H186V82.082H188.275L188.676 83.4785H188.842C189.174 82.9512 189.63 82.554 190.209 82.2871C190.795 82.0137 191.459 81.877 192.201 81.877C193.471 81.877 194.434 82.222 195.092 82.9121C195.749 83.5957 196.078 84.5853 196.078 85.8809V93ZM205.18 84.3184H202.602V93H199.623V84.3184H197.982V82.8828L199.623 82.082V81.2812C199.623 80.0378 199.929 79.1296 200.541 78.5566C201.153 77.9837 202.133 77.6973 203.48 77.6973C204.509 77.6973 205.424 77.8503 206.225 78.1562L205.463 80.3438C204.864 80.1549 204.311 80.0605 203.803 80.0605C203.38 80.0605 203.074 80.1875 202.885 80.4414C202.696 80.6888 202.602 81.0078 202.602 81.3984V82.082H205.18V84.3184ZM209.271 87.5215C209.271 88.6022 209.447 89.4193 209.799 89.9727C210.157 90.526 210.736 90.8027 211.537 90.8027C212.331 90.8027 212.901 90.5293 213.246 89.9824C213.598 89.429 213.773 88.6087 213.773 87.5215C213.773 86.4408 213.598 85.6302 213.246 85.0898C212.895 84.5495 212.318 84.2793 211.518 84.2793C210.723 84.2793 210.15 84.5495 209.799 85.0898C209.447 85.6237 209.271 86.4342 209.271 87.5215ZM216.82 87.5215C216.82 89.2988 216.352 90.6888 215.414 91.6914C214.477 92.694 213.171 93.1953 211.498 93.1953C210.45 93.1953 209.525 92.9674 208.725 92.5117C207.924 92.0495 207.309 91.3887 206.879 90.5293C206.449 89.6699 206.234 88.6673 206.234 87.5215C206.234 85.7376 206.7 84.3509 207.631 83.3613C208.562 82.3717 209.87 81.877 211.557 81.877C212.605 81.877 213.529 82.1048 214.33 82.5605C215.131 83.0163 215.746 83.6706 216.176 84.5234C216.605 85.3763 216.82 86.3757 216.82 87.5215Z" fill="white"/>
<path d="M245 83L238 90L231 83" stroke="white" stroke-width="3" stroke-linecap="round" stroke-linejoin="round"/>
<g clip-path="url(#clip1)">
<path d="M62.8281 83.8281H38.0102L42.1214 79.7369C42.5801 79.2803 42.5819 78.5383 42.1253 78.0796C41.6688 77.6208 40.9267 77.6191 40.468 78.0756L34.3447 84.1694L34.3437 84.1705C33.8861 84.627 33.8846 85.3714 34.3436 85.8295L34.3446 85.8306L40.4679 91.9244C40.9266 92.3808 41.6686 92.3792 42.1252 91.9204C42.5818 91.4616 42.58 90.7197 42.1213 90.2631L38.0102 86.1719H62.8281C63.4753 86.1719 64 85.6472 64 85C64 84.3528 63.4753 83.8281 62.8281 83.8281Z" fill="white"/>
</g>
<g filter="url(#filter1_d)">
<path d="M19 182C19 165.431 32.4315 152 49 152H326C342.569 152 356 165.431 356 182V479C356 495.569 342.569 509 326 509H49C32.4315 509 19 495.569 19 479V182Z" fill="white"/>
</g>
<path d="M110.334 247H108.188L102.922 238.467H102.864L102.9 238.943C102.969 239.852 103.003 240.682 103.003 241.434V247H101.414V236.292H103.538L108.789 244.781H108.833C108.823 244.668 108.804 244.261 108.774 243.558C108.745 242.85 108.73 242.298 108.73 241.902V236.292H110.334V247ZM116.516 247.146C115.256 247.146 114.27 246.78 113.557 246.048C112.849 245.311 112.495 244.297 112.495 243.008C112.495 241.685 112.825 240.645 113.484 239.888C114.143 239.131 115.049 238.753 116.201 238.753C117.271 238.753 118.115 239.078 118.735 239.727C119.355 240.376 119.666 241.27 119.666 242.408V243.338H114.268C114.292 244.124 114.504 244.729 114.905 245.154C115.305 245.574 115.869 245.784 116.597 245.784C117.075 245.784 117.52 245.74 117.93 245.652C118.345 245.56 118.789 245.408 119.263 245.198V246.597C118.843 246.797 118.418 246.939 117.988 247.022C117.559 247.105 117.068 247.146 116.516 247.146ZM116.201 240.057C115.654 240.057 115.215 240.23 114.883 240.577C114.556 240.923 114.36 241.429 114.297 242.093H117.974C117.964 241.424 117.803 240.918 117.49 240.577C117.178 240.23 116.748 240.057 116.201 240.057ZM125.159 247.146C123.899 247.146 122.913 246.78 122.2 246.048C121.492 245.311 121.138 244.297 121.138 243.008C121.138 241.685 121.467 240.645 122.126 239.888C122.786 239.131 123.691 238.753 124.844 238.753C125.913 238.753 126.758 239.078 127.378 239.727C127.998 240.376 128.308 241.27 128.308 242.408V243.338H122.91C122.935 244.124 123.147 244.729 123.547 245.154C123.948 245.574 124.512 245.784 125.239 245.784C125.718 245.784 126.162 245.74 126.572 245.652C126.987 245.56 127.432 245.408 127.905 245.198V246.597C127.485 246.797 127.061 246.939 126.631 247.022C126.201 247.105 125.71 247.146 125.159 247.146ZM124.844 240.057C124.297 240.057 123.857 240.23 123.525 240.577C123.198 240.923 123.003 241.429 122.939 242.093H126.616C126.606 241.424 126.445 240.918 126.133 240.577C125.82 240.23 125.391 240.057 124.844 240.057ZM132.996 247.146C131.985 247.146 131.196 246.78 130.63 246.048C130.063 245.315 129.78 244.288 129.78 242.964C129.78 241.636 130.066 240.604 130.637 239.866C131.213 239.124 132.009 238.753 133.025 238.753C134.089 238.753 134.9 239.146 135.457 239.932H135.544C135.461 239.351 135.42 238.892 135.42 238.555V235.604H137.148V247H135.801L135.5 245.938H135.42C134.868 246.744 134.06 247.146 132.996 247.146ZM133.457 245.755C134.165 245.755 134.68 245.557 135.002 245.162C135.325 244.761 135.491 244.114 135.5 243.221V242.979C135.5 241.958 135.334 241.233 135.002 240.804C134.67 240.374 134.15 240.159 133.442 240.159C132.837 240.159 132.371 240.406 132.043 240.899C131.716 241.387 131.553 242.085 131.553 242.994C131.553 243.892 131.711 244.578 132.029 245.052C132.346 245.521 132.822 245.755 133.457 245.755ZM145.051 244.693C145.051 245.484 144.763 246.092 144.187 246.517C143.611 246.937 142.786 247.146 141.711 247.146C140.632 247.146 139.766 246.983 139.111 246.656V245.169C140.063 245.608 140.95 245.828 141.77 245.828C142.83 245.828 143.359 245.508 143.359 244.869C143.359 244.664 143.301 244.493 143.184 244.356C143.066 244.219 142.874 244.078 142.605 243.931C142.336 243.785 141.963 243.619 141.484 243.433C140.552 243.072 139.919 242.71 139.587 242.349C139.26 241.988 139.097 241.519 139.097 240.943C139.097 240.25 139.375 239.712 139.932 239.332C140.493 238.946 141.255 238.753 142.217 238.753C143.169 238.753 144.07 238.946 144.919 239.332L144.363 240.628C143.489 240.267 142.754 240.086 142.158 240.086C141.25 240.086 140.796 240.345 140.796 240.862C140.796 241.116 140.913 241.331 141.147 241.507C141.387 241.683 141.904 241.924 142.7 242.232C143.369 242.491 143.855 242.728 144.158 242.942C144.46 243.157 144.685 243.406 144.832 243.689C144.978 243.968 145.051 244.302 145.051 244.693ZM155.884 247L155.54 245.872H155.481C155.09 246.365 154.697 246.702 154.302 246.883C153.906 247.059 153.398 247.146 152.778 247.146C151.982 247.146 151.36 246.932 150.911 246.502C150.466 246.072 150.244 245.464 150.244 244.678C150.244 243.843 150.554 243.213 151.174 242.789C151.794 242.364 152.739 242.132 154.009 242.093L155.408 242.049V241.617C155.408 241.099 155.286 240.713 155.042 240.459C154.802 240.201 154.429 240.071 153.921 240.071C153.506 240.071 153.108 240.132 152.727 240.254C152.346 240.376 151.98 240.521 151.628 240.687L151.072 239.456C151.511 239.227 151.992 239.053 152.515 238.936C153.037 238.814 153.53 238.753 153.994 238.753C155.024 238.753 155.801 238.978 156.323 239.427C156.851 239.876 157.114 240.582 157.114 241.543V247H155.884ZM153.32 245.828C153.945 245.828 154.446 245.655 154.822 245.308C155.203 244.957 155.393 244.466 155.393 243.836V243.133L154.353 243.177C153.542 243.206 152.952 243.343 152.581 243.587C152.214 243.826 152.031 244.195 152.031 244.693C152.031 245.054 152.139 245.335 152.354 245.535C152.568 245.73 152.891 245.828 153.32 245.828ZM165.134 247H163.413V235.604H165.134V247ZM174.788 242.935C174.788 244.258 174.448 245.291 173.77 246.033C173.091 246.775 172.146 247.146 170.935 247.146C170.178 247.146 169.509 246.976 168.928 246.634C168.347 246.292 167.9 245.801 167.588 245.162C167.275 244.522 167.119 243.78 167.119 242.935C167.119 241.622 167.456 240.596 168.13 239.859C168.804 239.122 169.753 238.753 170.979 238.753C172.151 238.753 173.079 239.131 173.762 239.888C174.446 240.64 174.788 241.656 174.788 242.935ZM168.892 242.935C168.892 244.805 169.583 245.74 170.964 245.74C172.332 245.74 173.015 244.805 173.015 242.935C173.015 241.084 172.327 240.159 170.95 240.159C170.227 240.159 169.702 240.398 169.375 240.877C169.053 241.355 168.892 242.042 168.892 242.935ZM179.79 245.755C180.21 245.755 180.63 245.689 181.05 245.557V246.854C180.859 246.937 180.613 247.005 180.31 247.059C180.012 247.117 179.702 247.146 179.38 247.146C177.749 247.146 176.934 246.287 176.934 244.568V240.203H175.828V239.441L177.014 238.812L177.6 237.098H178.662V238.899H180.969V240.203H178.662V244.539C178.662 244.954 178.765 245.262 178.97 245.462C179.18 245.657 179.453 245.755 179.79 245.755ZM193.757 242.935C193.757 244.258 193.418 245.291 192.739 246.033C192.061 246.775 191.116 247.146 189.905 247.146C189.148 247.146 188.479 246.976 187.898 246.634C187.317 246.292 186.87 245.801 186.558 245.162C186.245 244.522 186.089 243.78 186.089 242.935C186.089 241.622 186.426 240.596 187.1 239.859C187.773 239.122 188.723 238.753 189.949 238.753C191.121 238.753 192.048 239.131 192.732 239.888C193.416 240.64 193.757 241.656 193.757 242.935ZM187.861 242.935C187.861 244.805 188.552 245.74 189.934 245.74C191.301 245.74 191.985 244.805 191.985 242.935C191.985 241.084 191.296 240.159 189.919 240.159C189.197 240.159 188.672 240.398 188.345 240.877C188.022 241.355 187.861 242.042 187.861 242.935ZM199.807 240.203H197.83V247H196.101V240.203H194.768V239.397L196.101 238.87V238.343C196.101 237.386 196.326 236.678 196.775 236.219C197.224 235.755 197.91 235.523 198.833 235.523C199.438 235.523 200.034 235.623 200.62 235.823L200.166 237.127C199.741 236.99 199.336 236.922 198.95 236.922C198.56 236.922 198.274 237.044 198.093 237.288C197.917 237.527 197.83 237.889 197.83 238.372V238.899H199.807V240.203ZM211.731 247L210.684 243.221C210.557 242.82 210.327 241.89 209.995 240.43H209.929C209.646 241.749 209.421 242.684 209.255 243.235L208.179 247H206.274L204.004 238.899H205.762L206.794 242.891C207.029 243.877 207.195 244.722 207.292 245.425H207.336C207.385 245.069 207.458 244.661 207.556 244.202C207.659 243.738 207.747 243.392 207.82 243.162L209.05 238.899H210.94L212.134 243.162C212.207 243.401 212.297 243.768 212.405 244.261C212.517 244.754 212.583 245.137 212.603 245.411H212.661C212.734 244.81 212.905 243.97 213.174 242.891L214.221 238.899H215.95L213.665 247H211.731ZM222.417 247L222.073 245.872H222.014C221.624 246.365 221.23 246.702 220.835 246.883C220.439 247.059 219.932 247.146 219.312 247.146C218.516 247.146 217.893 246.932 217.444 246.502C217 246.072 216.777 245.464 216.777 244.678C216.777 243.843 217.087 243.213 217.708 242.789C218.328 242.364 219.272 242.132 220.542 242.093L221.941 242.049V241.617C221.941 241.099 221.819 240.713 221.575 240.459C221.335 240.201 220.962 240.071 220.454 240.071C220.039 240.071 219.641 240.132 219.26 240.254C218.879 240.376 218.513 240.521 218.162 240.687L217.605 239.456C218.044 239.227 218.525 239.053 219.048 238.936C219.57 238.814 220.063 238.753 220.527 238.753C221.558 238.753 222.334 238.978 222.856 239.427C223.384 239.876 223.647 240.582 223.647 241.543V247H222.417ZM219.854 245.828C220.479 245.828 220.979 245.655 221.355 245.308C221.736 244.957 221.926 244.466 221.926 243.836V243.133L220.886 243.177C220.076 243.206 219.485 243.343 219.114 243.587C218.748 243.826 218.564 244.195 218.564 244.693C218.564 245.054 218.672 245.335 218.887 245.535C219.102 245.73 219.424 245.828 219.854 245.828ZM229.067 245.755C229.487 245.755 229.907 245.689 230.327 245.557V246.854C230.137 246.937 229.89 247.005 229.587 247.059C229.29 247.117 228.979 247.146 228.657 247.146C227.026 247.146 226.211 246.287 226.211 244.568V240.203H225.105V239.441L226.292 238.812L226.877 237.098H227.939V238.899H230.247V240.203H227.939V244.539C227.939 244.954 228.042 245.262 228.247 245.462C228.457 245.657 228.73 245.755 229.067 245.755ZM235.491 247.146C234.231 247.146 233.245 246.78 232.532 246.048C231.824 245.311 231.47 244.297 231.47 243.008C231.47 241.685 231.799 240.645 232.458 239.888C233.118 239.131 234.023 238.753 235.176 238.753C236.245 238.753 237.09 239.078 237.71 239.727C238.33 240.376 238.64 241.27 238.64 242.408V243.338H233.242C233.267 244.124 233.479 244.729 233.879 245.154C234.28 245.574 234.844 245.784 235.571 245.784C236.05 245.784 236.494 245.74 236.904 245.652C237.319 245.56 237.764 245.408 238.237 245.198V246.597C237.817 246.797 237.393 246.939 236.963 247.022C236.533 247.105 236.042 247.146 235.491 247.146ZM235.176 240.057C234.629 240.057 234.189 240.23 233.857 240.577C233.53 240.923 233.335 241.429 233.271 242.093H236.948C236.938 241.424 236.777 240.918 236.465 240.577C236.152 240.23 235.723 240.057 235.176 240.057ZM244.705 238.753C245.051 238.753 245.337 238.777 245.562 238.826L245.393 240.43C245.149 240.372 244.895 240.342 244.631 240.342C243.943 240.342 243.384 240.567 242.954 241.016C242.529 241.465 242.317 242.049 242.317 242.767V247H240.596V238.899H241.943L242.17 240.328H242.258C242.527 239.844 242.876 239.461 243.306 239.178C243.74 238.895 244.207 238.753 244.705 238.753ZM248.857 245.425C248.623 246.333 248.193 247.503 247.568 248.934H246.301C246.638 247.615 246.89 246.39 247.056 245.257H248.748L248.857 245.425ZM258.518 247.146C257.258 247.146 256.272 246.78 255.559 246.048C254.851 245.311 254.497 244.297 254.497 243.008C254.497 241.685 254.827 240.645 255.486 239.888C256.145 239.131 257.051 238.753 258.203 238.753C259.272 238.753 260.117 239.078 260.737 239.727C261.357 240.376 261.667 241.27 261.667 242.408V243.338H256.27C256.294 244.124 256.506 244.729 256.907 245.154C257.307 245.574 257.871 245.784 258.599 245.784C259.077 245.784 259.521 245.74 259.932 245.652C260.347 245.56 260.791 245.408 261.265 245.198V246.597C260.845 246.797 260.42 246.939 259.99 247.022C259.561 247.105 259.07 247.146 258.518 247.146ZM258.203 240.057C257.656 240.057 257.217 240.23 256.885 240.577C256.558 240.923 256.362 241.429 256.299 242.093H259.976C259.966 241.424 259.805 240.918 259.492 240.577C259.18 240.23 258.75 240.057 258.203 240.057ZM268.691 247L268.347 245.872H268.289C267.898 246.365 267.505 246.702 267.109 246.883C266.714 247.059 266.206 247.146 265.586 247.146C264.79 247.146 264.167 246.932 263.718 246.502C263.274 246.072 263.052 245.464 263.052 244.678C263.052 243.843 263.362 243.213 263.982 242.789C264.602 242.364 265.547 242.132 266.816 242.093L268.215 242.049V241.617C268.215 241.099 268.093 240.713 267.849 240.459C267.61 240.201 267.236 240.071 266.729 240.071C266.313 240.071 265.916 240.132 265.535 240.254C265.154 240.376 264.788 240.521 264.436 240.687L263.879 239.456C264.319 239.227 264.8 239.053 265.322 238.936C265.845 238.814 266.338 238.753 266.802 238.753C267.832 238.753 268.608 238.978 269.131 239.427C269.658 239.876 269.922 240.582 269.922 241.543V247H268.691ZM266.128 245.828C266.753 245.828 267.253 245.655 267.629 245.308C268.01 244.957 268.201 244.466 268.201 243.836V243.133L267.161 243.177C266.35 243.206 265.759 243.343 265.388 243.587C265.022 243.826 264.839 244.195 264.839 244.693C264.839 245.054 264.946 245.335 265.161 245.535C265.376 245.73 265.698 245.828 266.128 245.828ZM277.766 244.693C277.766 245.484 277.478 246.092 276.902 246.517C276.326 246.937 275.5 247.146 274.426 247.146C273.347 247.146 272.48 246.983 271.826 246.656V245.169C272.778 245.608 273.665 245.828 274.485 245.828C275.544 245.828 276.074 245.508 276.074 244.869C276.074 244.664 276.016 244.493 275.898 244.356C275.781 244.219 275.588 244.078 275.32 243.931C275.051 243.785 274.678 243.619 274.199 243.433C273.267 243.072 272.634 242.71 272.302 242.349C271.975 241.988 271.812 241.519 271.812 240.943C271.812 240.25 272.09 239.712 272.646 239.332C273.208 238.946 273.97 238.753 274.932 238.753C275.884 238.753 276.785 238.946 277.634 239.332L277.078 240.628C276.204 240.267 275.469 240.086 274.873 240.086C273.965 240.086 273.511 240.345 273.511 240.862C273.511 241.116 273.628 241.331 273.862 241.507C274.102 241.683 274.619 241.924 275.415 242.232C276.084 242.491 276.57 242.728 276.873 242.942C277.175 243.157 277.4 243.406 277.546 243.689C277.693 243.968 277.766 244.302 277.766 244.693ZM281.355 247H279.634V238.899H281.355V247ZM279.531 236.753C279.531 236.446 279.614 236.209 279.78 236.043C279.951 235.877 280.193 235.794 280.505 235.794C280.808 235.794 281.042 235.877 281.208 236.043C281.379 236.209 281.465 236.446 281.465 236.753C281.465 237.046 281.379 237.278 281.208 237.449C281.042 237.615 280.808 237.698 280.505 237.698C280.193 237.698 279.951 237.615 279.78 237.449C279.614 237.278 279.531 237.046 279.531 236.753ZM285.544 247H283.823V235.604H285.544V247ZM286.782 238.899H288.657L290.305 243.492C290.554 244.146 290.72 244.761 290.803 245.337H290.862C290.906 245.069 290.986 244.744 291.104 244.363C291.221 243.978 291.841 242.156 292.964 238.899H294.824L291.36 248.077C290.73 249.761 289.68 250.604 288.21 250.604C287.83 250.604 287.458 250.562 287.097 250.479V249.117C287.356 249.175 287.651 249.205 287.983 249.205C288.813 249.205 289.397 248.724 289.734 247.762L290.034 247L286.782 238.899ZM106.672 261.693C106.672 262.484 106.384 263.092 105.808 263.517C105.232 263.937 104.407 264.146 103.333 264.146C102.253 264.146 101.387 263.983 100.732 263.656V262.169C101.685 262.608 102.571 262.828 103.391 262.828C104.451 262.828 104.98 262.508 104.98 261.869C104.98 261.664 104.922 261.493 104.805 261.356C104.688 261.219 104.495 261.078 104.226 260.931C103.958 260.785 103.584 260.619 103.105 260.433C102.173 260.072 101.541 259.71 101.208 259.349C100.881 258.988 100.718 258.519 100.718 257.943C100.718 257.25 100.996 256.712 101.553 256.332C102.114 255.946 102.876 255.753 103.838 255.753C104.79 255.753 105.691 255.946 106.541 256.332L105.984 257.628C105.11 257.267 104.375 257.086 103.779 257.086C102.871 257.086 102.417 257.345 102.417 257.862C102.417 258.116 102.534 258.331 102.769 258.507C103.008 258.683 103.525 258.924 104.321 259.232C104.99 259.491 105.476 259.728 105.779 259.942C106.082 260.157 106.306 260.406 106.453 260.689C106.599 260.968 106.672 261.302 106.672 261.693ZM111.558 262.755C111.978 262.755 112.397 262.689 112.817 262.557V263.854C112.627 263.937 112.38 264.005 112.078 264.059C111.78 264.117 111.47 264.146 111.147 264.146C109.517 264.146 108.701 263.287 108.701 261.568V257.203H107.595V256.441L108.782 255.812L109.368 254.098H110.43V255.899H112.737V257.203H110.43V261.539C110.43 261.954 110.532 262.262 110.737 262.462C110.947 262.657 111.221 262.755 111.558 262.755ZM118.552 255.753C118.899 255.753 119.185 255.777 119.409 255.826L119.241 257.43C118.997 257.372 118.743 257.342 118.479 257.342C117.791 257.342 117.231 257.567 116.802 258.016C116.377 258.465 116.165 259.049 116.165 259.767V264H114.443V255.899H115.791L116.018 257.328H116.106C116.375 256.844 116.724 256.461 117.153 256.178C117.588 255.895 118.054 255.753 118.552 255.753ZM124.456 264.146C123.196 264.146 122.209 263.78 121.497 263.048C120.789 262.311 120.435 261.297 120.435 260.008C120.435 258.685 120.764 257.645 121.423 256.888C122.083 256.131 122.988 255.753 124.141 255.753C125.21 255.753 126.055 256.078 126.675 256.727C127.295 257.376 127.605 258.27 127.605 259.408V260.338H122.207C122.231 261.124 122.444 261.729 122.844 262.154C123.245 262.574 123.809 262.784 124.536 262.784C125.015 262.784 125.459 262.74 125.869 262.652C126.284 262.56 126.729 262.408 127.202 262.198V263.597C126.782 263.797 126.357 263.939 125.928 264.022C125.498 264.105 125.007 264.146 124.456 264.146ZM124.141 257.057C123.594 257.057 123.154 257.23 122.822 257.577C122.495 257.923 122.3 258.429 122.236 259.093H125.913C125.903 258.424 125.742 257.918 125.43 257.577C125.117 257.23 124.688 257.057 124.141 257.057ZM135.002 261.693C135.002 262.484 134.714 263.092 134.138 263.517C133.562 263.937 132.737 264.146 131.663 264.146C130.583 264.146 129.717 263.983 129.062 263.656V262.169C130.015 262.608 130.901 262.828 131.721 262.828C132.781 262.828 133.311 262.508 133.311 261.869C133.311 261.664 133.252 261.493 133.135 261.356C133.018 261.219 132.825 261.078 132.556 260.931C132.288 260.785 131.914 260.619 131.436 260.433C130.503 260.072 129.871 259.71 129.539 259.349C129.211 258.988 129.048 258.519 129.048 257.943C129.048 257.25 129.326 256.712 129.883 256.332C130.444 255.946 131.206 255.753 132.168 255.753C133.12 255.753 134.021 255.946 134.871 256.332L134.314 257.628C133.44 257.267 132.705 257.086 132.109 257.086C131.201 257.086 130.747 257.345 130.747 257.862C130.747 258.116 130.864 258.331 131.099 258.507C131.338 258.683 131.855 258.924 132.651 259.232C133.32 259.491 133.806 259.728 134.109 259.942C134.412 260.157 134.636 260.406 134.783 260.689C134.929 260.968 135.002 261.302 135.002 261.693ZM142.312 261.693C142.312 262.484 142.024 263.092 141.448 263.517C140.872 263.937 140.046 264.146 138.972 264.146C137.893 264.146 137.026 263.983 136.372 263.656V262.169C137.324 262.608 138.21 262.828 139.031 262.828C140.09 262.828 140.62 262.508 140.62 261.869C140.62 261.664 140.562 261.493 140.444 261.356C140.327 261.219 140.134 261.078 139.866 260.931C139.597 260.785 139.224 260.619 138.745 260.433C137.812 260.072 137.18 259.71 136.848 259.349C136.521 258.988 136.357 258.519 136.357 257.943C136.357 257.25 136.636 256.712 137.192 256.332C137.754 255.946 138.516 255.753 139.478 255.753C140.43 255.753 141.331 255.946 142.18 256.332L141.624 257.628C140.75 257.267 140.015 257.086 139.419 257.086C138.511 257.086 138.057 257.345 138.057 257.862C138.057 258.116 138.174 258.331 138.408 258.507C138.647 258.683 139.165 258.924 139.961 259.232C140.63 259.491 141.116 259.728 141.418 259.942C141.721 260.157 141.946 260.406 142.092 260.689C142.239 260.968 142.312 261.302 142.312 261.693ZM147.717 264.146C146.458 264.146 145.471 263.78 144.758 263.048C144.05 262.311 143.696 261.297 143.696 260.008C143.696 258.685 144.026 257.645 144.685 256.888C145.344 256.131 146.25 255.753 147.402 255.753C148.472 255.753 149.316 256.078 149.937 256.727C150.557 257.376 150.867 258.27 150.867 259.408V260.338H145.469C145.493 261.124 145.706 261.729 146.106 262.154C146.506 262.574 147.07 262.784 147.798 262.784C148.276 262.784 148.721 262.74 149.131 262.652C149.546 262.56 149.99 262.408 150.464 262.198V263.597C150.044 263.797 149.619 263.939 149.189 264.022C148.76 264.105 148.269 264.146 147.717 264.146ZM147.402 257.057C146.855 257.057 146.416 257.23 146.084 257.577C145.757 257.923 145.562 258.429 145.498 259.093H149.175C149.165 258.424 149.004 257.918 148.691 257.577C148.379 257.23 147.949 257.057 147.402 257.057ZM155.554 264.146C154.543 264.146 153.755 263.78 153.188 263.048C152.622 262.315 152.339 261.288 152.339 259.964C152.339 258.636 152.625 257.604 153.196 256.866C153.772 256.124 154.568 255.753 155.583 255.753C156.648 255.753 157.458 256.146 158.015 256.932H158.103C158.02 256.351 157.979 255.892 157.979 255.555V252.604H159.707V264H158.359L158.059 262.938H157.979C157.427 263.744 156.619 264.146 155.554 264.146ZM156.016 262.755C156.724 262.755 157.239 262.557 157.561 262.162C157.883 261.761 158.049 261.114 158.059 260.221V259.979C158.059 258.958 157.893 258.233 157.561 257.804C157.229 257.374 156.709 257.159 156.001 257.159C155.396 257.159 154.929 257.406 154.602 257.899C154.275 258.387 154.111 259.085 154.111 259.994C154.111 260.892 154.27 261.578 154.587 262.052C154.905 262.521 155.381 262.755 156.016 262.755ZM173.25 259.935C173.25 261.258 172.91 262.291 172.231 263.033C171.553 263.775 170.608 264.146 169.397 264.146C168.64 264.146 167.971 263.976 167.39 263.634C166.809 263.292 166.362 262.801 166.05 262.162C165.737 261.522 165.581 260.78 165.581 259.935C165.581 258.622 165.918 257.596 166.592 256.859C167.266 256.122 168.215 255.753 169.441 255.753C170.613 255.753 171.541 256.131 172.224 256.888C172.908 257.64 173.25 258.656 173.25 259.935ZM167.354 259.935C167.354 261.805 168.044 262.74 169.426 262.74C170.793 262.74 171.477 261.805 171.477 259.935C171.477 258.084 170.789 257.159 169.412 257.159C168.689 257.159 168.164 257.398 167.837 257.877C167.515 258.355 167.354 259.042 167.354 259.935ZM180.947 264L180.706 262.938H180.618C180.378 263.314 180.037 263.609 179.592 263.824C179.153 264.039 178.65 264.146 178.083 264.146C177.102 264.146 176.37 263.902 175.886 263.414C175.403 262.926 175.161 262.186 175.161 261.195V255.899H176.897V260.895C176.897 261.515 177.024 261.981 177.278 262.293C177.532 262.601 177.93 262.755 178.472 262.755C179.194 262.755 179.724 262.54 180.061 262.11C180.403 261.676 180.574 260.951 180.574 259.935V255.899H182.302V264H180.947ZM187.773 262.755C188.193 262.755 188.613 262.689 189.033 262.557V263.854C188.843 263.937 188.596 264.005 188.293 264.059C187.996 264.117 187.686 264.146 187.363 264.146C185.732 264.146 184.917 263.287 184.917 261.568V257.203H183.811V256.441L184.998 255.812L185.583 254.098H186.646V255.899H188.953V257.203H186.646V261.539C186.646 261.954 186.748 262.262 186.953 262.462C187.163 262.657 187.437 262.755 187.773 262.755Z" fill="#2D3748"/>
<path d="M111.312 326H109.408L107.592 319.613C107.514 319.335 107.416 318.935 107.299 318.412C107.182 317.885 107.111 317.519 107.086 317.313C107.038 317.626 106.957 318.031 106.845 318.529C106.737 319.027 106.647 319.398 106.574 319.643L104.801 326H102.897L101.513 320.639L100.106 315.292H101.894L103.424 321.532C103.664 322.533 103.834 323.417 103.937 324.184C103.991 323.769 104.071 323.305 104.179 322.792C104.286 322.279 104.384 321.864 104.472 321.547L106.215 315.292H107.951L109.738 321.576C109.909 322.157 110.089 323.026 110.28 324.184C110.353 323.485 110.529 322.597 110.807 321.518L112.331 315.292H114.103L111.312 326ZM122.57 326H120.841V321.02C120.841 320.395 120.714 319.928 120.46 319.621C120.211 319.313 119.813 319.159 119.267 319.159C118.544 319.159 118.012 319.376 117.67 319.811C117.333 320.241 117.165 320.963 117.165 321.979V326H115.443V314.604H117.165V317.497C117.165 317.96 117.135 318.456 117.077 318.983H117.187C117.421 318.593 117.746 318.29 118.161 318.075C118.581 317.86 119.069 317.753 119.625 317.753C121.588 317.753 122.57 318.742 122.57 320.719V326ZM128.502 326.146C127.243 326.146 126.256 325.78 125.543 325.048C124.835 324.311 124.481 323.297 124.481 322.008C124.481 320.685 124.811 319.645 125.47 318.888C126.129 318.131 127.035 317.753 128.188 317.753C129.257 317.753 130.102 318.078 130.722 318.727C131.342 319.376 131.652 320.27 131.652 321.408V322.338H126.254C126.278 323.124 126.491 323.729 126.891 324.154C127.292 324.574 127.855 324.784 128.583 324.784C129.062 324.784 129.506 324.74 129.916 324.652C130.331 324.56 130.775 324.408 131.249 324.198V325.597C130.829 325.797 130.404 325.939 129.975 326.022C129.545 326.105 129.054 326.146 128.502 326.146ZM128.188 319.057C127.641 319.057 127.201 319.23 126.869 319.577C126.542 319.923 126.347 320.429 126.283 321.093H129.96C129.95 320.424 129.789 319.918 129.477 319.577C129.164 319.23 128.734 319.057 128.188 319.057ZM138.676 326L138.332 324.872H138.273C137.882 325.365 137.489 325.702 137.094 325.883C136.698 326.059 136.19 326.146 135.57 326.146C134.774 326.146 134.152 325.932 133.703 325.502C133.258 325.072 133.036 324.464 133.036 323.678C133.036 322.843 133.346 322.213 133.966 321.789C134.586 321.364 135.531 321.132 136.801 321.093L138.2 321.049V320.617C138.2 320.099 138.078 319.713 137.833 319.459C137.594 319.201 137.221 319.071 136.713 319.071C136.298 319.071 135.9 319.132 135.519 319.254C135.138 319.376 134.772 319.521 134.42 319.687L133.864 318.456C134.303 318.227 134.784 318.053 135.307 317.936C135.829 317.814 136.322 317.753 136.786 317.753C137.816 317.753 138.593 317.978 139.115 318.427C139.643 318.876 139.906 319.582 139.906 320.543V326H138.676ZM136.112 324.828C136.737 324.828 137.238 324.655 137.614 324.308C137.995 323.957 138.185 323.466 138.185 322.836V322.133L137.145 322.177C136.334 322.206 135.744 322.343 135.373 322.587C135.006 322.826 134.823 323.195 134.823 323.693C134.823 324.054 134.931 324.335 135.146 324.535C135.36 324.73 135.683 324.828 136.112 324.828ZM145.326 324.755C145.746 324.755 146.166 324.689 146.586 324.557V325.854C146.396 325.937 146.149 326.005 145.846 326.059C145.548 326.117 145.238 326.146 144.916 326.146C143.285 326.146 142.47 325.287 142.47 323.568V319.203H141.364V318.441L142.55 317.812L143.136 316.098H144.198V317.899H146.505V319.203H144.198V323.539C144.198 323.954 144.301 324.262 144.506 324.462C144.716 324.657 144.989 324.755 145.326 324.755Z" fill="#2D3748"/>
<line x1="50" y1="287.5" x2="325" y2="287.5" stroke="#9098A5" stroke-opacity="0.36"/>
<path d="M71.0711 235.929C69.1823 234.04 66.6711 233 64 233C61.3289 233 58.8177 234.04 56.9289 235.929C55.0402 237.818 54 240.329 54 243C54 245.671 55.0402 248.182 56.9289 250.071C58.8177 251.96 61.3289 253 64 253C66.6711 253 69.1823 251.96 71.0711 250.071C72.9598 248.182 74 245.671 74 243C74 240.329 72.9598 237.818 71.0711 235.929ZM70.2424 249.242C68.575 250.91 66.3581 251.828 64 251.828C61.6419 251.828 59.425 250.91 57.7576 249.242C56.0902 247.575 55.1719 245.358 55.1719 243C55.1719 240.642 56.0902 238.425 57.7576 236.758C59.425 235.09 61.6419 234.172 64 234.172C66.3581 234.172 68.575 235.09 70.2424 236.758C71.9098 238.425 72.8281 240.642 72.8281 243C72.8281 245.358 71.9098 247.575 70.2424 249.242Z" fill="#51BCDA"/>
<path d="M66.4711 240.529V237.079H61.5288V240.529H58.079V245.471H61.5288V248.921H66.4711V245.471H69.921V240.529H66.4711ZM68.7491 244.299H65.2993V247.749H62.7008V244.299H59.251V241.701H62.7008V238.251H65.2993V241.701H68.7491V244.299Z" fill="#51BCDA"/>
<line x1="50" y1="352.5" x2="325" y2="352.5" stroke="#9098A5" stroke-opacity="0.36"/>
<path d="M110.199 385.543C110.199 387.311 109.708 388.664 108.727 389.601C107.745 390.534 106.332 391 104.486 391H101.49V380.292H104.801C106.505 380.292 107.831 380.751 108.778 381.669C109.725 382.587 110.199 383.878 110.199 385.543ZM108.353 385.602C108.353 383.039 107.154 381.757 104.757 381.757H103.241V389.528H104.486C107.064 389.528 108.353 388.219 108.353 385.602ZM116.432 382.753C116.778 382.753 117.064 382.777 117.289 382.826L117.12 384.43C116.876 384.372 116.622 384.342 116.358 384.342C115.67 384.342 115.111 384.567 114.681 385.016C114.256 385.465 114.044 386.049 114.044 386.767V391H112.323V382.899H113.67L113.897 384.328H113.985C114.254 383.844 114.603 383.461 115.033 383.178C115.467 382.895 115.934 382.753 116.432 382.753ZM118.541 390.084C118.541 389.728 118.634 389.455 118.819 389.264C119.005 389.074 119.273 388.979 119.625 388.979C119.981 388.979 120.252 389.079 120.438 389.279C120.624 389.474 120.716 389.743 120.716 390.084C120.716 390.431 120.621 390.707 120.431 390.912C120.245 391.112 119.977 391.212 119.625 391.212C119.273 391.212 119.005 391.112 118.819 390.912C118.634 390.712 118.541 390.436 118.541 390.084ZM127.008 380.292H130.187C131.661 380.292 132.726 380.507 133.38 380.937C134.039 381.366 134.369 382.045 134.369 382.973C134.369 383.598 134.208 384.118 133.885 384.533C133.563 384.948 133.099 385.209 132.494 385.316V385.39C133.246 385.531 133.797 385.812 134.149 386.232C134.505 386.647 134.684 387.211 134.684 387.924C134.684 388.886 134.347 389.64 133.673 390.187C133.004 390.729 132.071 391 130.875 391H127.008V380.292ZM128.758 384.716H130.443C131.175 384.716 131.71 384.601 132.047 384.372C132.384 384.137 132.552 383.742 132.552 383.185C132.552 382.682 132.369 382.318 132.003 382.094C131.642 381.869 131.065 381.757 130.274 381.757H128.758V384.716ZM128.758 386.137V389.528H130.619C131.351 389.528 131.903 389.389 132.274 389.11C132.65 388.827 132.838 388.383 132.838 387.777C132.838 387.221 132.647 386.808 132.267 386.54C131.886 386.271 131.307 386.137 130.531 386.137H128.758ZM140.836 382.753C141.183 382.753 141.468 382.777 141.693 382.826L141.524 384.43C141.28 384.372 141.026 384.342 140.763 384.342C140.074 384.342 139.515 384.567 139.085 385.016C138.661 385.465 138.448 386.049 138.448 386.767V391H136.727V382.899H138.075L138.302 384.328H138.39C138.658 383.844 139.007 383.461 139.437 383.178C139.872 382.895 140.338 382.753 140.836 382.753ZM150.387 386.935C150.387 388.258 150.047 389.291 149.369 390.033C148.69 390.775 147.745 391.146 146.534 391.146C145.777 391.146 145.108 390.976 144.527 390.634C143.946 390.292 143.5 389.801 143.187 389.162C142.875 388.522 142.718 387.78 142.718 386.935C142.718 385.622 143.055 384.596 143.729 383.859C144.403 383.122 145.353 382.753 146.578 382.753C147.75 382.753 148.678 383.131 149.361 383.888C150.045 384.64 150.387 385.656 150.387 386.935ZM144.491 386.935C144.491 388.805 145.182 389.74 146.563 389.74C147.931 389.74 148.614 388.805 148.614 386.935C148.614 385.084 147.926 384.159 146.549 384.159C145.826 384.159 145.301 384.398 144.974 384.877C144.652 385.355 144.491 386.042 144.491 386.935ZM159.015 391L157.967 387.221C157.84 386.82 157.611 385.89 157.279 384.43H157.213C156.93 385.749 156.705 386.684 156.539 387.235L155.462 391H153.558L151.288 382.899H153.045L154.078 386.891C154.312 387.877 154.479 388.722 154.576 389.425H154.62C154.669 389.069 154.742 388.661 154.84 388.202C154.942 387.738 155.03 387.392 155.104 387.162L156.334 382.899H158.224L159.417 387.162C159.491 387.401 159.581 387.768 159.688 388.261C159.801 388.754 159.867 389.137 159.886 389.411H159.945C160.018 388.81 160.189 387.97 160.458 386.891L161.505 382.899H163.233L160.948 391H159.015ZM171.759 391H170.03V386.02C170.03 385.395 169.903 384.928 169.649 384.621C169.4 384.313 169.002 384.159 168.456 384.159C167.728 384.159 167.196 384.374 166.859 384.804C166.522 385.233 166.354 385.954 166.354 386.964V391H164.632V382.899H165.98L166.222 383.961H166.31C166.554 383.576 166.9 383.278 167.35 383.068C167.799 382.858 168.297 382.753 168.844 382.753C170.787 382.753 171.759 383.742 171.759 385.719V391Z" fill="#2D3748"/>
<line x1="52" y1="417.5" x2="327" y2="417.5" stroke="#9098A5" stroke-opacity="0.36"/>
<g clip-path="url(#clip2)">
<path d="M61.9683 387.733C61.9063 388.197 61.726 388.963 61.1973 389.354L58.4333 389.947C57.1955 390.215 56.258 391.229 56.0887 392.484L55.722 395.245C55.6966 395.435 55.7544 395.627 55.8805 395.772C56.0067 395.916 56.1891 395.999 56.381 396H71.619C71.8113 396 71.9942 395.917 72.1208 395.772C72.2475 395.628 72.3055 395.436 72.28 395.245L71.9117 392.484C71.7423 391.229 70.8046 390.214 69.5667 389.947L66.8023 389.355C66.269 388.96 66.089 388.181 66.0297 387.735C67.0417 387.041 67.614 385.837 67.934 384.627C68.8707 384.484 69.334 383.844 69.334 382.667C69.346 382.344 69.2758 382.024 69.13 381.736C69.2511 381.36 69.3206 380.969 69.3367 380.574C69.5411 380.455 69.6669 380.236 69.6667 380V379.333C69.6657 379.008 69.4304 378.731 69.1097 378.678C68.9525 378.087 68.6523 377.545 68.2357 377.098C66.7783 375.64 64.1333 375.967 62.2667 376.34C60.8257 376.627 60.254 376.116 60.2333 376.098C60.164 376.028 60.0678 375.993 59.9701 376.001C59.8724 376.009 59.7833 376.06 59.7263 376.14C59.2231 376.908 58.9086 377.784 58.8087 378.697C58.5275 378.782 58.3345 379.04 58.3333 379.333V380C58.3346 380.282 58.5125 380.532 58.778 380.626C58.8056 380.954 58.8662 381.279 58.959 381.596C58.7467 381.911 58.6439 382.287 58.6667 382.667C58.6667 383.844 59.129 384.484 60.0667 384.627C60.3857 385.837 60.9573 387.04 61.9683 387.733ZM56.749 392.572C56.8807 391.596 57.6101 390.807 58.573 390.599L61.255 390.024L63.6667 391.833V395.333H56.381L56.749 392.572ZM71.251 392.572L71.619 395.333H64.3333V391.833L66.745 390.024L69.427 390.6C70.3896 390.808 71.1189 391.596 71.251 392.572ZM66.139 389.646L64 391.25L61.861 389.646C62.2434 389.197 62.4947 388.651 62.5873 388.069C63.4956 388.421 64.5031 388.421 65.4113 388.069C65.5045 388.651 65.7562 389.197 66.139 389.646ZM64 387.667C60.613 387.667 60.336 382.864 60.3333 381.355C60.3693 381.122 60.4209 380.892 60.4877 380.667H64.0087C64.3198 381.086 64.8111 381.333 65.3333 381.333C65.8555 381.333 66.3469 381.086 66.658 380.667H67.5123C67.579 380.892 67.6306 381.122 67.6667 381.355C67.664 382.864 67.3867 387.667 64 387.667ZM59.5467 381.224C59.503 381.04 59.4707 380.854 59.45 380.667H59.7957C59.7323 380.911 59.6957 381.107 59.681 381.211C59.636 381.213 59.5912 381.217 59.5467 381.224ZM59 379.333H63.7C63.6551 379.553 63.6551 379.78 63.7 380H59V379.333ZM64.3333 379.667C64.3333 379.114 64.7811 378.667 65.3333 378.667C65.8856 378.667 66.3333 379.114 66.3333 379.667C66.3333 380.219 65.8856 380.667 65.3333 380.667C64.7811 380.667 64.3333 380.219 64.3333 379.667ZM66.9667 379.333H69V380H66.9667C67.0116 379.78 67.0116 379.553 66.9667 379.333ZM68.3193 381.211C68.303 381.107 68.268 380.911 68.2047 380.667H68.6667C68.6512 380.867 68.6203 381.066 68.5743 381.261C68.4915 381.234 68.4058 381.218 68.319 381.211H68.3193ZM68.096 383.915C68.2217 383.244 68.2975 382.564 68.3227 381.882C68.3742 381.89 68.423 381.911 68.4647 381.943C68.626 382.147 68.6988 382.408 68.6667 382.667C68.6667 383.487 68.4203 383.795 68.0957 383.915H68.096ZM60.098 376.796C60.8191 377.125 61.6315 377.195 62.398 376.993C64.112 376.651 66.5313 376.338 67.7647 377.569C68.0558 377.884 68.2743 378.258 68.405 378.667H66.658C66.3469 378.247 65.8555 378 65.3333 378C64.8111 378 64.3198 378.247 64.0087 378.667H59.4897C59.576 378.011 59.7822 377.377 60.098 376.796ZM59.3333 382.667C59.3009 382.407 59.3738 382.146 59.5357 381.941C59.5774 381.91 59.6261 381.889 59.6777 381.881C59.7029 382.563 59.7786 383.243 59.9043 383.914C59.5797 383.795 59.3333 383.487 59.3333 382.667Z" fill="#51BCDA"/>
<path d="M66.6666 393.333C66.6666 393.517 66.8159 393.666 67 393.666H67.6666V394.333C67.6666 394.517 67.8159 394.666 68 394.666C68.1841 394.666 68.3333 394.517 68.3333 394.333V393.666H69C69.1841 393.666 69.3333 393.517 69.3333 393.333C69.3333 393.149 69.1841 393 69 393H68.3333V392.333C68.3333 392.149 68.1841 392 68 392C67.8159 392 67.6666 392.149 67.6666 392.333V393H67C66.8159 393 66.6666 393.149 66.6666 393.333Z" fill="#51BCDA"/>
<path d="M60 392.667C59.4123 392.707 58.9663 393.212 59 393.8C59 394.124 59.13 394.667 60 394.667C60.87 394.667 61 394.124 61 393.8C61.0337 393.212 60.5876 392.707 60 392.667ZM60 394C59.6666 394 59.6666 393.933 59.6666 393.8C59.6666 393.547 59.8193 393.333 60 393.333C60.1806 393.333 60.3333 393.547 60.3333 393.8C60.3333 393.933 60.3333 394 60 394Z" fill="#51BCDA"/>
<path d="M59.3333 392.333C59.5174 392.333 59.6667 392.184 59.6667 392C59.6667 391.816 59.5174 391.667 59.3333 391.667C59.1492 391.667 59 391.816 59 392C59 392.184 59.1492 392.333 59.3333 392.333Z" fill="#51BCDA"/>
<path d="M58.6666 393C58.8507 393 59 392.851 59 392.667C59 392.482 58.8507 392.333 58.6666 392.333C58.4826 392.333 58.3333 392.482 58.3333 392.667C58.3333 392.851 58.4826 393 58.6666 393Z" fill="#51BCDA"/>
<path d="M60.6666 392.333C60.8507 392.333 61 392.184 61 392C61 391.816 60.8507 391.667 60.6666 391.667C60.4826 391.667 60.3333 391.816 60.3333 392C60.3333 392.184 60.4826 392.333 60.6666 392.333Z" fill="#51BCDA"/>
<path d="M61.3333 393C61.5174 393 61.6667 392.851 61.6667 392.667C61.6667 392.482 61.5174 392.333 61.3333 392.333C61.1492 392.333 61 392.482 61 392.667C61 392.851 61.1492 393 61.3333 393Z" fill="#51BCDA"/>
</g>
<path d="M55.6074 195.417H60.0732V201.51C59.3428 201.748 58.64 201.917 57.9648 202.017C57.2952 202.116 56.5703 202.166 55.79 202.166C53.9528 202.166 52.5361 201.624 51.54 200.539C50.5439 199.449 50.0459 197.913 50.0459 195.932C50.0459 193.979 50.6076 192.451 51.731 191.35C52.8543 190.243 54.401 189.69 56.3711 189.69C57.6383 189.69 58.8392 189.933 59.9736 190.42L59.2764 192.072C58.2913 191.618 57.3063 191.392 56.3213 191.392C55.0264 191.392 54.0026 191.798 53.25 192.612C52.4974 193.425 52.1211 194.538 52.1211 195.949C52.1211 197.432 52.4587 198.561 53.1338 199.335C53.8145 200.105 54.7912 200.489 56.064 200.489C56.7059 200.489 57.3921 200.409 58.1226 200.249V197.119H55.6074V195.417ZM66.7969 202.166C65.3691 202.166 64.2513 201.751 63.4434 200.921C62.641 200.085 62.2397 198.937 62.2397 197.476C62.2397 195.976 62.6133 194.798 63.3604 193.94C64.1074 193.082 65.134 192.653 66.4399 192.653C67.6519 192.653 68.6092 193.021 69.312 193.757C70.0148 194.493 70.3662 195.506 70.3662 196.795V197.85H64.2485C64.2762 198.741 64.5169 199.427 64.9707 199.908C65.4245 200.384 66.0636 200.622 66.8882 200.622C67.4305 200.622 67.9341 200.572 68.3989 200.473C68.8693 200.368 69.3729 200.196 69.9097 199.958V201.543C69.4338 201.77 68.9523 201.931 68.4653 202.025C67.9784 202.119 67.4222 202.166 66.7969 202.166ZM66.4399 194.131C65.8201 194.131 65.3221 194.327 64.9458 194.72C64.575 195.113 64.3537 195.686 64.2817 196.438H68.4487C68.4377 195.68 68.255 195.108 67.9009 194.72C67.5467 194.327 67.0597 194.131 66.4399 194.131ZM80.6592 202H78.7002V196.355C78.7002 195.647 78.5563 195.119 78.2686 194.77C77.9863 194.421 77.5353 194.247 76.9155 194.247C76.091 194.247 75.4878 194.491 75.106 194.978C74.7241 195.465 74.5332 196.281 74.5332 197.426V202H72.5825V192.819H74.1099L74.3838 194.023H74.4834C74.7601 193.586 75.153 193.248 75.6621 193.01C76.1712 192.772 76.7357 192.653 77.3555 192.653C79.5579 192.653 80.6592 193.774 80.6592 196.015V202ZM87.3828 202.166C85.9551 202.166 84.8372 201.751 84.0293 200.921C83.2269 200.085 82.8257 198.937 82.8257 197.476C82.8257 195.976 83.1992 194.798 83.9463 193.94C84.6934 193.082 85.7199 192.653 87.0259 192.653C88.2378 192.653 89.1951 193.021 89.8979 193.757C90.6007 194.493 90.9521 195.506 90.9521 196.795V197.85H84.8345C84.8621 198.741 85.1029 199.427 85.5566 199.908C86.0104 200.384 86.6496 200.622 87.4741 200.622C88.0164 200.622 88.52 200.572 88.9849 200.473C89.4552 200.368 89.9588 200.196 90.4956 199.958V201.543C90.0197 201.77 89.5382 201.931 89.0513 202.025C88.5643 202.119 88.0081 202.166 87.3828 202.166ZM87.0259 194.131C86.4061 194.131 85.908 194.327 85.5317 194.72C85.161 195.113 84.9396 195.686 84.8677 196.438H89.0347C89.0236 195.68 88.841 195.108 88.4868 194.72C88.1326 194.327 87.6457 194.131 87.0259 194.131ZM97.8252 192.653C98.2181 192.653 98.5418 192.681 98.7964 192.736L98.6055 194.554C98.3288 194.488 98.041 194.455 97.7422 194.455C96.9619 194.455 96.3283 194.709 95.8413 195.218C95.3599 195.727 95.1191 196.389 95.1191 197.202V202H93.1685V192.819H94.6958L94.9531 194.438H95.0527C95.3571 193.89 95.7528 193.456 96.2397 193.135C96.7323 192.814 97.2607 192.653 97.8252 192.653ZM106.25 202L105.86 200.722H105.794C105.351 201.281 104.906 201.662 104.458 201.867C104.009 202.066 103.434 202.166 102.731 202.166C101.829 202.166 101.123 201.923 100.614 201.436C100.111 200.949 99.8589 200.26 99.8589 199.369C99.8589 198.422 100.21 197.708 100.913 197.227C101.616 196.746 102.687 196.483 104.125 196.438L105.711 196.389V195.899C105.711 195.312 105.573 194.875 105.296 194.587C105.025 194.294 104.601 194.147 104.026 194.147C103.556 194.147 103.104 194.217 102.673 194.355C102.241 194.493 101.826 194.657 101.428 194.845L100.797 193.45C101.295 193.19 101.84 192.994 102.432 192.861C103.024 192.722 103.583 192.653 104.109 192.653C105.277 192.653 106.156 192.908 106.749 193.417C107.346 193.926 107.645 194.726 107.645 195.816V202H106.25ZM103.345 200.672C104.054 200.672 104.621 200.475 105.047 200.083C105.479 199.684 105.694 199.128 105.694 198.414V197.617L104.516 197.667C103.597 197.7 102.927 197.855 102.507 198.132C102.092 198.403 101.884 198.821 101.884 199.385C101.884 199.795 102.006 200.113 102.25 200.34C102.493 200.561 102.858 200.672 103.345 200.672ZM112.318 202H110.368V189.084H112.318V202ZM124.985 202L121.466 191.865H121.399C121.493 193.37 121.541 194.781 121.541 196.098V202H119.739V189.864H122.537L125.907 199.518H125.957L129.426 189.864H132.232V202H130.323V195.999C130.323 195.395 130.337 194.61 130.364 193.641C130.397 192.673 130.425 192.086 130.447 191.881H130.381L126.737 202H124.985ZM139.229 202.166C137.802 202.166 136.684 201.751 135.876 200.921C135.074 200.085 134.672 198.937 134.672 197.476C134.672 195.976 135.046 194.798 135.793 193.94C136.54 193.082 137.567 192.653 138.873 192.653C140.084 192.653 141.042 193.021 141.745 193.757C142.447 194.493 142.799 195.506 142.799 196.795V197.85H136.681C136.709 198.741 136.95 199.427 137.403 199.908C137.857 200.384 138.496 200.622 139.321 200.622C139.863 200.622 140.367 200.572 140.832 200.473C141.302 200.368 141.806 200.196 142.342 199.958V201.543C141.866 201.77 141.385 201.931 140.898 202.025C140.411 202.119 139.855 202.166 139.229 202.166ZM138.873 194.131C138.253 194.131 137.755 194.327 137.378 194.72C137.008 195.113 136.786 195.686 136.714 196.438H140.881C140.87 195.68 140.688 195.108 140.333 194.72C139.979 194.327 139.492 194.131 138.873 194.131ZM148.111 202.166C146.966 202.166 146.072 201.751 145.43 200.921C144.788 200.091 144.467 198.926 144.467 197.426C144.467 195.921 144.791 194.751 145.438 193.915C146.091 193.074 146.993 192.653 148.145 192.653C149.351 192.653 150.27 193.099 150.9 193.99H151C150.906 193.331 150.859 192.811 150.859 192.429V189.084H152.818V202H151.291L150.95 200.796H150.859C150.234 201.709 149.318 202.166 148.111 202.166ZM148.634 200.589C149.437 200.589 150.021 200.365 150.386 199.917C150.751 199.463 150.939 198.729 150.95 197.717V197.443C150.95 196.286 150.762 195.465 150.386 194.978C150.009 194.491 149.42 194.247 148.618 194.247C147.931 194.247 147.403 194.527 147.032 195.085C146.661 195.639 146.476 196.43 146.476 197.459C146.476 198.478 146.656 199.255 147.016 199.792C147.375 200.323 147.915 200.589 148.634 200.589ZM157.558 202H155.607V192.819H157.558V202ZM155.491 190.387C155.491 190.039 155.585 189.77 155.773 189.582C155.967 189.394 156.241 189.3 156.595 189.3C156.938 189.3 157.203 189.394 157.392 189.582C157.585 189.77 157.682 190.039 157.682 190.387C157.682 190.719 157.585 190.982 157.392 191.176C157.203 191.364 156.938 191.458 156.595 191.458C156.241 191.458 155.967 191.364 155.773 191.176C155.585 190.982 155.491 190.719 155.491 190.387ZM164.057 202.166C162.668 202.166 161.611 201.762 160.886 200.954C160.167 200.141 159.807 198.976 159.807 197.459C159.807 195.916 160.183 194.729 160.936 193.898C161.694 193.068 162.787 192.653 164.215 192.653C165.183 192.653 166.055 192.833 166.83 193.193L166.24 194.762C165.416 194.441 164.735 194.28 164.198 194.28C162.61 194.28 161.816 195.334 161.816 197.443C161.816 198.472 162.012 199.247 162.405 199.767C162.804 200.282 163.385 200.539 164.148 200.539C165.017 200.539 165.839 200.323 166.614 199.892V201.593C166.265 201.798 165.892 201.945 165.493 202.033C165.1 202.122 164.622 202.166 164.057 202.166ZM174.516 202L174.126 200.722H174.06C173.617 201.281 173.171 201.662 172.723 201.867C172.275 202.066 171.699 202.166 170.997 202.166C170.095 202.166 169.389 201.923 168.88 201.436C168.376 200.949 168.125 200.26 168.125 199.369C168.125 198.422 168.476 197.708 169.179 197.227C169.882 196.746 170.952 196.483 172.391 196.438L173.977 196.389V195.899C173.977 195.312 173.838 194.875 173.562 194.587C173.29 194.294 172.867 194.147 172.292 194.147C171.821 194.147 171.37 194.217 170.938 194.355C170.507 194.493 170.092 194.657 169.693 194.845L169.062 193.45C169.561 193.19 170.106 192.994 170.698 192.861C171.29 192.722 171.849 192.653 172.375 192.653C173.542 192.653 174.422 192.908 175.014 193.417C175.612 193.926 175.911 194.726 175.911 195.816V202H174.516ZM171.611 200.672C172.319 200.672 172.886 200.475 173.312 200.083C173.744 199.684 173.96 199.128 173.96 198.414V197.617L172.781 197.667C171.863 197.7 171.193 197.855 170.772 198.132C170.357 198.403 170.15 198.821 170.15 199.385C170.15 199.795 170.272 200.113 170.515 200.34C170.759 200.561 171.124 200.672 171.611 200.672ZM180.584 202H178.633V189.084H180.584V202ZM188.005 202V189.864H189.989V202H188.005ZM201.07 202H199.111V196.355C199.111 195.647 198.967 195.119 198.68 194.77C198.397 194.421 197.946 194.247 197.327 194.247C196.502 194.247 195.899 194.491 195.517 194.978C195.135 195.465 194.944 196.281 194.944 197.426V202H192.994V192.819H194.521L194.795 194.023H194.895C195.171 193.586 195.564 193.248 196.073 193.01C196.582 192.772 197.147 192.653 197.767 192.653C199.969 192.653 201.07 193.774 201.07 196.015V202ZM208.392 194.297H206.15V202H204.191V194.297H202.681V193.384L204.191 192.786V192.188C204.191 191.104 204.446 190.301 204.955 189.781C205.464 189.256 206.242 188.993 207.288 188.993C207.974 188.993 208.649 189.106 209.313 189.333L208.798 190.811C208.317 190.656 207.858 190.578 207.42 190.578C206.978 190.578 206.654 190.716 206.449 190.993C206.25 191.264 206.15 191.674 206.15 192.222V192.819H208.392V194.297ZM218.104 197.393C218.104 198.893 217.719 200.063 216.95 200.904C216.181 201.745 215.11 202.166 213.737 202.166C212.88 202.166 212.121 201.972 211.463 201.585C210.804 201.198 210.298 200.641 209.944 199.917C209.59 199.192 209.413 198.35 209.413 197.393C209.413 195.904 209.794 194.742 210.558 193.907C211.322 193.071 212.398 192.653 213.787 192.653C215.115 192.653 216.167 193.082 216.941 193.94C217.716 194.792 218.104 195.943 218.104 197.393ZM211.421 197.393C211.421 199.513 212.204 200.572 213.771 200.572C215.32 200.572 216.095 199.513 216.095 197.393C216.095 195.296 215.314 194.247 213.754 194.247C212.935 194.247 212.34 194.518 211.969 195.061C211.604 195.603 211.421 196.38 211.421 197.393Z" fill="#575B5F"/>
<g clip-path="url(#clip3)">
<path d="M331.428 195C331.034 195 330.714 195.32 330.714 195.714V202.857C330.714 203.252 330.394 203.571 330 203.571H317.143C316.748 203.571 316.429 203.252 316.429 202.857V188.572C316.429 188.177 316.748 187.857 317.143 187.857H325.714C326.109 187.857 326.428 187.537 326.428 187.143C326.428 186.748 326.109 186.429 325.714 186.429H317.143C315.959 186.429 315 187.388 315 188.572V202.857C315 204.041 315.959 205 317.143 205H330C331.183 205 332.143 204.041 332.143 202.857V195.714C332.143 195.32 331.823 195 331.428 195Z" fill="#575B5F"/>
<path d="M334.199 185.801C333.686 185.288 332.991 185 332.266 185C331.54 184.998 330.843 185.287 330.332 185.802L320.923 195.209C320.845 195.288 320.787 195.384 320.751 195.489L319.323 199.774C319.198 200.149 319.4 200.553 319.775 200.678C319.847 200.702 319.923 200.714 320 200.714C320.077 200.714 320.153 200.702 320.226 200.678L324.511 199.249C324.617 199.214 324.712 199.155 324.791 199.077L334.199 189.668C335.267 188.6 335.267 186.869 334.199 185.801ZM333.189 188.659L323.903 197.944L321.129 198.871L322.053 196.1L331.342 186.815C331.853 186.305 332.68 186.306 333.189 186.816C333.433 187.06 333.57 187.391 333.571 187.735C333.572 188.082 333.434 188.414 333.189 188.659Z" fill="#575B5F"/>
</g>
<path d="M64.0001 311.972C62.2145 311.972 60.469 312.501 58.9843 313.494C57.4996 314.486 56.3425 315.896 55.6592 317.545C54.9759 319.195 54.7971 321.01 55.1455 322.762C55.4939 324.513 56.3537 326.122 57.6164 327.384C58.879 328.647 60.4877 329.507 62.239 329.855C63.9903 330.203 65.8056 330.025 67.4552 329.341C69.1049 328.658 70.5149 327.501 71.507 326.016C72.499 324.531 73.0285 322.786 73.0285 321C73.0258 318.607 72.0737 316.312 70.3811 314.619C68.6885 312.927 66.3937 311.975 64.0001 311.972ZM64.0001 329.427C62.3334 329.427 60.7043 328.933 59.3185 328.007C57.9328 327.081 56.8527 325.765 56.215 324.225C55.5772 322.685 55.4103 320.991 55.7355 319.356C56.0606 317.722 56.8632 316.22 58.0417 315.042C59.2202 313.863 60.7216 313.061 62.3562 312.736C63.9908 312.41 65.6851 312.577 67.2249 313.215C68.7647 313.853 70.0808 314.933 71.0067 316.319C71.9327 317.704 72.4269 319.334 72.4269 321C72.4244 323.234 71.5357 325.376 69.9559 326.956C68.3761 328.536 66.2342 329.424 64.0001 329.427V329.427Z" fill="#51BCDA"/>
<path d="M68.801 315.448C68.7988 315.406 68.7879 315.365 68.7688 315.328C68.7498 315.29 68.7231 315.257 68.6905 315.23C67.2629 314.069 65.4554 313.478 63.6174 313.572C61.7794 313.666 60.0417 314.439 58.7404 315.74C57.4391 317.042 56.6667 318.779 56.5727 320.617C56.4786 322.455 57.0695 324.263 58.2312 325.69C58.2577 325.723 58.2908 325.75 58.3284 325.769C58.3659 325.788 58.4071 325.799 58.4491 325.801H58.4644C58.5039 325.801 58.543 325.793 58.5795 325.778C58.616 325.763 58.6491 325.741 58.677 325.713L68.7131 315.677C68.743 315.647 68.7663 315.611 68.7814 315.572C68.7965 315.533 68.8032 315.491 68.801 315.448ZM58.4933 325.046C57.5259 323.73 57.062 322.111 57.1857 320.482C57.3094 318.853 58.0124 317.323 59.1675 316.168C60.3225 315.013 61.8531 314.309 63.482 314.186C65.1108 314.062 66.73 314.526 68.0463 315.493L58.4933 325.046Z" fill="#51BCDA"/>
<path d="M69.8525 316.416C69.8263 316.382 69.7932 316.355 69.7555 316.335C69.7178 316.315 69.6764 316.304 69.6339 316.301C69.5915 316.299 69.5491 316.306 69.5094 316.321C69.4697 316.336 69.4336 316.359 69.4033 316.389L59.389 326.403C59.3589 326.433 59.3355 326.469 59.3204 326.509C59.3053 326.549 59.2988 326.591 59.3013 326.634C59.3039 326.676 59.3154 326.718 59.3352 326.755C59.3549 326.793 59.3825 326.826 59.4159 326.852C60.7212 327.883 62.337 328.441 64 328.436C65.9714 328.433 67.8615 327.649 69.2555 326.255C70.6495 324.861 71.4336 322.971 71.4358 321C71.4411 319.337 70.883 317.721 69.8525 316.416ZM64 327.834C62.5882 327.839 61.2104 327.401 60.0601 326.583L69.582 317.061C70.4007 318.211 70.8386 319.588 70.8343 321C70.8322 322.812 70.1115 324.549 68.8303 325.83C67.5491 327.111 65.812 327.832 64 327.834Z" fill="#51BCDA"/>
<path d="M63.1264 317.24C63.1264 317.395 63.1722 317.545 63.258 317.674C63.3437 317.802 63.4657 317.902 63.6083 317.961C63.751 318.02 63.9079 318.036 64.0594 318.006C64.2108 317.976 64.3499 317.901 64.4591 317.792C64.5683 317.683 64.6426 317.544 64.6727 317.392C64.7028 317.241 64.6874 317.084 64.6283 316.941C64.5692 316.799 64.4692 316.677 64.3408 316.591C64.2124 316.505 64.0615 316.459 63.9071 316.459C63.7001 316.46 63.5017 316.542 63.3553 316.688C63.209 316.835 63.1266 317.033 63.1264 317.24ZM64.086 317.24C64.086 317.276 64.0755 317.31 64.0558 317.34C64.0361 317.369 64.0082 317.392 63.9754 317.406C63.9427 317.419 63.9067 317.423 63.872 317.416C63.8372 317.409 63.8053 317.392 63.7803 317.367C63.7552 317.342 63.7381 317.31 63.7312 317.275C63.7243 317.24 63.7279 317.204 63.7414 317.172C63.755 317.139 63.7779 317.111 63.8074 317.091C63.8368 317.072 63.8715 317.061 63.9069 317.061C63.9544 317.061 63.9999 317.08 64.0335 317.114C64.0671 317.147 64.0859 317.193 64.086 317.24Z" fill="#51BCDA"/>
<path d="M68.5697 319.561C68.4153 319.561 68.2643 319.606 68.136 319.692C68.0076 319.778 67.9075 319.9 67.8484 320.042C67.7893 320.185 67.7739 320.342 67.804 320.494C67.8341 320.645 67.9085 320.784 68.0177 320.893C68.1268 321.002 68.2659 321.077 68.4174 321.107C68.5688 321.137 68.7258 321.122 68.8684 321.062C69.0111 321.003 69.133 320.903 69.2188 320.775C69.3045 320.647 69.3503 320.496 69.3503 320.341C69.3501 320.134 69.2678 319.936 69.1215 319.789C68.9751 319.643 68.7767 319.561 68.5697 319.561ZM68.5697 320.52C68.5342 320.52 68.4996 320.51 68.4701 320.49C68.4407 320.47 68.4177 320.442 68.4042 320.41C68.3906 320.377 68.3871 320.341 68.394 320.306C68.4009 320.271 68.418 320.239 68.4431 320.214C68.4681 320.189 68.5001 320.172 68.5348 320.165C68.5696 320.158 68.6056 320.162 68.6383 320.176C68.671 320.189 68.699 320.212 68.7187 320.242C68.7383 320.271 68.7488 320.306 68.7488 320.341C68.7487 320.389 68.7298 320.434 68.6962 320.468C68.6627 320.501 68.6171 320.52 68.5697 320.52Z" fill="#51BCDA"/>
<path d="M59.9252 318.766C59.7085 318.766 59.4967 318.83 59.3165 318.95C59.1363 319.071 58.9959 319.242 58.9129 319.442C58.83 319.642 58.8083 319.863 58.8506 320.075C58.8929 320.288 58.9972 320.483 59.1505 320.636C59.3037 320.789 59.4989 320.894 59.7115 320.936C59.924 320.978 60.1443 320.957 60.3445 320.874C60.5448 320.791 60.7159 320.65 60.8363 320.47C60.9567 320.29 61.0209 320.078 61.0209 319.861C61.0206 319.571 60.9051 319.292 60.6997 319.087C60.4942 318.881 60.2157 318.766 59.9252 318.766ZM59.9252 320.355C59.8275 320.355 59.732 320.326 59.6507 320.272C59.5694 320.218 59.5061 320.141 59.4687 320.05C59.4313 319.96 59.4215 319.861 59.4406 319.765C59.4597 319.669 59.5067 319.581 59.5758 319.512C59.6449 319.443 59.733 319.396 59.8288 319.377C59.9247 319.358 60.024 319.367 60.1143 319.405C60.2046 319.442 60.2818 319.506 60.3361 319.587C60.3904 319.668 60.4194 319.764 60.4194 319.861C60.4192 319.992 60.3671 320.118 60.2745 320.211C60.1818 320.303 60.0562 320.355 59.9252 320.355Z" fill="#51BCDA"/>
<path d="M68.4116 324.24L68.2772 324.192C68.3647 323.903 68.3511 323.593 68.2386 323.312C68.1261 323.032 67.9215 322.799 67.6584 322.65L67.7174 322.364C67.7335 322.286 67.7179 322.204 67.674 322.138C67.6302 322.071 67.5616 322.025 67.4835 322.008C67.4054 321.992 67.3241 322.008 67.2574 322.052C67.1908 322.096 67.1443 322.164 67.1282 322.242L67.1038 322.361C66.9797 322.19 66.8067 322.061 66.6075 321.99C66.4083 321.92 66.1925 321.912 65.9885 321.967C65.7846 322.022 65.6021 322.137 65.4653 322.298C65.3285 322.459 65.2439 322.658 65.2226 322.868C65.1904 322.88 65.161 322.897 65.1301 322.912L64.9453 322.695C64.8933 322.635 64.8196 322.597 64.7403 322.592C64.661 322.586 64.5826 322.611 64.5222 322.663C64.4618 322.715 64.4244 322.788 64.4181 322.868C64.4118 322.947 64.4371 323.025 64.4885 323.086L64.652 323.277C64.4822 323.475 64.3707 323.716 64.3299 323.973C64.2891 324.23 64.3205 324.494 64.4208 324.734L64.2786 324.841C64.2148 324.889 64.1726 324.96 64.1613 325.039C64.1501 325.118 64.1706 325.198 64.2185 325.262C64.2663 325.326 64.3376 325.368 64.4166 325.379C64.4955 325.391 64.5758 325.37 64.6396 325.322L64.7654 325.228C64.9531 325.404 65.1853 325.525 65.437 325.579C65.6886 325.633 65.9502 325.616 66.1933 325.532L66.2308 325.674C66.2512 325.751 66.3014 325.817 66.3704 325.857C66.4393 325.897 66.5214 325.908 66.5985 325.888C66.6757 325.868 66.7415 325.817 66.7816 325.748C66.8218 325.679 66.8328 325.597 66.8124 325.52L66.7265 325.197C66.7507 325.173 66.7753 325.15 66.7978 325.123C66.8655 325.134 66.934 325.14 67.0025 325.14C67.1837 325.139 67.363 325.102 67.5293 325.03C67.6956 324.958 67.8454 324.853 67.9695 324.721L68.211 324.807C68.2482 324.82 68.2877 324.826 68.3271 324.824C68.3666 324.822 68.4053 324.812 68.4409 324.795C68.4766 324.778 68.5085 324.754 68.535 324.724C68.5614 324.695 68.5818 324.661 68.595 324.624C68.6081 324.586 68.6138 324.547 68.6118 324.507C68.6097 324.468 68.5999 324.429 68.5829 324.394C68.5659 324.358 68.542 324.326 68.5126 324.3C68.4833 324.273 68.449 324.253 68.4117 324.24L68.4116 324.24ZM67.0022 324.538C66.9234 324.538 66.8453 324.525 66.7707 324.5C66.7067 324.478 66.6373 324.479 66.5738 324.502C66.5102 324.525 66.4562 324.568 66.4204 324.625C66.3652 324.713 66.2939 324.79 66.2102 324.852C66.2079 324.854 66.2052 324.855 66.203 324.856C66.1034 324.928 65.9892 324.975 65.8687 324.996C65.7481 325.017 65.6244 325.011 65.5067 324.978C65.389 324.945 65.2803 324.885 65.1886 324.804C65.0969 324.723 65.0246 324.623 64.977 324.51C64.9295 324.397 64.9079 324.275 64.9138 324.153C64.9198 324.031 64.9532 323.912 65.0115 323.804C65.0698 323.697 65.1515 323.603 65.2507 323.532C65.3498 323.46 65.4638 323.412 65.5842 323.39C65.6617 323.376 65.7306 323.332 65.7762 323.268C65.8217 323.204 65.8402 323.124 65.8278 323.046C65.8092 322.935 65.8342 322.82 65.8977 322.726C65.9612 322.633 66.0583 322.567 66.1688 322.543C66.2794 322.519 66.395 322.538 66.4918 322.597C66.5885 322.656 66.6589 322.749 66.6885 322.859C66.7061 322.922 66.744 322.978 66.7963 323.017C66.8487 323.057 66.9126 323.079 66.9783 323.079C66.9836 323.079 66.9955 323.079 67.0077 323.078C67.2014 323.078 67.387 323.156 67.5235 323.293C67.6601 323.431 67.7364 323.617 67.7358 323.81C67.7352 324.004 67.6577 324.19 67.5202 324.326C67.3828 324.463 67.1968 324.539 67.003 324.539L67.0022 324.538Z" fill="#51BCDA"/>
<path d="M70.3014 456.505C69.1815 453.328 67.9897 449.829 63 449.829C60.7774 449.829 59.1106 450.528 57.9044 451.967C56.8582 453.216 56.2949 454.813 55.6986 456.505C54.9987 458.496 56.7182 460.444 58.7498 460.054C60.4303 459.731 62.7385 459.186 66.0374 459.821L67.2501 460.054C69.2603 460.441 71.0071 458.513 70.3014 456.505ZM67.4715 458.903C65.7562 458.573 63.2669 457.992 59.7413 458.67L58.5285 458.903C57.3831 459.124 56.4043 458.026 56.8038 456.895C57.9188 453.732 58.8817 451 63 451C67.1183 451 68.0812 453.732 69.1962 456.895C69.5961 458.027 68.6155 459.124 67.4715 458.903Z" fill="#51BCDA"/>
<path d="M67.9196 447.1C68.8081 445.916 68.8088 444.047 67.9196 442.862C66.9538 441.574 65.296 441.574 64.3304 442.862C63.4419 444.046 63.4412 445.915 64.3304 447.1C65.2962 448.388 66.954 448.388 67.9196 447.1ZM66.125 443.067C66.8238 443.067 67.4141 443.943 67.4141 444.981C67.4141 446.019 66.8238 446.895 66.125 446.895C65.4262 446.895 64.8359 446.019 64.8359 444.981C64.8359 443.943 65.4262 443.067 66.125 443.067Z" fill="#51BCDA"/>
<path d="M61.6695 447.1C62.558 445.916 62.5588 444.047 61.6695 442.862C60.7037 441.574 59.0459 441.574 58.0804 442.862C57.1918 444.046 57.1911 445.915 58.0804 447.1C59.0461 448.388 60.704 448.388 61.6695 447.1ZM59.8749 443.067C60.5737 443.067 61.164 443.943 61.164 444.981C61.164 446.019 60.5737 446.895 59.8749 446.895C59.1762 446.895 58.5859 446.019 58.5859 444.981C58.5859 443.943 59.1762 443.067 59.8749 443.067Z" fill="#51BCDA"/>
<path d="M57.2969 449.043C57.2969 447.859 56.3331 446.895 55.1484 446.895C53.9638 446.895 53 447.859 53 449.043C53 450.228 53.9638 451.192 55.1484 451.192C56.3331 451.192 57.2969 450.228 57.2969 449.043ZM55.1484 450.02C54.61 450.02 54.1719 449.582 54.1719 449.043C54.1719 448.505 54.61 448.067 55.1484 448.067C55.6869 448.067 56.125 448.505 56.125 449.043C56.125 449.582 55.6869 450.02 55.1484 450.02Z" fill="#51BCDA"/>
<path d="M70.8516 446.895C69.6669 446.895 68.7031 447.859 68.7031 449.043C68.7031 450.228 69.6669 451.192 70.8516 451.192C72.0362 451.192 73 450.228 73 449.043C73 447.859 72.0362 446.895 70.8516 446.895ZM70.8516 450.02C70.3131 450.02 69.875 449.582 69.875 449.043C69.875 448.505 70.3131 448.067 70.8516 448.067C71.39 448.067 71.8281 448.505 71.8281 449.043C71.8281 449.582 71.39 450.02 70.8516 450.02Z" fill="#51BCDA"/>
<path d="M64.5625 454.395H63.5859V453.418C63.5859 453.095 63.3236 452.833 63 452.833C62.6764 452.833 62.4141 453.095 62.4141 453.418V454.395H61.4375C61.1139 454.395 60.8516 454.657 60.8516 454.981C60.8516 455.305 61.1139 455.567 61.4375 455.567H62.4141V456.543C62.4141 456.867 62.6764 457.129 63 457.129C63.3236 457.129 63.5859 456.867 63.5859 456.543V455.567H64.5625C64.8861 455.567 65.1484 455.305 65.1484 454.981C65.1484 454.657 64.8861 454.395 64.5625 454.395Z" fill="#51BCDA"/>
<path d="M105.713 456H103.992V449.086C103.992 448.261 104.011 447.606 104.05 447.123C103.938 447.24 103.799 447.37 103.633 447.511C103.472 447.653 102.925 448.102 101.992 448.859L101.128 447.768L104.277 445.292H105.713V456ZM116.487 456H109.229V454.696L111.99 451.92C112.805 451.085 113.345 450.495 113.608 450.148C113.877 449.796 114.072 449.467 114.194 449.159C114.316 448.852 114.377 448.522 114.377 448.17C114.377 447.687 114.231 447.306 113.938 447.028C113.65 446.75 113.25 446.61 112.737 446.61C112.327 446.61 111.929 446.686 111.543 446.837C111.162 446.989 110.72 447.262 110.217 447.658L109.287 446.522C109.883 446.02 110.461 445.663 111.023 445.453C111.584 445.243 112.183 445.138 112.817 445.138C113.813 445.138 114.612 445.399 115.212 445.922C115.813 446.439 116.113 447.138 116.113 448.017C116.113 448.5 116.025 448.959 115.85 449.394C115.679 449.828 115.413 450.277 115.051 450.741C114.695 451.2 114.099 451.823 113.264 452.609L111.404 454.411V454.484H116.487V456ZM121.431 449.313C122.51 449.313 123.364 449.599 123.994 450.17C124.624 450.741 124.939 451.52 124.939 452.506C124.939 453.649 124.58 454.542 123.862 455.187C123.149 455.827 122.134 456.146 120.815 456.146C119.619 456.146 118.679 455.954 117.996 455.568V454.008C118.391 454.232 118.845 454.406 119.358 454.528C119.871 454.65 120.347 454.711 120.786 454.711C121.562 454.711 122.153 454.538 122.559 454.191C122.964 453.844 123.167 453.336 123.167 452.667C123.167 451.388 122.351 450.749 120.72 450.749C120.491 450.749 120.208 450.773 119.871 450.822C119.534 450.866 119.238 450.917 118.984 450.976L118.215 450.521L118.625 445.292H124.192V446.823H120.142L119.9 449.474C120.071 449.445 120.278 449.411 120.522 449.372C120.771 449.333 121.074 449.313 121.431 449.313ZM133.625 450.646C133.625 452.506 133.325 453.888 132.725 454.792C132.129 455.695 131.216 456.146 129.985 456.146C128.794 456.146 127.891 455.68 127.275 454.748C126.66 453.815 126.353 452.448 126.353 450.646C126.353 448.756 126.65 447.365 127.246 446.471C127.847 445.573 128.76 445.124 129.985 445.124C131.182 445.124 132.087 445.592 132.703 446.53C133.318 447.467 133.625 448.839 133.625 450.646ZM128.096 450.646C128.096 452.106 128.245 453.148 128.542 453.773C128.845 454.398 129.326 454.711 129.985 454.711C130.645 454.711 131.125 454.394 131.428 453.759C131.736 453.124 131.89 452.086 131.89 450.646C131.89 449.21 131.736 448.173 131.428 447.533C131.125 446.889 130.645 446.566 129.985 446.566C129.326 446.566 128.845 446.881 128.542 447.511C128.245 448.141 128.096 449.186 128.096 450.646ZM144.216 456L141.111 447.057H141.052C141.135 448.385 141.177 449.63 141.177 450.792V456H139.587V445.292H142.056L145.029 453.81H145.073L148.135 445.292H150.61V456H148.926V450.705C148.926 450.172 148.938 449.479 148.962 448.625C148.992 447.77 149.016 447.252 149.036 447.072H148.977L145.762 456H144.216ZM160.432 451.935C160.432 453.258 160.093 454.291 159.414 455.033C158.735 455.775 157.791 456.146 156.58 456.146C155.823 456.146 155.154 455.976 154.573 455.634C153.992 455.292 153.545 454.801 153.232 454.162C152.92 453.522 152.764 452.78 152.764 451.935C152.764 450.622 153.101 449.596 153.774 448.859C154.448 448.122 155.398 447.753 156.624 447.753C157.795 447.753 158.723 448.131 159.407 448.888C160.09 449.64 160.432 450.656 160.432 451.935ZM154.536 451.935C154.536 453.805 155.227 454.74 156.609 454.74C157.976 454.74 158.66 453.805 158.66 451.935C158.66 450.084 157.971 449.159 156.594 449.159C155.872 449.159 155.347 449.398 155.02 449.877C154.697 450.355 154.536 451.042 154.536 451.935ZM169.543 456H167.815V451.02C167.815 450.395 167.688 449.928 167.434 449.621C167.185 449.313 166.787 449.159 166.24 449.159C165.513 449.159 164.98 449.374 164.644 449.804C164.307 450.233 164.138 450.954 164.138 451.964V456H162.417V447.899H163.765L164.006 448.961H164.094C164.338 448.576 164.685 448.278 165.134 448.068C165.583 447.858 166.082 447.753 166.628 447.753C168.572 447.753 169.543 448.742 169.543 450.719V456ZM174.956 454.755C175.376 454.755 175.796 454.689 176.216 454.557V455.854C176.025 455.937 175.779 456.005 175.476 456.059C175.178 456.117 174.868 456.146 174.546 456.146C172.915 456.146 172.1 455.287 172.1 453.568V449.203H170.994V448.441L172.18 447.812L172.766 446.098H173.828V447.899H176.135V449.203H173.828V453.539C173.828 453.954 173.931 454.262 174.136 454.462C174.346 454.657 174.619 454.755 174.956 454.755ZM181.379 456.146C180.12 456.146 179.133 455.78 178.42 455.048C177.712 454.311 177.358 453.297 177.358 452.008C177.358 450.685 177.688 449.645 178.347 448.888C179.006 448.131 179.912 447.753 181.064 447.753C182.134 447.753 182.979 448.078 183.599 448.727C184.219 449.376 184.529 450.27 184.529 451.408V452.338H179.131C179.155 453.124 179.368 453.729 179.768 454.154C180.168 454.574 180.732 454.784 181.46 454.784C181.938 454.784 182.383 454.74 182.793 454.652C183.208 454.56 183.652 454.408 184.126 454.198V455.597C183.706 455.797 183.281 455.939 182.852 456.022C182.422 456.105 181.931 456.146 181.379 456.146ZM181.064 449.057C180.518 449.057 180.078 449.23 179.746 449.577C179.419 449.923 179.224 450.429 179.16 451.093H182.837C182.827 450.424 182.666 449.918 182.354 449.577C182.041 449.23 181.611 449.057 181.064 449.057ZM196.665 445.292H198.481L194.731 456H192.886L189.15 445.292H190.952L193.186 451.95C193.303 452.267 193.428 452.677 193.56 453.18C193.691 453.678 193.777 454.049 193.816 454.293C193.879 453.922 193.977 453.493 194.109 453.004C194.241 452.516 194.348 452.155 194.431 451.92L196.665 445.292ZM203.25 456.146C201.99 456.146 201.003 455.78 200.291 455.048C199.583 454.311 199.229 453.297 199.229 452.008C199.229 450.685 199.558 449.645 200.217 448.888C200.876 448.131 201.782 447.753 202.935 447.753C204.004 447.753 204.849 448.078 205.469 448.727C206.089 449.376 206.399 450.27 206.399 451.408V452.338H201.001C201.025 453.124 201.238 453.729 201.638 454.154C202.039 454.574 202.603 454.784 203.33 454.784C203.809 454.784 204.253 454.74 204.663 454.652C205.078 454.56 205.522 454.408 205.996 454.198V455.597C205.576 455.797 205.151 455.939 204.722 456.022C204.292 456.105 203.801 456.146 203.25 456.146ZM202.935 449.057C202.388 449.057 201.948 449.23 201.616 449.577C201.289 449.923 201.094 450.429 201.03 451.093H204.707C204.697 450.424 204.536 449.918 204.224 449.577C203.911 449.23 203.481 449.057 202.935 449.057ZM212.463 447.753C212.81 447.753 213.096 447.777 213.32 447.826L213.152 449.43C212.908 449.372 212.654 449.342 212.39 449.342C211.702 449.342 211.143 449.567 210.713 450.016C210.288 450.465 210.076 451.049 210.076 451.767V456H208.354V447.899H209.702L209.929 449.328H210.017C210.286 448.844 210.635 448.461 211.064 448.178C211.499 447.895 211.965 447.753 212.463 447.753ZM217.561 456.146C216.55 456.146 215.762 455.78 215.195 455.048C214.629 454.315 214.346 453.288 214.346 451.964C214.346 450.636 214.631 449.604 215.203 448.866C215.779 448.124 216.575 447.753 217.59 447.753C218.655 447.753 219.465 448.146 220.022 448.932H220.11C220.027 448.351 219.985 447.892 219.985 447.555V444.604H221.714V456H220.366L220.066 454.938H219.985C219.434 455.744 218.625 456.146 217.561 456.146ZM218.022 454.755C218.73 454.755 219.246 454.557 219.568 454.162C219.89 453.761 220.056 453.114 220.066 452.221V451.979C220.066 450.958 219.9 450.233 219.568 449.804C219.236 449.374 218.716 449.159 218.008 449.159C217.402 449.159 216.936 449.406 216.609 449.899C216.282 450.387 216.118 451.085 216.118 451.994C216.118 452.892 216.277 453.578 216.594 454.052C216.912 454.521 217.388 454.755 218.022 454.755ZM227.712 456.146C226.453 456.146 225.466 455.78 224.753 455.048C224.045 454.311 223.691 453.297 223.691 452.008C223.691 450.685 224.021 449.645 224.68 448.888C225.339 448.131 226.245 447.753 227.397 447.753C228.467 447.753 229.312 448.078 229.932 448.727C230.552 449.376 230.862 450.27 230.862 451.408V452.338H225.464C225.488 453.124 225.701 453.729 226.101 454.154C226.501 454.574 227.065 454.784 227.793 454.784C228.271 454.784 228.716 454.74 229.126 454.652C229.541 454.56 229.985 454.408 230.459 454.198V455.597C230.039 455.797 229.614 455.939 229.185 456.022C228.755 456.105 228.264 456.146 227.712 456.146ZM227.397 449.057C226.851 449.057 226.411 449.23 226.079 449.577C225.752 449.923 225.557 450.429 225.493 451.093H229.17C229.16 450.424 228.999 449.918 228.687 449.577C228.374 449.23 227.944 449.057 227.397 449.057ZM241.453 446.64C240.447 446.64 239.656 446.996 239.08 447.709C238.503 448.422 238.215 449.406 238.215 450.661C238.215 451.974 238.491 452.968 239.043 453.642C239.6 454.315 240.403 454.652 241.453 454.652C241.907 454.652 242.346 454.608 242.771 454.521C243.196 454.428 243.638 454.311 244.097 454.169V455.67C243.257 455.988 242.305 456.146 241.24 456.146C239.673 456.146 238.469 455.673 237.629 454.726C236.79 453.773 236.37 452.414 236.37 450.646C236.37 449.533 236.572 448.559 236.978 447.724C237.388 446.889 237.979 446.249 238.75 445.805C239.521 445.36 240.427 445.138 241.467 445.138C242.561 445.138 243.572 445.368 244.5 445.827L243.87 447.284C243.508 447.113 243.125 446.964 242.72 446.837C242.319 446.706 241.897 446.64 241.453 446.64ZM253.406 451.935C253.406 453.258 253.066 454.291 252.388 455.033C251.709 455.775 250.764 456.146 249.553 456.146C248.796 456.146 248.127 455.976 247.546 455.634C246.965 455.292 246.519 454.801 246.206 454.162C245.894 453.522 245.737 452.78 245.737 451.935C245.737 450.622 246.074 449.596 246.748 448.859C247.422 448.122 248.372 447.753 249.597 447.753C250.769 447.753 251.697 448.131 252.38 448.888C253.064 449.64 253.406 450.656 253.406 451.935ZM247.51 451.935C247.51 453.805 248.201 454.74 249.583 454.74C250.95 454.74 251.633 453.805 251.633 451.935C251.633 450.084 250.945 449.159 249.568 449.159C248.845 449.159 248.32 449.398 247.993 449.877C247.671 450.355 247.51 451.042 247.51 451.935ZM261.104 456L260.862 454.938H260.774C260.535 455.314 260.193 455.609 259.749 455.824C259.309 456.039 258.806 456.146 258.24 456.146C257.258 456.146 256.526 455.902 256.042 455.414C255.559 454.926 255.317 454.186 255.317 453.195V447.899H257.053V452.895C257.053 453.515 257.18 453.981 257.434 454.293C257.688 454.601 258.086 454.755 258.628 454.755C259.351 454.755 259.88 454.54 260.217 454.11C260.559 453.676 260.73 452.951 260.73 451.935V447.899H262.458V456H261.104ZM269.021 447.753C269.368 447.753 269.653 447.777 269.878 447.826L269.709 449.43C269.465 449.372 269.211 449.342 268.948 449.342C268.259 449.342 267.7 449.567 267.271 450.016C266.846 450.465 266.633 451.049 266.633 451.767V456H264.912V447.899H266.26L266.487 449.328H266.575C266.843 448.844 267.192 448.461 267.622 448.178C268.057 447.895 268.523 447.753 269.021 447.753ZM274.404 454.755C274.824 454.755 275.244 454.689 275.664 454.557V455.854C275.474 455.937 275.227 456.005 274.924 456.059C274.626 456.117 274.316 456.146 273.994 456.146C272.363 456.146 271.548 455.287 271.548 453.568V449.203H270.442V448.441L271.628 447.812L272.214 446.098H273.276V447.899H275.583V449.203H273.276V453.539C273.276 453.954 273.379 454.262 273.584 454.462C273.794 454.657 274.067 454.755 274.404 454.755ZM279.077 454.425C278.843 455.333 278.413 456.503 277.788 457.934H276.521C276.858 456.615 277.109 455.39 277.275 454.257H278.967L279.077 454.425ZM101.414 473V462.292H103.164V471.499H107.698V473H101.414ZM116.545 468.935C116.545 470.258 116.206 471.291 115.527 472.033C114.849 472.775 113.904 473.146 112.693 473.146C111.936 473.146 111.267 472.976 110.686 472.634C110.105 472.292 109.658 471.801 109.346 471.162C109.033 470.522 108.877 469.78 108.877 468.935C108.877 467.622 109.214 466.596 109.888 465.859C110.562 465.122 111.511 464.753 112.737 464.753C113.909 464.753 114.836 465.131 115.52 465.888C116.204 466.64 116.545 467.656 116.545 468.935ZM110.649 468.935C110.649 470.805 111.34 471.74 112.722 471.74C114.089 471.74 114.773 470.805 114.773 468.935C114.773 467.084 114.084 466.159 112.708 466.159C111.985 466.159 111.46 466.398 111.133 466.877C110.811 467.355 110.649 468.042 110.649 468.935ZM123.972 470.693C123.972 471.484 123.684 472.092 123.108 472.517C122.532 472.937 121.707 473.146 120.632 473.146C119.553 473.146 118.687 472.983 118.032 472.656V471.169C118.984 471.608 119.871 471.828 120.691 471.828C121.75 471.828 122.28 471.508 122.28 470.869C122.28 470.664 122.222 470.493 122.104 470.356C121.987 470.219 121.794 470.078 121.526 469.931C121.257 469.785 120.884 469.619 120.405 469.433C119.473 469.072 118.84 468.71 118.508 468.349C118.181 467.988 118.018 467.519 118.018 466.943C118.018 466.25 118.296 465.712 118.853 465.332C119.414 464.946 120.176 464.753 121.138 464.753C122.09 464.753 122.991 464.946 123.84 465.332L123.284 466.628C122.41 466.267 121.675 466.086 121.079 466.086C120.171 466.086 119.717 466.345 119.717 466.862C119.717 467.116 119.834 467.331 120.068 467.507C120.308 467.683 120.825 467.924 121.621 468.232C122.29 468.491 122.776 468.728 123.079 468.942C123.381 469.157 123.606 469.406 123.752 469.689C123.899 469.968 123.972 470.302 123.972 470.693ZM136.562 473L135.493 470.026H131.399L130.352 473H128.506L132.512 462.248H134.417L138.423 473H136.562ZM135.032 468.518L134.028 465.603C133.955 465.407 133.853 465.1 133.721 464.68C133.594 464.26 133.506 463.952 133.457 463.757C133.325 464.357 133.132 465.014 132.878 465.727L131.912 468.518H135.032ZM141.375 473H139.653V461.604H141.375V473ZM146.86 471.755C147.28 471.755 147.7 471.689 148.12 471.557V472.854C147.93 472.937 147.683 473.005 147.38 473.059C147.083 473.117 146.772 473.146 146.45 473.146C144.819 473.146 144.004 472.287 144.004 470.568V466.203H142.898V465.441L144.084 464.812L144.67 463.098H145.732V464.899H148.04V466.203H145.732V470.539C145.732 470.954 145.835 471.262 146.04 471.462C146.25 471.657 146.523 471.755 146.86 471.755ZM156.931 468.935C156.931 470.258 156.592 471.291 155.913 472.033C155.234 472.775 154.29 473.146 153.079 473.146C152.322 473.146 151.653 472.976 151.072 472.634C150.491 472.292 150.044 471.801 149.731 471.162C149.419 470.522 149.263 469.78 149.263 468.935C149.263 467.622 149.6 466.596 150.273 465.859C150.947 465.122 151.897 464.753 153.123 464.753C154.294 464.753 155.222 465.131 155.906 465.888C156.589 466.64 156.931 467.656 156.931 468.935ZM151.035 468.935C151.035 470.805 151.726 471.74 153.108 471.74C154.475 471.74 155.159 470.805 155.159 468.935C155.159 467.084 154.47 466.159 153.093 466.159C152.371 466.159 151.846 466.398 151.519 466.877C151.196 467.355 151.035 468.042 151.035 468.935ZM164.358 470.693C164.358 471.484 164.07 472.092 163.494 472.517C162.917 472.937 162.092 473.146 161.018 473.146C159.939 473.146 159.072 472.983 158.418 472.656V471.169C159.37 471.608 160.256 471.828 161.077 471.828C162.136 471.828 162.666 471.508 162.666 470.869C162.666 470.664 162.607 470.493 162.49 470.356C162.373 470.219 162.18 470.078 161.912 469.931C161.643 469.785 161.27 469.619 160.791 469.433C159.858 469.072 159.226 468.71 158.894 468.349C158.567 467.988 158.403 467.519 158.403 466.943C158.403 466.25 158.682 465.712 159.238 465.332C159.8 464.946 160.562 464.753 161.523 464.753C162.476 464.753 163.376 464.946 164.226 465.332L163.669 466.628C162.795 466.267 162.061 466.086 161.465 466.086C160.557 466.086 160.103 466.345 160.103 466.862C160.103 467.116 160.22 467.331 160.454 467.507C160.693 467.683 161.211 467.924 162.007 468.232C162.676 468.491 163.162 468.728 163.464 468.942C163.767 469.157 163.992 469.406 164.138 469.689C164.285 469.968 164.358 470.302 164.358 470.693ZM168.013 471.425C167.778 472.333 167.349 473.503 166.724 474.934H165.457C165.793 473.615 166.045 472.39 166.211 471.257H167.903L168.013 471.425ZM178.875 463.64C177.869 463.64 177.078 463.996 176.501 464.709C175.925 465.422 175.637 466.406 175.637 467.661C175.637 468.974 175.913 469.968 176.465 470.642C177.021 471.315 177.825 471.652 178.875 471.652C179.329 471.652 179.768 471.608 180.193 471.521C180.618 471.428 181.06 471.311 181.519 471.169V472.67C180.679 472.988 179.727 473.146 178.662 473.146C177.095 473.146 175.891 472.673 175.051 471.726C174.211 470.773 173.792 469.414 173.792 467.646C173.792 466.533 173.994 465.559 174.399 464.724C174.81 463.889 175.4 463.249 176.172 462.805C176.943 462.36 177.849 462.138 178.889 462.138C179.983 462.138 180.994 462.368 181.921 462.827L181.292 464.284C180.93 464.113 180.547 463.964 180.142 463.837C179.741 463.706 179.319 463.64 178.875 463.64ZM190.469 473L189.399 470.026H185.305L184.258 473H182.412L186.418 462.248H188.323L192.329 473H190.469ZM188.938 468.518L187.935 465.603C187.861 465.407 187.759 465.1 187.627 464.68C187.5 464.26 187.412 463.952 187.363 463.757C187.231 464.357 187.039 465.014 186.785 465.727L185.818 468.518H188.938ZM195.347 471.425C195.112 472.333 194.683 473.503 194.058 474.934H192.791C193.127 473.615 193.379 472.39 193.545 471.257H195.237L195.347 471.425ZM208.142 466.862C208.142 468.972 207.717 470.546 206.868 471.586C206.018 472.626 204.739 473.146 203.03 473.146C202.38 473.146 201.914 473.107 201.631 473.029V471.586C202.065 471.708 202.502 471.77 202.942 471.77C204.104 471.77 204.971 471.457 205.542 470.832C206.113 470.207 206.426 469.226 206.479 467.888H206.392C206.104 468.327 205.754 468.645 205.344 468.84C204.939 469.035 204.463 469.133 203.916 469.133C202.969 469.133 202.224 468.837 201.682 468.247C201.14 467.656 200.869 466.845 200.869 465.815C200.869 464.697 201.182 463.808 201.807 463.149C202.437 462.485 203.293 462.153 204.377 462.153C205.139 462.153 205.803 462.338 206.37 462.709C206.936 463.081 207.373 463.62 207.681 464.328C207.988 465.031 208.142 465.876 208.142 466.862ZM204.407 463.581C203.811 463.581 203.354 463.776 203.037 464.167C202.72 464.553 202.561 465.097 202.561 465.8C202.561 466.411 202.708 466.892 203 467.243C203.298 467.59 203.748 467.763 204.348 467.763C204.929 467.763 205.417 467.59 205.813 467.243C206.208 466.896 206.406 466.491 206.406 466.027C206.406 465.593 206.321 465.188 206.15 464.812C205.984 464.431 205.75 464.13 205.447 463.911C205.144 463.691 204.797 463.581 204.407 463.581ZM217.107 470.664H215.664V473H213.987V470.664H209.094V469.338L213.987 462.263H215.664V469.235H217.107V470.664ZM213.987 469.235V466.547C213.987 465.59 214.011 464.807 214.06 464.196H214.001C213.865 464.519 213.65 464.909 213.357 465.368L210.698 469.235H213.987ZM225.295 467.646C225.295 469.506 224.995 470.888 224.395 471.792C223.799 472.695 222.886 473.146 221.655 473.146C220.464 473.146 219.561 472.68 218.945 471.748C218.33 470.815 218.022 469.448 218.022 467.646C218.022 465.756 218.32 464.365 218.916 463.471C219.517 462.573 220.43 462.124 221.655 462.124C222.852 462.124 223.757 462.592 224.373 463.53C224.988 464.467 225.295 465.839 225.295 467.646ZM219.766 467.646C219.766 469.106 219.915 470.148 220.212 470.773C220.515 471.398 220.996 471.711 221.655 471.711C222.314 471.711 222.795 471.394 223.098 470.759C223.406 470.124 223.56 469.086 223.56 467.646C223.56 466.21 223.406 465.173 223.098 464.533C222.795 463.889 222.314 463.566 221.655 463.566C220.996 463.566 220.515 463.881 220.212 464.511C219.915 465.141 219.766 466.186 219.766 467.646ZM233.865 473H226.606V471.696L229.368 468.92C230.183 468.085 230.723 467.495 230.986 467.148C231.255 466.796 231.45 466.467 231.572 466.159C231.694 465.852 231.755 465.522 231.755 465.17C231.755 464.687 231.609 464.306 231.316 464.028C231.028 463.75 230.627 463.61 230.115 463.61C229.705 463.61 229.307 463.686 228.921 463.837C228.54 463.989 228.098 464.262 227.595 464.658L226.665 463.522C227.261 463.02 227.839 462.663 228.401 462.453C228.962 462.243 229.561 462.138 230.195 462.138C231.191 462.138 231.99 462.399 232.59 462.922C233.191 463.439 233.491 464.138 233.491 465.017C233.491 465.5 233.403 465.959 233.228 466.394C233.057 466.828 232.791 467.277 232.429 467.741C232.073 468.2 231.477 468.823 230.642 469.609L228.782 471.411V471.484H233.865V473ZM242.815 470.664H241.372V473H239.695V470.664H234.802V469.338L239.695 462.263H241.372V469.235H242.815V470.664ZM239.695 469.235V466.547C239.695 465.59 239.719 464.807 239.768 464.196H239.709C239.573 464.519 239.358 464.909 239.065 465.368L236.406 469.235H239.695Z" fill="#2D3748"/>
</g>
<defs>
<filter id="filter0_d" x="-20" y="107" width="415" height="785" filterUnits="userSpaceOnUse" color-interpolation-filters="sRGB">
<feFlood flood-opacity="0" result="BackgroundImageFix"/>
<feColorMatrix in="SourceAlpha" type="matrix" values="0 0 0 0 0 0 0 0 0 0 0 0 0 0 0 0 0 0 127 0"/>
<feOffset dy="4"/>
<feGaussianBlur stdDeviation="10"/>
<feColorMatrix type="matrix" values="0 0 0 0 0.317647 0 0 0 0 0.737255 0 0 0 0 0.854902 0 0 0 0.4 0"/>
<feBlend mode="normal" in2="BackgroundImageFix" result="effect1_dropShadow"/>
<feBlend mode="normal" in="SourceGraphic" in2="effect1_dropShadow" result="shape"/>
</filter>
<filter id="filter1_d" x="-21" y="116" width="417" height="437" filterUnits="userSpaceOnUse" color-interpolation-filters="sRGB">
<feFlood flood-opacity="0" result="BackgroundImageFix"/>
<feColorMatrix in="SourceAlpha" type="matrix" values="0 0 0 0 0 0 0 0 0 0 0 0 0 0 0 0 0 0 127 0"/>
<feOffset dy="4"/>
<feGaussianBlur stdDeviation="20"/>
<feColorMatrix type="matrix" values="0 0 0 0 0 0 0 0 0 0 0 0 0 0 0 0 0 0 0.1 0"/>
<feBlend mode="normal" in2="BackgroundImageFix" result="effect1_dropShadow"/>
<feBlend mode="normal" in="SourceGraphic" in2="effect1_dropShadow" result="shape"/>
</filter>
<linearGradient id="paint0_linear" x1="452" y1="-80" x2="14" y2="388.5" gradientUnits="userSpaceOnUse">
<stop offset="0.00159306" stop-color="white"/>
<stop offset="0.454137" stop-color="#51BCDA"/>
</linearGradient>
<clipPath id="clip0">
<rect width="375" height="812" rx="30" fill="white"/>
</clipPath>
<clipPath id="clip1">
<rect width="30" height="30" fill="white" transform="translate(34 74)"/>
</clipPath>
<clipPath id="clip2">
<rect width="20" height="20" fill="white" transform="translate(54 376)"/>
</clipPath>
<clipPath id="clip3">
<rect width="20" height="20" fill="white" transform="translate(315 185)"/>
</clipPath>
</defs>
</svg>
