<svg width="235" height="186" viewBox="0 0 235 186" fill="none" xmlns="http://www.w3.org/2000/svg">
<g clip-path="url(#clip0)">
<path d="M115.654 42.5949H114.683V16.0039C114.683 11.9222 113.062 8.00767 110.176 5.12145C107.29 2.23523 103.375 0.613775 99.2932 0.61377H42.9566C40.9355 0.613762 38.9343 1.01183 37.067 1.78525C35.1998 2.55867 33.5032 3.6923 32.0741 5.1214C30.645 6.5505 29.5114 8.24709 28.7379 10.1143C27.9645 11.9815 27.5664 13.9828 27.5664 16.0039V161.884C27.5664 163.905 27.9645 165.907 28.7379 167.774C29.5113 169.641 30.645 171.338 32.0741 172.767C33.5032 174.196 35.1998 175.329 37.067 176.103C38.9342 176.876 40.9355 177.274 42.9565 177.274H99.2932C101.314 177.274 103.316 176.876 105.183 176.103C107.05 175.329 108.747 174.196 110.176 172.767C111.605 171.338 112.738 169.641 113.512 167.774C114.285 165.907 114.683 163.905 114.683 161.884V61.5229H115.654V42.5949Z" fill="#3F3D56"/>
<path d="M99.7974 4.98193H92.4436C92.7818 5.81105 92.9109 6.7106 92.8196 7.60135C92.7282 8.49211 92.4192 9.34673 91.9197 10.0899C91.4202 10.8331 90.7457 11.4421 89.9554 11.8631C89.1652 12.2842 88.2835 12.5045 87.3881 12.5046H55.1135C54.2181 12.5045 53.3364 12.2842 52.5462 11.8631C51.7559 11.4421 51.0814 10.8331 50.5819 10.0899C50.0825 9.34673 49.7734 8.49211 49.6821 7.60136C49.5907 6.7106 49.7198 5.81105 50.058 4.98193H43.1895C40.1413 4.98193 37.218 6.19281 35.0626 8.3482C32.9072 10.5036 31.6963 13.4269 31.6963 16.4751V162.141C31.6963 163.651 31.9936 165.145 32.5712 166.54C33.1487 167.934 33.9953 169.201 35.0626 170.268C36.1298 171.336 37.3968 172.182 38.7912 172.76C40.1856 173.337 41.6802 173.635 43.1895 173.635H99.7974C102.846 173.635 105.769 172.424 107.924 170.268C110.08 168.113 111.291 165.19 111.291 162.141V16.4751C111.291 14.9658 110.993 13.4713 110.416 12.0769C109.838 10.6824 108.992 9.41545 107.924 8.34821C106.857 7.28097 105.59 6.43438 104.196 5.8568C102.801 5.27921 101.307 4.98193 99.7975 4.98193H99.7974ZM98.562 72.5574C98.5597 73.3463 98.2453 74.1021 97.6875 74.6599C97.1297 75.2177 96.3738 75.5321 95.585 75.5344H81.1963C80.4075 75.5321 79.6516 75.2177 79.0938 74.6599C78.536 74.1021 78.2216 73.3463 78.2193 72.5574V71.8132C78.2216 71.0244 78.536 70.2685 79.0938 69.7107C79.6516 69.1529 80.4075 68.8385 81.1963 68.8362H95.585C96.3738 68.8385 97.1297 69.1529 97.6875 69.7107C98.2453 70.2685 98.5596 71.0244 98.562 71.8132V72.5574ZM100.174 59.4091C100.172 60.198 99.8578 60.9539 99.3 61.5116C98.7422 62.0694 97.9864 62.3838 97.1975 62.3861H45.5967C44.8078 62.3838 44.052 62.0694 43.4942 61.5116C42.9364 60.9539 42.622 60.198 42.6197 59.4091V58.6649C42.622 57.8761 42.9364 57.1202 43.4942 56.5624C44.052 56.0046 44.8078 55.6902 45.5967 55.6879H97.1975C97.9864 55.6903 98.7422 56.0046 99.3 56.5624C99.8578 57.1202 100.172 57.8761 100.174 58.6649V59.4091ZM100.174 46.2609C100.172 47.0497 99.8578 47.8055 99.3 48.3633C98.7422 48.9211 97.9864 49.2355 97.1975 49.2378H45.5967C44.8078 49.2355 44.052 48.9211 43.4942 48.3633C42.9364 47.8056 42.622 47.0497 42.6197 46.2609V45.5166C42.622 44.7278 42.9364 43.9719 43.4942 43.4141C44.052 42.8563 44.8078 42.5419 45.5967 42.5396H97.1975C97.9864 42.5419 98.7422 42.8563 99.3 43.4141C99.8578 43.9719 100.172 44.7278 100.174 45.5166V46.2609ZM100.174 33.1126C100.172 33.9014 99.8578 34.6573 99.3 35.215C98.7422 35.7728 97.9864 36.0872 97.1975 36.0895H45.5967C44.8078 36.0872 44.052 35.7728 43.4942 35.215C42.9364 34.6573 42.622 33.9014 42.6197 33.1126V32.3683C42.622 31.5795 42.9364 30.8236 43.4942 30.2658C44.052 29.708 44.8078 29.3937 45.5967 29.3913H97.1975C97.9864 29.3937 98.7422 29.708 99.3 30.2658C99.8578 30.8236 100.172 31.5795 100.174 32.3683V33.1126Z" fill="white"/>
<path d="M46.7141 60.8974C47.6732 60.8974 48.4507 60.12 48.4507 59.1609C48.4507 58.2018 47.6732 57.4243 46.7141 57.4243C45.755 57.4243 44.9775 58.2018 44.9775 59.1609C44.9775 60.12 45.755 60.8974 46.7141 60.8974Z" fill="white"/>
<path d="M52.4192 60.8974C53.3783 60.8974 54.1557 60.12 54.1557 59.1609C54.1557 58.2018 53.3783 57.4243 52.4192 57.4243C51.4601 57.4243 50.6826 58.2018 50.6826 59.1609C50.6826 60.12 51.4601 60.8974 52.4192 60.8974Z" fill="white"/>
<path d="M58.1252 60.8974C59.0843 60.8974 59.8618 60.12 59.8618 59.1609C59.8618 58.2018 59.0843 57.4243 58.1252 57.4243C57.1662 57.4243 56.3887 58.2018 56.3887 59.1609C56.3887 60.12 57.1662 60.8974 58.1252 60.8974Z" fill="white"/>
<path d="M63.8293 60.8974C64.7884 60.8974 65.5659 60.12 65.5659 59.1609C65.5659 58.2018 64.7884 57.4243 63.8293 57.4243C62.8703 57.4243 62.0928 58.2018 62.0928 59.1609C62.0928 60.12 62.8703 60.8974 63.8293 60.8974Z" fill="white"/>
<path d="M82.4368 74.0459C83.3958 74.0459 84.1733 73.2684 84.1733 72.3093C84.1733 71.3502 83.3958 70.5728 82.4368 70.5728C81.4777 70.5728 80.7002 71.3502 80.7002 72.3093C80.7002 73.2684 81.4777 74.0459 82.4368 74.0459Z" fill="white"/>
<path d="M88.1438 74.0459C89.1029 74.0459 89.8804 73.2684 89.8804 72.3093C89.8804 71.3502 89.1029 70.5728 88.1438 70.5728C87.1847 70.5728 86.4072 71.3502 86.4072 72.3093C86.4072 73.2684 87.1847 74.0459 88.1438 74.0459Z" fill="white"/>
<path d="M93.8489 74.0459C94.808 74.0459 95.5854 73.2684 95.5854 72.3093C95.5854 71.3502 94.808 70.5728 93.8489 70.5728C92.8898 70.5728 92.1123 71.3502 92.1123 72.3093C92.1123 73.2684 92.8898 74.0459 93.8489 74.0459Z" fill="white"/>
<path d="M100.574 94.8097H41.7247C40.3422 94.8097 39.0162 95.3589 38.0386 96.3365C37.0609 97.3142 36.5117 98.6401 36.5117 100.023V128.695C36.5117 130.078 37.0609 131.404 38.0386 132.381C39.0162 133.359 40.3421 133.908 41.7247 133.908H100.574C101.957 133.908 103.283 133.359 104.26 132.381C105.238 131.404 105.787 130.078 105.787 128.695V100.023C105.787 98.6401 105.238 97.3142 104.26 96.3366C103.283 95.3589 101.957 94.8097 100.574 94.8097H100.574ZM40.2687 98.3658C40.3849 98.3448 43.1406 97.8758 45.4224 99.2488C47.7041 100.622 48.5808 103.276 48.6169 103.388L48.7091 103.675L48.413 103.727C47.9906 103.793 47.5635 103.824 47.136 103.821C45.7797 103.847 44.4412 103.51 43.2592 102.844C40.9775 101.471 40.101 98.8168 40.0648 98.7045L39.9726 98.4183L40.2687 98.3658ZM53.0434 124.986H42.5471C41.7815 124.986 41.0474 124.682 40.506 124.141C39.9647 123.6 39.6606 122.866 39.6606 122.1C39.6606 121.334 39.9647 120.6 40.506 120.059C41.0474 119.518 41.7815 119.214 42.5471 119.214H53.0434C53.8089 119.214 54.5431 119.518 55.0844 120.059C55.6257 120.6 55.9298 121.334 55.9298 122.1C55.9298 122.866 55.6257 123.6 55.0844 124.141C54.5431 124.682 53.8089 124.986 53.0434 124.986ZM100.801 124.462C100.799 125.296 100.466 126.096 99.8764 126.686C99.2864 127.276 98.4869 127.608 97.6525 127.611H89.7803C88.9459 127.608 88.1464 127.276 87.5564 126.686C86.9664 126.096 86.6339 125.296 86.6314 124.462V119.738C86.6339 118.904 86.9664 118.104 87.5564 117.514C88.1464 116.924 88.9459 116.592 89.7803 116.589H97.6525C98.4869 116.592 99.2864 116.924 99.8764 117.514C100.466 118.104 100.799 118.904 100.801 119.738L100.801 124.462Z" fill="#FBC658"/>
<path d="M92.3181 123.488H89.153C88.9269 123.488 88.7102 123.578 88.5504 123.738C88.3906 123.898 88.3008 124.114 88.3008 124.34C88.3008 124.566 88.3906 124.783 88.5504 124.943C88.7102 125.103 88.9269 125.193 89.153 125.193H92.3181C92.5442 125.193 92.7609 125.103 92.9207 124.943C93.0805 124.783 93.1703 124.566 93.1703 124.34C93.1703 124.114 93.0805 123.898 92.9207 123.738C92.7609 123.578 92.5442 123.488 92.3181 123.488Z" fill="#3F3D56"/>
<path d="M98.1619 123.488H94.9967C94.7707 123.488 94.5539 123.578 94.3941 123.738C94.2343 123.898 94.1445 124.114 94.1445 124.34C94.1445 124.566 94.2343 124.783 94.3941 124.943C94.5539 125.103 94.7707 125.193 94.9967 125.193H98.1619C98.3879 125.193 98.6047 125.103 98.7645 124.943C98.9243 124.783 99.0141 124.566 99.0141 124.34C99.0141 124.114 98.9243 123.898 98.7645 123.738C98.6047 123.578 98.3879 123.488 98.1619 123.488Z" fill="#3F3D56"/>
<path d="M92.3181 121.083H89.153C88.9269 121.083 88.7102 121.172 88.5504 121.332C88.3906 121.492 88.3008 121.709 88.3008 121.935C88.3008 122.161 88.3906 122.378 88.5504 122.537C88.7102 122.697 88.9269 122.787 89.153 122.787H92.3181C92.5442 122.787 92.7609 122.697 92.9207 122.537C93.0805 122.378 93.1703 122.161 93.1703 121.935C93.1703 121.709 93.0805 121.492 92.9207 121.332C92.7609 121.172 92.5442 121.083 92.3181 121.083Z" fill="#3F3D56"/>
<path d="M98.1609 121.083H94.9957C94.7697 121.083 94.553 121.172 94.3932 121.332C94.2333 121.492 94.1436 121.709 94.1436 121.935C94.1436 122.161 94.2333 122.378 94.3932 122.537C94.553 122.697 94.7697 122.787 94.9957 122.787H98.1609C98.3869 122.787 98.6037 122.697 98.7635 122.537C98.9233 122.378 99.0131 122.161 99.0131 121.935C99.0131 121.709 98.9233 121.492 98.7635 121.332C98.6037 121.172 98.3869 121.083 98.1609 121.083H98.1609Z" fill="#3F3D56"/>
<path d="M92.3181 118.726H89.153C88.9269 118.726 88.7102 118.815 88.5504 118.975C88.3906 119.135 88.3008 119.352 88.3008 119.578C88.3008 119.804 88.3906 120.021 88.5504 120.18C88.7102 120.34 88.9269 120.43 89.153 120.43H92.3181C92.5442 120.43 92.7609 120.34 92.9207 120.18C93.0805 120.021 93.1703 119.804 93.1703 119.578C93.1703 119.352 93.0805 119.135 92.9207 118.975C92.7609 118.815 92.5442 118.726 92.3181 118.726Z" fill="#3F3D56"/>
<path d="M98.1609 118.726H94.9957C94.7697 118.726 94.553 118.815 94.3932 118.975C94.2333 119.135 94.1436 119.352 94.1436 119.578C94.1436 119.804 94.2333 120.021 94.3932 120.18C94.553 120.34 94.7697 120.43 94.9957 120.43H98.1609C98.3869 120.43 98.6037 120.34 98.7635 120.18C98.9233 120.021 99.0131 119.804 99.0131 119.578C99.0131 119.352 98.9233 119.135 98.7635 118.975C98.6037 118.815 98.3869 118.726 98.1609 118.726H98.1609Z" fill="#3F3D56"/>
<path d="M141.333 105.61H133.657V113.286H141.333V105.61Z" fill="#E6E6E6"/>
<path d="M124.611 110.271H137.222V122.882H124.611V110.271ZM136.674 110.819H125.16V122.333H136.674V110.819Z" fill="#3F3D56"/>
<path d="M7.82639 42.2837H0.150391V49.9597H7.82639V42.2837Z" fill="#E6E6E6"/>
<path d="M16.8742 45.2988H4.26367V32.6882H16.8742V45.2988ZM4.81196 44.7505H16.326V33.2365H4.81196V44.7505Z" fill="#3F3D56"/>
<path d="M179.186 181.937H175.825L174.227 168.973H179.187L179.186 181.937Z" fill="#FFB8B8"/>
<path d="M173.425 180.976H179.907V185.057H169.344C169.344 183.975 169.774 182.937 170.539 182.171C171.304 181.406 172.342 180.976 173.425 180.976Z" fill="#2F2E41"/>
<path d="M195.91 181.937H192.549L190.95 168.973H195.911L195.91 181.937Z" fill="#FFB8B8"/>
<path d="M190.148 180.976H196.629V185.057H186.066C186.066 183.975 186.496 182.937 187.262 182.171C188.027 181.406 189.065 180.976 190.148 180.976Z" fill="#2F2E41"/>
<path d="M162.327 135.575C162.085 135.219 161.924 134.814 161.856 134.389C161.787 133.964 161.813 133.529 161.931 133.115C162.049 132.701 162.256 132.318 162.538 131.992C162.82 131.667 163.17 131.408 163.563 131.232L174.988 99.7422L180.61 102.81L167.565 132.903C167.816 133.583 167.809 134.332 167.545 135.007C167.281 135.682 166.779 136.237 166.133 136.566C165.487 136.895 164.743 136.976 164.041 136.794C163.34 136.611 162.73 136.178 162.327 135.575Z" fill="#FFB8B8"/>
<path d="M194.193 141.492C193.819 141.278 193.497 140.985 193.249 140.633C193.002 140.281 192.834 139.879 192.758 139.455C192.683 139.031 192.701 138.596 192.812 138.179C192.923 137.763 193.123 137.377 193.4 137.047L189.86 103.736L196.258 104.028L197.729 136.794C198.253 137.295 198.575 137.971 198.633 138.693C198.692 139.416 198.484 140.135 198.048 140.714C197.612 141.293 196.979 141.692 196.268 141.836C195.558 141.979 194.819 141.857 194.193 141.492V141.492Z" fill="#FFB8B8"/>
<path d="M183.986 93.9092C187.705 93.9092 190.719 90.8946 190.719 87.176C190.719 83.4573 187.705 80.4427 183.986 80.4427C180.268 80.4427 177.253 83.4573 177.253 87.176C177.253 90.8946 180.268 93.9092 183.986 93.9092Z" fill="#FFB8B8"/>
<path d="M194.149 133.916H173.85L173.874 133.758C173.911 133.522 177.492 110.062 174.85 102.387C174.585 101.632 174.609 100.807 174.916 100.069C175.223 99.3306 175.792 98.7322 176.514 98.3887H176.514C180.29 96.6108 187.537 94.4215 193.654 99.7345C194.554 100.529 195.257 101.522 195.707 102.636C196.157 103.749 196.342 104.951 196.247 106.148L194.149 133.916Z" fill="#51BCDA"/>
<path d="M177.749 113.529L168.61 111.675L172.894 101.523C173.151 100.54 173.786 99.6987 174.662 99.1837C175.538 98.6686 176.583 98.522 177.566 98.776C178.55 99.03 179.393 99.6638 179.91 100.539C180.428 101.413 180.577 102.457 180.325 103.442L177.749 113.529Z" fill="#51BCDA"/>
<path d="M189.453 116.972L188.903 104.377C188.487 102.01 189.842 99.7715 191.926 99.4056C194.011 99.0411 196.047 100.683 196.466 103.068L198.531 114.836L189.453 116.972Z" fill="#51BCDA"/>
<path d="M193.473 132.409C196.74 144.848 197.096 160.664 196.215 177.916L191.829 177.368L183.878 144.471L179.492 177.916L174.558 177.642C173.083 159.541 171.648 144.001 174.009 133.779L193.473 132.409Z" fill="#2F2E41"/>
<path d="M188.423 92.3798C187.167 93.7178 184.834 92.9996 184.67 91.1716C184.657 91.0297 184.658 90.8869 184.673 90.7451C184.758 89.9354 185.225 89.2003 185.113 88.3454C185.088 88.1326 185.009 87.9298 184.883 87.7563C183.882 86.4159 181.532 88.3558 180.588 87.1424C180.008 86.3984 180.689 85.2269 180.245 84.3954C179.658 83.2978 177.92 83.8392 176.831 83.2382C175.618 82.5694 175.691 80.7091 176.489 79.5776C177.462 78.1977 179.169 77.4614 180.854 77.3552C182.539 77.2491 184.213 77.7047 185.787 78.3179C187.574 79.0146 189.347 79.9774 190.447 81.5493C191.785 83.461 191.914 86.031 191.245 88.2663C190.838 89.6261 189.449 91.2872 188.423 92.3798Z" fill="#2F2E41"/>
<path d="M234.576 185.386H130.128C130.055 185.386 129.985 185.357 129.934 185.306C129.882 185.255 129.854 185.185 129.854 185.112C129.854 185.039 129.882 184.97 129.934 184.918C129.985 184.867 130.055 184.838 130.128 184.838H234.576C234.649 184.838 234.719 184.867 234.77 184.918C234.821 184.97 234.85 185.039 234.85 185.112C234.85 185.185 234.821 185.255 234.77 185.306C234.719 185.357 234.649 185.386 234.576 185.386Z" fill="#3F3D56"/>
</g>
<defs>
<clipPath id="clip0">
<rect width="234.7" height="184.772" fill="white" transform="translate(0.150391 0.61377)"/>
</clipPath>
</defs>
</svg>
