<svg width="649" height="838" viewBox="0 0 649 838" fill="none" xmlns="http://www.w3.org/2000/svg">
<g opacity="0.07">
<path d="M646.678 547.1C655.219 542.168 663.489 544.986 666.557 547.011C668.198 547.88 670.17 549.426 670.951 550.091C672.118 550.712 675.797 552.433 681.179 554.343C686.56 556.253 689.384 557.647 690.123 558.105C698.663 564.101 698.824 572.242 697.253 576.651C695.681 581.06 691.315 584.427 686.68 587.527C682.971 590.007 676.054 591.136 673.058 591.39C669.012 592.218 666.314 594.348 665.471 595.309C662.3 599.572 655.438 602.166 652.404 602.931C651.806 603.161 648.882 603.587 641.971 603.453C635.06 603.319 631.368 595.441 630.386 591.519C629.855 588.222 629.693 580.562 633.294 576.297C636.895 572.032 637.39 566.532 637.187 564.315C636.792 560.631 638.136 552.032 646.678 547.1Z" fill="#51BCDA"/>
<path d="M602.367 554.986C604.511 546.545 615.358 552.076 620.514 555.896C625.101 558.657 628.321 563.082 629.358 564.949C633.011 572.289 629.974 577.945 627.999 579.855C627.678 580.565 625.533 582.102 619.518 582.558C613.502 583.015 607.564 577.225 605.346 574.273C603.459 571.361 600.222 563.427 602.367 554.986Z" fill="#51BCDA"/>
<path d="M670.468 529.862C667.605 540.257 657.365 538.71 652.603 536.638C650.359 535.661 647.299 532.69 643.4 525.83C639.5 518.97 638.839 510.379 638.996 506.942C639.255 504.702 641.525 500.487 648.54 501.547C655.554 502.606 662.383 507.353 664.921 509.594C667.963 512.019 673.331 519.467 670.468 529.862Z" fill="#51BCDA"/>
<path d="M616.631 514.853C622.876 506.691 631.373 518.217 634.841 525C637.314 529.097 638.573 533.253 638.894 534.819C640.378 545.012 635.237 550.409 632.481 551.834C631.26 552.872 627.185 554.23 620.659 551.349C614.132 548.469 611.061 540.013 610.341 536.145C609.835 532.449 610.385 523.015 616.631 514.853Z" fill="#51BCDA"/>
<path d="M619.732 417.799C628.908 414.181 636.672 418.187 639.407 420.642C640.903 421.743 642.626 423.563 643.3 424.336C644.362 425.123 647.748 427.367 652.789 430.05C657.83 432.732 660.417 434.527 661.08 435.089C668.644 442.279 667.602 450.355 665.398 454.484C663.194 458.612 658.379 461.299 653.337 463.682C649.304 465.588 642.295 465.684 639.295 465.495C635.171 465.717 632.189 467.426 631.213 468.252C627.448 472.001 620.279 473.556 617.165 473.864C616.54 474.004 613.585 473.994 606.769 472.842C599.953 471.691 597.464 463.355 597.071 459.331C597.031 455.992 598 448.391 602.19 444.704C606.381 441.017 607.681 435.65 607.808 433.427C607.96 429.725 610.557 421.418 619.732 417.799Z" fill="#51BCDA"/>
<path d="M654.2 395.573C659.583 388.951 666.696 396.411 669.58 400.969C670.675 402.352 672.898 406.53 673.034 412.179C673.17 417.828 669.773 423.435 668.057 425.532C667.496 426.864 664.744 429.446 658.226 429.123C651.708 428.799 648.865 420.553 648.257 416.471C647.995 412.264 648.817 402.195 654.2 395.573Z" fill="#51BCDA"/>
<path d="M574.743 419.066C578.108 411.034 588.022 418.103 592.558 422.642C596.688 426.049 599.221 430.9 599.971 432.9C602.502 440.699 598.664 445.844 596.429 447.442C596.007 448.098 593.659 449.301 587.642 448.866C581.625 448.431 576.604 441.829 574.846 438.582C573.41 435.424 571.378 427.099 574.743 419.066Z" fill="#51BCDA"/>
<path d="M645.804 404.257C641.44 414.116 631.54 411.077 627.135 408.324C625.06 407.028 622.471 403.638 619.626 396.278C616.781 388.918 617.393 380.324 618.055 376.947C618.641 374.77 621.509 370.936 628.29 373.018C635.071 375.1 641.126 380.802 643.306 383.393C645.957 386.24 650.168 394.398 645.804 404.257Z" fill="#51BCDA"/>
<path d="M594.768 381.475C602.149 374.323 608.853 386.976 611.283 394.196C613.125 398.612 613.758 402.908 613.844 404.504C613.809 414.805 607.929 419.386 604.993 420.388C603.632 421.235 599.402 421.977 593.372 418.166C587.341 414.355 585.55 405.539 585.408 401.607C585.453 397.876 587.388 388.626 594.768 381.475Z" fill="#51BCDA"/>
<path d="M487.164 352.574C491.936 343.942 500.474 342.088 504.146 342.24C506.001 342.137 508.488 342.445 509.5 342.611C510.82 342.541 514.86 342.117 520.455 340.976C526.05 339.836 529.188 339.573 530.058 339.584C540.467 340.313 544.806 347.204 545.734 351.791C546.663 356.379 544.661 361.516 542.289 366.563C540.392 370.601 535.049 375.137 532.615 376.901C529.576 379.698 528.364 382.914 528.138 384.172C527.621 389.46 523.082 395.223 520.877 397.444C520.483 397.949 518.198 399.824 512.209 403.274C506.22 406.725 498.993 401.882 496.129 399.029C493.972 396.479 489.88 390.001 490.765 384.49C491.649 378.979 489.235 374.012 487.917 372.217C485.678 369.266 482.392 361.206 487.164 352.574Z" fill="#51BCDA"/>
<path d="M499.594 313.491C499.53 304.958 509.765 306.182 514.891 307.861C516.615 308.23 520.99 310.037 524.691 314.306C528.392 318.576 529.341 325.063 529.354 327.773C529.769 329.157 529.291 332.901 524.058 336.801C518.826 340.7 511.383 336.152 508.316 333.39C505.436 330.313 499.659 322.025 499.594 313.491Z" fill="#51BCDA"/>
<path d="M453.276 382.193C450.758 373.856 462.904 372.997 469.292 373.609C474.646 373.607 479.687 375.736 481.538 376.8C488.455 381.203 488.771 387.614 488.065 390.269C488.157 391.044 487.112 393.466 482.195 396.962C477.278 400.457 469.203 398.562 465.781 397.177C462.662 395.656 455.795 390.53 453.276 382.193Z" fill="#51BCDA"/>
<path d="M498.649 325.533C501.56 335.914 491.99 339.873 486.842 340.555C484.416 340.876 480.261 339.909 473.382 336.045C466.502 332.181 461.503 325.164 459.864 322.138C458.929 320.086 458.7 315.304 465.255 312.592C471.81 309.881 480.11 310.423 483.44 311.033C487.297 311.541 495.738 315.151 498.649 325.533Z" fill="#51BCDA"/>
<path d="M444.788 340.455C445.927 330.241 459.152 335.73 465.622 339.751C469.855 341.984 473.078 344.894 474.16 346.07C480.691 354.036 479.072 361.312 477.447 363.954C476.936 365.474 474.147 368.739 467.07 369.639C459.993 370.539 452.999 364.881 450.386 361.939C448.046 359.033 443.649 350.669 444.788 340.455Z" fill="#51BCDA"/>
<path d="M419.482 229.198C427.252 223.123 435.834 224.759 439.154 226.337C440.901 226.968 443.069 228.225 443.935 228.774C445.177 229.227 449.061 230.418 454.656 231.558C460.251 232.699 463.241 233.686 464.037 234.037C473.33 238.783 474.625 246.822 473.683 251.407C472.742 255.991 468.889 259.934 464.731 263.65C461.404 266.623 454.712 268.706 451.781 269.376C447.89 270.76 445.516 273.245 444.815 274.314C442.269 278.978 435.836 282.504 432.938 283.684C432.378 283.995 429.542 284.825 422.68 285.656C415.818 286.487 411.064 279.201 409.544 275.455C408.558 272.264 407.329 264.701 410.301 259.976C413.272 255.25 412.995 249.735 412.485 247.568C411.579 243.975 411.712 235.272 419.482 229.198Z" fill="#51BCDA"/>
<path d="M446.22 198.101C449.502 190.223 458.441 195.356 462.5 198.907C463.943 199.923 467.261 203.298 468.995 208.675C470.729 214.053 469.063 220.394 468.013 222.892C467.853 224.329 465.948 227.586 459.607 229.126C453.265 230.667 448.197 223.567 446.456 219.825C445.01 215.866 442.939 205.978 446.22 198.101Z" fill="#51BCDA"/>
<path d="M376.703 243.186C377.65 234.529 389.162 238.493 394.801 241.557C399.728 243.651 403.534 247.583 404.82 249.288C409.462 256.047 407.243 262.07 405.553 264.237C405.335 264.986 403.425 266.806 397.532 268.097C391.639 269.388 384.951 264.483 382.344 261.869C380.069 259.249 375.757 251.843 376.703 243.186Z" fill="#51BCDA"/>
<path d="M440.636 208.81C439.251 219.503 428.895 219.399 423.891 218.011C421.533 217.357 418.088 214.841 413.271 208.592C408.453 202.343 406.6 193.929 406.276 190.503C406.22 188.249 407.88 183.759 414.974 183.83C422.067 183.901 429.492 187.649 432.318 189.514C435.668 191.491 442.022 198.118 440.636 208.81Z" fill="#51BCDA"/>
<path d="M385.232 201.456C390.279 192.503 400.3 202.732 404.679 208.965C407.7 212.676 409.526 216.616 410.062 218.122C412.953 228.009 408.615 234.07 406.085 235.865C405.02 237.064 401.175 238.976 394.311 237.034C387.446 235.092 383.226 227.147 381.973 223.417C380.957 219.827 380.186 210.409 385.232 201.456Z" fill="#51BCDA"/>
<path d="M278.056 235.653C282.024 226.624 290.358 224.002 294.029 223.82C295.866 223.549 298.371 223.629 299.394 223.703C300.703 223.514 304.687 222.724 310.156 221.08C315.624 219.436 318.725 218.889 319.592 218.821C330.025 218.602 334.971 225.07 336.313 229.554C337.654 234.038 336.127 239.336 334.223 244.578C332.701 248.771 327.792 253.774 325.528 255.751C322.756 258.813 321.841 262.126 321.73 263.4C321.695 268.713 317.699 274.864 315.705 277.276C315.359 277.815 313.253 279.889 307.602 283.869C301.952 287.85 294.315 283.684 291.203 281.103C288.824 278.759 284.16 272.679 284.54 267.111C284.92 261.542 282.065 256.814 280.59 255.147C278.092 252.411 274.087 244.683 278.056 235.653Z" fill="#51BCDA"/>
<path d="M286.884 195.603C286.045 187.111 296.349 187.4 301.606 188.606C303.357 188.818 307.878 190.219 311.951 194.135C316.025 198.051 317.559 204.425 317.818 207.122C318.357 208.463 318.221 212.235 313.364 216.594C308.508 220.953 300.683 217.099 297.377 214.627C294.229 211.824 287.724 204.095 286.884 195.603Z" fill="#51BCDA"/>
<path d="M246.999 268.228C243.733 260.154 255.751 258.195 262.168 258.225C267.5 257.736 272.713 259.398 274.654 260.29C281.942 264.047 282.839 270.403 282.377 273.111C282.539 273.874 281.719 276.381 277.139 280.309C272.56 284.236 264.346 283.082 260.812 282.014C257.568 280.783 250.264 276.301 246.999 268.228Z" fill="#51BCDA"/>
<path d="M287.037 207.681C290.879 217.755 281.708 222.567 276.643 223.713C274.257 224.253 270.031 223.668 262.829 220.445C255.627 217.222 250.011 210.687 248.104 207.823C246.987 205.864 246.324 201.123 252.606 197.827C258.887 194.531 267.202 194.318 270.574 194.623C274.461 194.778 283.195 197.607 287.037 207.681Z" fill="#51BCDA"/>
<path d="M234.753 227.433C234.96 217.158 248.629 221.423 255.438 224.84C259.855 226.679 263.329 229.285 264.514 230.357C271.741 237.697 270.79 245.09 269.412 247.869C269.041 249.429 266.56 252.934 259.594 254.473C252.628 256.012 245.149 251.013 242.28 248.32C239.685 245.639 234.547 237.708 234.753 227.433Z" fill="#51BCDA"/>
<path d="M240.508 90.6423C247.369 83.5572 256.095 83.9984 259.6 85.1047C261.417 85.4898 263.738 86.4362 264.671 86.8613C265.964 87.139 269.974 87.7847 275.673 88.1457C281.371 88.5067 284.469 89.0728 285.305 89.3107C295.163 92.7342 297.55 100.519 297.248 105.19C296.946 109.86 293.671 114.296 290.063 118.548C287.177 121.95 280.834 124.933 278.024 125.999C274.36 127.905 272.349 130.693 271.802 131.849C269.922 136.818 264.035 141.195 261.327 142.762C260.814 143.147 258.119 144.359 251.437 146.125C244.754 147.891 239.043 141.329 237.024 137.826C235.608 134.801 233.351 127.479 235.645 122.39C237.938 117.302 236.906 111.876 236.102 109.8C234.712 106.366 233.647 97.7274 240.508 90.6423Z" fill="#51BCDA"/>
<path d="M262.717 56.1646C264.885 47.9107 274.445 51.7663 278.954 54.7259C280.522 55.5333 284.272 58.4202 286.729 63.5083C289.186 68.5964 288.408 75.1063 287.711 77.7253C287.75 79.1699 286.311 82.6585 280.241 85.0558C274.172 87.453 268.176 81.1178 265.937 77.6505C263.961 73.9277 260.55 64.4186 262.717 56.1646Z" fill="#51BCDA"/>
<path d="M200.058 110.378C199.805 101.673 211.753 104.017 217.759 106.277C222.928 107.674 227.238 111.046 228.747 112.557C234.273 118.614 232.903 124.885 231.528 127.264C231.414 128.035 229.773 130.101 224.113 132.19C218.454 134.279 211.155 130.34 208.213 128.109C205.6 125.826 200.311 119.084 200.058 110.378Z" fill="#51BCDA"/>
<path d="M258.658 67.5407C258.756 78.322 248.484 79.6431 243.336 78.956C240.911 78.6323 237.153 76.6139 231.522 71.0866C225.891 65.5593 222.899 57.4793 222.107 54.1302C221.741 51.9053 222.769 47.2294 229.805 46.3247C236.841 45.4201 244.71 48.112 247.766 49.5711C251.356 51.0687 258.56 56.7593 258.658 67.5407Z" fill="#51BCDA"/>
<path d="M202.769 67.872C206.537 58.3105 217.869 67.0642 223.064 72.6362C226.565 75.8973 228.916 79.5485 229.654 80.9664C233.877 90.362 230.413 96.9621 228.154 99.0877C227.264 100.422 223.718 102.844 216.652 101.864C209.586 100.884 204.313 93.595 202.56 90.0728C201.06 86.6565 199.002 77.4335 202.769 67.872Z" fill="#51BCDA"/>
</g>
</svg>
