<svg width="711" height="742" viewBox="0 0 711 742" fill="none" xmlns="http://www.w3.org/2000/svg">
<g opacity="0.07">
<path d="M96.2832 730.907C97.0896 740.737 91.0068 747.009 87.8645 748.916C86.3775 750.028 84.1361 751.15 83.2013 751.572C82.1405 752.361 79.012 754.951 74.9845 758.999C70.957 763.047 68.4897 765.004 67.7595 765.476C58.6878 770.633 51.2596 767.298 47.9461 763.992C44.6326 760.687 43.4553 755.301 42.635 749.785C41.9788 745.372 43.9158 738.636 44.9664 735.819C45.9478 731.807 45.176 728.458 44.6674 727.285C42.1698 722.596 42.7579 715.284 43.3642 712.214C43.4121 711.575 44.2769 708.749 47.353 702.559C50.4292 696.369 59.1286 696.4 63.0937 697.189C66.3015 698.118 73.2958 701.247 75.6114 706.325C77.927 711.404 82.6878 714.203 84.7788 714.968C88.2776 716.185 95.4768 721.078 96.2832 730.907Z" fill="#51BCDA"/>
<path d="M108.099 687.479C114.813 693.027 105.175 700.468 99.5171 703.495C95.06 706.462 89.6834 707.481 87.5523 707.619C79.3548 707.784 75.5412 702.62 74.6591 700.018C74.1535 699.424 73.682 696.829 75.841 691.195C78 685.562 85.773 682.669 89.3896 681.926C92.8288 681.466 101.386 681.932 108.099 687.479Z" fill="#51BCDA"/>
<path d="M101.694 759.784C93.5215 752.752 99.2978 744.156 103.208 740.737C105.049 739.127 109.044 737.631 116.912 737.039C124.781 736.447 132.829 739.522 135.87 741.134C137.784 742.325 140.623 746.18 136.667 752.068C132.71 757.955 125.499 762.1 122.388 763.436C118.895 765.149 109.867 766.817 101.694 759.784Z" fill="#51BCDA"/>
<path d="M138.28 717.533C142.988 726.669 128.936 729.422 121.322 729.656C116.561 730.141 112.266 729.502 110.713 729.122C100.864 726.106 98.1828 719.151 98.0734 716.051C97.6566 714.502 98.1716 710.239 103.566 705.57C108.96 700.902 117.917 701.741 121.722 702.744C125.28 703.867 133.573 708.398 138.28 717.533Z" fill="#51BCDA"/>
<path d="M227.169 737.281C225.698 747.033 218.339 751.742 214.843 752.877C213.14 753.618 210.701 754.196 209.695 754.392C208.481 754.916 204.842 756.72 199.993 759.735C195.144 762.751 192.293 764.089 191.474 764.381C181.461 767.319 174.997 762.368 172.53 758.391C170.063 754.413 170.154 748.9 170.621 743.343C170.995 738.898 174.426 732.786 176.095 730.286C177.971 726.606 177.988 723.169 177.762 721.911C176.407 716.773 178.658 709.791 179.952 706.942C180.145 706.331 181.636 703.779 186.05 698.46C190.465 693.142 198.925 695.168 202.603 696.846C205.512 698.486 211.602 703.136 212.69 708.611C213.778 714.086 217.77 717.902 219.63 719.126C222.756 721.114 228.64 727.528 227.169 737.281Z" fill="#51BCDA"/>
<path d="M248.635 697.723C253.897 704.663 242.809 709.694 236.607 711.342C231.588 713.207 226.121 712.965 224.015 712.611C215.999 710.889 213.472 704.989 213.21 702.254C212.855 701.56 212.991 698.925 216.385 693.937C219.779 688.95 228.009 687.918 231.699 688.025C235.152 688.366 243.374 690.783 248.635 697.723Z" fill="#51BCDA"/>
<path d="M225.809 766.629C219.468 757.908 227.063 750.868 231.653 748.437C233.815 747.292 238.046 746.753 245.84 747.982C253.635 749.212 260.763 754.052 263.353 756.318C264.942 757.917 266.821 762.32 261.619 767.143C256.417 771.966 248.447 774.345 245.112 774.931C241.32 775.797 232.15 775.349 225.809 766.629Z" fill="#51BCDA"/>
<path d="M271.114 733.9C273.6 743.872 259.291 743.327 251.826 741.808C247.082 741.187 243.047 739.58 241.623 738.854C232.729 733.658 231.715 726.274 232.32 723.231C232.27 721.628 233.75 717.597 240.071 714.291C246.393 710.985 254.918 713.857 258.391 715.706C261.596 717.616 268.628 723.928 271.114 733.9Z" fill="#51BCDA"/>
<path d="M314.991 622.958C318.467 632.187 314.343 639.889 311.846 642.587C310.722 644.065 308.875 645.759 308.092 646.422C307.289 647.472 304.993 650.822 302.233 655.822C299.473 660.821 297.638 663.38 297.066 664.035C289.761 671.487 281.702 670.321 277.608 668.053C273.514 665.786 270.901 660.931 268.597 655.853C266.753 651.79 266.764 644.781 267 641.784C266.841 637.657 265.178 634.649 264.367 633.661C260.677 629.838 259.232 622.646 258.972 619.528C258.842 618.9 258.897 615.946 260.153 609.149C261.41 602.352 269.783 599.991 273.812 599.659C277.152 599.671 284.736 600.757 288.359 605.004C291.981 609.251 297.328 610.633 299.548 610.794C303.247 611.003 311.514 613.728 314.991 622.958Z" fill="#51BCDA"/>
<path d="M336.684 657.763C343.222 663.247 335.654 670.245 331.052 673.058C329.652 674.132 325.44 676.291 319.79 676.34C314.14 676.389 308.586 672.905 306.515 671.157C305.192 670.575 302.653 667.784 303.076 661.272C303.5 654.76 311.789 652.044 315.881 651.499C320.091 651.302 330.146 652.278 336.684 657.763Z" fill="#51BCDA"/>
<path d="M314.416 577.954C322.396 581.443 315.175 591.246 310.566 595.712C307.096 599.789 302.207 602.247 300.196 602.966C292.359 605.377 287.273 601.46 285.71 599.201C285.061 598.769 283.894 596.403 284.422 590.393C284.949 584.383 291.628 579.465 294.901 577.757C298.081 576.369 306.437 574.466 314.416 577.954Z" fill="#51BCDA"/>
<path d="M328.13 649.235C318.339 644.72 321.531 634.867 324.35 630.506C325.678 628.451 329.108 625.915 336.511 623.183C343.913 620.451 352.497 621.196 355.864 621.91C358.032 622.529 361.821 625.455 359.635 632.204C357.449 638.952 351.654 644.919 349.03 647.059C346.143 649.665 337.921 653.75 328.13 649.235Z" fill="#51BCDA"/>
<path d="M351.695 598.556C358.732 606.045 345.978 612.554 338.721 614.873C334.277 616.647 329.972 617.213 328.374 617.275C318.075 617.081 313.586 611.131 312.629 608.181C311.802 606.806 311.126 602.565 315.029 596.594C318.933 590.623 327.775 588.968 331.709 588.887C335.439 588.989 344.658 591.066 351.695 598.556Z" fill="#51BCDA"/>
<path d="M446.951 617.4C449.03 627.042 443.814 634.051 440.947 636.351C439.617 637.648 437.541 639.051 436.669 639.591C435.72 640.511 432.955 643.487 429.488 648.024C426.021 652.562 423.83 654.823 423.167 655.386C414.843 661.679 407.044 659.338 403.329 656.492C399.614 653.646 397.746 648.458 396.215 643.096C394.99 638.806 396.034 631.875 396.71 628.946C397.161 624.84 395.96 621.62 395.303 620.523C392.217 616.198 391.849 608.872 392.05 605.749C392.015 605.11 392.505 602.195 394.749 595.658C396.994 589.12 405.624 588.019 409.658 588.286C412.959 588.79 420.301 590.982 423.258 595.716C426.214 600.451 431.299 602.607 433.471 603.093C437.099 603.845 444.873 607.759 446.951 617.4Z" fill="#51BCDA"/>
<path d="M463.276 655.023C468.934 661.411 460.417 667.217 455.451 669.321C453.908 670.177 449.424 671.691 443.828 670.906C438.233 670.122 433.253 665.857 431.462 663.823C430.239 663.053 428.139 659.918 429.518 653.539C430.897 647.161 439.496 645.696 443.623 645.761C447.817 646.187 457.618 648.635 463.276 655.023Z" fill="#51BCDA"/>
<path d="M453.018 572.804C460.397 577.431 451.809 586.063 446.593 589.8C442.559 593.321 437.361 595.031 435.266 595.446C427.16 596.675 422.707 592.052 421.494 589.586C420.915 589.063 420.11 586.551 421.518 580.685C422.926 574.818 430.256 570.939 433.745 569.732C437.096 568.828 445.64 568.177 453.018 572.804Z" fill="#51BCDA"/>
<path d="M456.074 645.327C447.056 639.418 451.665 630.144 455.097 626.245C456.713 624.409 460.48 622.406 468.204 620.795C475.928 619.185 484.309 621.187 487.533 622.389C489.586 623.322 492.903 626.774 489.746 633.127C486.588 639.479 479.977 644.526 477.067 646.256C473.827 648.409 465.092 651.237 456.074 645.327Z" fill="#51BCDA"/>
<path d="M486.852 598.676C492.708 607.121 479.134 611.679 471.615 612.902C466.957 614.001 462.616 613.927 461.027 613.752C450.869 612.043 447.306 605.496 446.794 602.436C446.179 600.955 446.135 596.661 450.876 591.331C455.617 586 464.608 585.667 468.51 586.166C472.184 586.817 480.996 590.231 486.852 598.676Z" fill="#51BCDA"/>
<path d="M532.869 497.204C540.61 503.316 541.05 512.042 540.303 515.641C540.103 517.487 539.395 519.892 539.067 520.863C538.921 522.177 538.682 526.232 538.898 531.938C539.113 537.644 538.862 540.783 538.71 541.639C536.298 551.792 528.793 554.952 524.116 555.122C519.439 555.292 514.695 552.481 510.101 549.321C506.426 546.792 502.819 540.782 501.474 538.093C499.208 534.64 496.232 532.921 495.028 532.494C489.894 531.123 484.946 525.708 483.114 523.171C482.679 522.701 481.201 520.141 478.77 513.671C476.339 507.2 482.293 500.857 485.574 498.494C488.441 496.781 495.498 493.798 500.792 495.567C506.086 497.335 511.38 495.761 513.365 494.753C516.641 493.023 525.128 491.092 532.869 497.204Z" fill="#51BCDA"/>
<path d="M569.41 515.826C577.84 517.15 574.968 527.05 572.478 531.834C571.833 533.476 569.338 537.498 564.524 540.455C559.709 543.413 553.154 543.295 550.478 542.866C549.045 543.05 545.429 541.97 542.432 536.173C539.435 530.376 545.134 523.772 548.358 521.195C551.862 518.853 560.979 514.501 569.41 515.826Z" fill="#51BCDA"/>
<path d="M509.155 458.951C517.791 457.822 516.663 469.946 515.02 476.149C514.151 481.432 511.231 486.06 509.88 487.713C504.411 493.822 498.034 493.092 495.529 491.963C494.749 491.928 492.529 490.503 489.88 485.083C487.231 479.663 490.414 472.004 492.337 468.852C494.345 466.022 500.52 460.08 509.155 458.951Z" fill="#51BCDA"/>
<path d="M557.682 512.934C546.965 514.118 544.616 504.032 544.78 498.841C544.858 496.396 546.487 492.453 551.418 486.294C556.35 480.134 564.087 476.343 567.339 475.217C569.516 474.629 574.272 475.18 575.881 482.089C577.49 488.998 575.606 497.099 574.462 500.286C573.334 504.009 568.399 511.75 557.682 512.934Z" fill="#51BCDA"/>
<path d="M551.718 457.363C561.611 460.147 554.044 472.304 549.025 478.034C546.133 481.847 542.737 484.554 541.401 485.431C532.479 490.579 525.563 487.799 523.221 485.765C521.804 485.015 519.036 481.731 519.299 474.602C519.562 467.473 526.282 461.492 529.61 459.393C532.857 457.556 541.826 454.578 551.718 457.363Z" fill="#51BCDA"/>
<path d="M665.609 450.488C670.339 459.143 667.329 467.344 665.232 470.364C664.326 471.984 662.733 473.92 662.05 474.685C661.402 475.837 659.595 479.475 657.559 484.81C655.524 490.145 654.064 492.935 653.589 493.663C647.394 502.061 639.252 502.031 634.881 500.356C630.51 498.682 627.246 494.238 624.256 489.531C621.864 485.766 620.897 478.824 620.713 475.823C619.98 471.758 617.914 469.012 616.973 468.146C612.786 464.876 610.353 457.956 609.66 454.904C609.444 454.301 609.086 451.367 609.382 444.462C609.678 437.556 617.64 434.05 621.584 433.16C624.893 432.706 632.555 432.723 636.734 436.424C640.913 440.124 646.4 440.747 648.622 440.597C652.313 440.288 660.879 441.833 665.609 450.488Z" fill="#51BCDA"/>
<path d="M691.944 481.928C699.183 486.447 692.664 494.432 688.5 497.86C687.264 499.118 683.394 501.843 677.806 502.679C672.218 503.516 666.232 500.841 663.938 499.399C662.547 499.007 659.642 496.597 659.154 490.09C658.666 483.583 666.495 479.737 670.47 478.627C674.612 477.844 684.705 477.409 691.944 481.928Z" fill="#51BCDA"/>
<path d="M658.764 406.004C667.153 408.346 661.369 419.06 657.429 424.125C654.561 428.647 650.062 431.762 648.171 432.754C640.747 436.235 635.165 433.066 633.302 431.046C632.599 430.709 631.113 428.529 630.798 422.504C630.482 416.48 636.409 410.678 639.412 408.531C642.368 406.713 650.376 403.662 658.764 406.004Z" fill="#51BCDA"/>
<path d="M682.284 474.676C671.96 471.57 673.746 461.369 675.93 456.657C676.958 454.437 680.001 451.447 686.95 447.71C693.899 443.972 702.503 443.513 705.936 443.75C708.17 444.061 712.33 446.43 711.106 453.417C709.882 460.405 704.977 467.121 702.677 469.606C700.181 472.59 692.609 477.782 682.284 474.676Z" fill="#51BCDA"/>
<path d="M698.551 421.206C706.564 427.641 694.842 435.865 687.98 439.173C683.826 441.549 679.642 442.711 678.069 442.995C667.844 444.239 662.569 438.973 661.209 436.185C660.199 434.94 658.938 430.834 661.97 424.377C665.003 417.92 673.528 415.048 677.412 414.419C681.12 414 690.538 414.771 698.551 421.206Z" fill="#51BCDA"/>
<path d="M682.239 309.895C690.503 315.278 691.734 323.928 691.317 327.58C691.286 329.437 690.799 331.896 690.56 332.893C690.534 334.215 690.665 338.274 691.398 343.937C692.131 349.6 692.166 352.749 692.092 353.616C690.612 363.945 683.425 367.774 678.783 368.368C674.14 368.962 669.162 366.594 664.299 363.863C660.409 361.679 656.271 356.022 654.688 353.466C652.118 350.233 648.998 348.792 647.759 348.475C642.523 347.577 637.103 342.633 635.048 340.274C634.572 339.844 632.868 337.43 629.86 331.207C626.851 324.984 632.204 318.126 635.257 315.475C637.956 313.509 644.713 309.897 650.146 311.177C655.579 312.458 660.708 310.409 662.593 309.225C665.698 307.205 673.975 304.511 682.239 309.895Z" fill="#51BCDA"/>
<path d="M720.321 325.119C728.836 325.672 726.875 335.792 724.83 340.782C724.337 342.476 722.218 346.708 717.692 350.091C713.166 353.473 706.628 353.951 703.924 353.767C702.513 354.081 698.814 353.333 695.303 347.833C691.792 342.332 696.867 335.238 699.843 332.378C703.121 329.728 711.805 324.566 720.321 325.119Z" fill="#51BCDA"/>
<path d="M655.15 273.953C663.647 272.044 663.626 284.22 662.553 290.547C662.167 295.887 659.68 300.761 658.484 302.531C653.592 309.111 647.175 308.963 644.578 308.066C643.799 308.102 641.458 306.885 638.328 301.727C635.198 296.57 637.672 288.654 639.3 285.34C641.043 282.34 646.653 275.862 655.15 273.953Z" fill="#51BCDA"/>
<path d="M708.379 323.305C697.815 325.458 694.558 315.627 694.251 310.442C694.106 308 695.37 303.926 699.722 297.344C704.074 290.762 711.435 286.283 714.571 284.867C716.685 284.084 721.471 284.201 723.702 290.935C725.932 297.669 724.791 305.907 723.941 309.185C723.156 312.995 718.944 321.153 708.379 323.305Z" fill="#51BCDA"/>
<path d="M697.393 268.506C707.497 270.38 701.066 283.174 696.587 289.336C694.054 293.396 690.918 296.4 689.667 297.395C681.25 303.332 674.11 301.191 671.593 299.379C670.113 298.76 667.059 295.741 666.673 288.618C666.287 281.495 672.436 274.928 675.56 272.535C678.627 270.411 687.288 266.631 697.393 268.506Z" fill="#51BCDA"/>
</g>
</svg>
