<svg width="780" height="1003" viewBox="0 0 780 1003" fill="none" xmlns="http://www.w3.org/2000/svg">
<g opacity="0.07">
<path d="M714.328 274.97C716.126 265.272 723.64 260.814 727.172 259.797C728.899 259.113 731.356 258.618 732.369 258.456C733.599 257.973 737.297 256.293 742.245 253.442C747.193 250.591 750.086 249.35 750.915 249.086C761.021 246.486 767.315 251.652 769.647 255.711C771.978 259.769 771.702 265.276 771.048 270.814C770.525 275.244 766.89 281.237 765.138 283.68C763.139 287.294 763.006 290.729 763.19 291.994C764.371 297.174 761.887 304.076 760.497 306.88C760.283 307.484 758.708 309.985 754.117 315.152C749.526 320.319 741.139 318.009 737.519 316.208C734.667 314.471 728.737 309.619 727.834 304.11C726.931 298.602 723.07 294.653 721.252 293.367C718.195 291.275 712.53 284.667 714.328 274.97Z" fill="#51BCDA"/>
<path d="M713.765 233.962C711.006 225.886 721.103 223.812 726.496 223.784C728.25 223.589 732.971 223.92 737.832 226.801C742.693 229.681 745.644 235.535 746.513 238.102C747.344 239.285 748.074 242.987 744.343 248.341C740.612 253.695 732.113 251.733 728.33 250.082C724.624 248.074 716.524 242.037 713.765 233.962Z" fill="#51BCDA"/>
<path d="M691.543 313.783C686.518 306.67 697.769 302.015 704.023 300.576C709.101 298.882 714.557 299.307 716.65 299.732C724.604 301.722 726.931 307.704 727.1 310.447C727.432 311.152 727.207 313.781 723.647 318.652C720.087 323.522 711.828 324.277 708.143 324.045C704.703 323.588 696.568 320.896 691.543 313.783Z" fill="#51BCDA"/>
<path d="M716.674 245.684C722.718 254.613 714.891 261.394 710.222 263.668C708.022 264.74 703.775 265.137 696.027 263.646C688.278 262.155 681.317 257.077 678.805 254.725C677.27 253.074 675.54 248.61 680.902 243.965C686.264 239.32 694.309 237.211 697.661 236.736C701.481 235.999 710.63 236.756 716.674 245.684Z" fill="#51BCDA"/>
<path d="M670.293 276.869C668.145 266.819 682.427 267.845 689.837 269.615C694.558 270.395 698.536 272.137 699.934 272.911C708.649 278.403 709.413 285.817 708.706 288.838C708.703 290.441 707.088 294.421 700.659 297.512C694.23 300.604 685.806 297.447 682.397 295.482C679.258 293.465 672.442 286.919 670.293 276.869Z" fill="#51BCDA"/>
<path d="M622.71 386.273C619.545 376.931 623.927 369.372 626.513 366.761C627.686 365.321 629.589 363.69 630.394 363.054C631.232 362.031 633.64 358.76 636.566 353.857C639.493 348.953 641.412 346.457 642.006 345.822C649.558 338.62 657.573 340.057 661.589 342.461C665.604 344.865 668.052 349.805 670.184 354.958C671.89 359.08 671.643 366.085 671.307 369.072C671.327 373.202 672.887 376.264 673.665 377.279C677.224 381.224 678.426 388.46 678.581 391.586C678.69 392.217 678.535 395.168 677.051 401.919C675.566 408.67 667.119 410.748 663.081 410.943C659.743 410.819 652.199 409.479 648.722 405.113C645.245 400.746 639.948 399.184 637.734 398.949C634.044 398.616 625.874 395.614 622.71 386.273Z" fill="#51BCDA"/>
<path d="M602.2 350.757C595.85 345.056 603.65 338.316 608.343 335.659C609.778 334.634 614.061 332.618 619.709 332.759C625.358 332.9 630.791 336.569 632.802 338.385C634.105 339.011 636.549 341.887 635.907 348.381C635.264 354.874 626.888 357.311 622.781 357.717C618.566 357.772 608.55 356.458 602.2 350.757Z" fill="#51BCDA"/>
<path d="M621.769 431.27C613.912 427.515 621.459 417.96 626.215 413.652C629.82 409.694 634.789 407.402 636.823 406.751C644.737 404.605 649.688 408.691 651.174 411.001C651.809 411.455 652.895 413.859 652.166 419.848C651.436 425.836 644.596 430.527 641.267 432.124C638.042 433.404 629.627 435.025 621.769 431.27Z" fill="#51BCDA"/>
<path d="M610.461 359.568C620.095 364.41 616.574 374.149 613.609 378.414C612.212 380.423 608.699 382.842 601.209 385.323C593.718 387.804 585.164 386.771 581.824 385.944C579.678 385.252 575.989 382.2 578.401 375.529C580.813 368.858 586.806 363.09 589.5 361.04C592.473 358.531 600.828 354.726 610.461 359.568Z" fill="#51BCDA"/>
<path d="M585.204 409.425C578.423 401.703 591.389 395.627 598.72 393.554C603.221 391.931 607.543 391.509 609.142 391.501C619.428 392.042 623.715 398.139 624.572 401.12C625.352 402.522 625.885 406.783 621.783 412.619C617.681 418.456 608.788 419.813 604.853 419.761C601.129 419.534 591.986 417.148 585.204 409.425Z" fill="#51BCDA"/>
<path d="M490.636 387.385C488.883 377.68 494.332 370.849 497.275 368.648C498.647 367.397 500.77 366.064 501.66 365.553C502.639 364.665 505.503 361.785 509.12 357.367C512.738 352.948 515.004 350.763 515.685 350.222C524.216 344.212 531.932 346.814 535.549 349.784C539.167 352.754 540.859 358.001 542.209 363.412C543.288 367.741 542.011 374.632 541.238 377.537C540.649 381.625 541.741 384.884 542.36 386.003C545.299 390.429 545.421 397.763 545.114 400.877C545.128 401.518 544.54 404.414 542.077 410.873C539.613 417.331 530.952 418.141 526.929 417.739C523.646 417.124 516.382 414.686 513.587 409.855C510.791 405.023 505.782 402.697 503.627 402.139C500.027 401.265 492.389 397.091 490.636 387.385Z" fill="#51BCDA"/>
<path d="M475.587 349.235C470.147 342.66 478.855 337.144 483.889 335.208C485.46 334.405 489.993 333.043 495.559 334.015C501.124 334.987 505.958 339.417 507.679 341.51C508.875 342.321 510.869 345.526 509.276 351.854C507.683 358.182 499.04 359.357 494.917 359.153C490.741 358.587 481.027 355.81 475.587 349.235Z" fill="#51BCDA"/>
<path d="M483.072 431.752C475.854 426.88 484.727 418.542 490.066 414.982C494.216 411.599 499.469 410.065 501.576 409.721C509.72 408.765 514.014 413.536 515.144 416.041C515.704 416.583 516.425 419.121 514.82 424.936C513.216 430.752 505.759 434.383 502.231 435.471C498.852 436.262 490.29 436.625 483.072 431.752Z" fill="#51BCDA"/>
<path d="M482.459 359.168C491.273 365.377 486.354 374.491 482.793 378.272C481.116 380.053 477.284 381.928 469.51 383.277C461.736 384.627 453.428 382.344 450.245 381.034C448.225 380.033 445.027 376.471 448.396 370.228C451.765 363.985 458.542 359.164 461.509 357.533C464.82 355.491 473.645 352.958 482.459 359.168Z" fill="#51BCDA"/>
<path d="M450.127 404.756C444.559 396.119 458.279 392.021 465.835 391.051C470.527 390.109 474.863 390.329 476.445 390.557C486.54 392.608 489.881 399.271 490.289 402.346C490.854 403.847 490.753 408.14 485.836 413.308C480.918 418.476 471.921 418.507 468.038 417.876C464.388 417.102 455.696 413.394 450.127 404.756Z" fill="#51BCDA"/>
<path d="M400.723 504.621C393.192 498.252 393.045 489.517 393.913 485.945C394.175 484.106 394.963 481.727 395.325 480.767C395.515 479.459 395.889 475.415 395.866 469.704C395.843 463.994 396.199 460.866 396.381 460.015C399.133 449.949 406.74 447.044 411.42 447.031C416.1 447.018 420.746 449.987 425.232 453.301C428.82 455.952 432.223 462.079 433.476 464.812C435.624 468.34 438.541 470.158 439.73 470.626C444.815 472.168 449.578 477.747 451.324 480.344C451.743 480.829 453.133 483.436 455.345 489.985C457.557 496.534 451.393 502.673 448.034 504.924C445.112 506.539 437.958 509.284 432.726 507.338C427.494 505.392 422.151 506.787 420.133 507.728C416.801 509.346 408.253 510.991 400.723 504.621Z" fill="#51BCDA"/>
<path d="M364.829 484.781C356.448 483.174 359.652 473.377 362.301 468.679C363.002 467.06 365.63 463.124 370.541 460.33C375.452 457.536 382 457.875 384.66 458.394C386.098 458.258 389.676 459.459 392.476 465.353C395.276 471.248 389.359 477.656 386.05 480.124C382.468 482.346 373.21 486.389 364.829 484.781Z" fill="#51BCDA"/>
<path d="M423.135 543.651C414.467 544.489 416.001 532.41 417.852 526.266C418.898 521.015 421.973 516.488 423.379 514.881C429.05 508.959 435.399 509.904 437.865 511.117C438.642 511.178 440.814 512.677 443.279 518.183C445.744 523.689 442.305 531.237 440.277 534.322C438.175 537.083 431.804 542.813 423.135 543.651Z" fill="#51BCDA"/>
<path d="M376.452 488.066C387.203 487.243 389.212 497.403 388.873 502.585C388.713 505.027 386.952 508.912 381.816 514.902C376.68 520.892 368.819 524.421 365.531 525.436C363.336 525.951 358.601 525.24 357.226 518.281C355.85 511.322 358.006 503.289 359.256 500.142C360.509 496.46 365.702 488.889 376.452 488.066Z" fill="#51BCDA"/>
<path d="M380.543 543.806C370.75 540.69 378.721 528.795 383.931 523.237C386.949 519.524 390.434 516.933 391.799 516.102C400.889 511.256 407.708 514.268 409.98 516.379C411.371 517.177 414.027 520.552 413.525 527.668C413.022 534.784 406.104 540.535 402.708 542.522C399.4 544.248 390.336 546.922 380.543 543.806Z" fill="#51BCDA"/>
<path d="M266.485 546.844C262.048 538.035 265.333 529.939 267.53 526.992C268.491 525.403 270.148 523.522 270.856 522.781C271.543 521.651 273.471 518.076 275.685 512.813C277.899 507.549 279.452 504.81 279.952 504.098C286.425 495.913 294.562 496.218 298.874 498.038C303.185 499.859 306.298 504.409 309.128 509.214C311.392 513.058 312.125 520.029 312.208 523.034C312.804 527.121 314.776 529.936 315.688 530.832C319.762 534.242 321.961 541.24 322.551 544.313C322.747 544.924 323.006 547.867 322.477 554.759C321.948 561.651 313.873 564.887 309.902 565.644C306.58 565.986 298.923 565.711 294.87 561.872C290.818 558.033 285.355 557.226 283.13 557.302C279.43 557.486 270.921 555.653 266.485 546.844Z" fill="#51BCDA"/>
<path d="M241.223 514.536C234.14 509.776 240.923 502.015 245.2 498.729C246.479 497.513 250.438 494.92 256.051 494.272C261.664 493.624 267.556 496.499 269.801 498.017C271.178 498.456 273.999 500.962 274.269 507.482C274.538 514.002 266.584 517.582 262.573 518.557C258.407 519.2 248.306 519.296 241.223 514.536Z" fill="#51BCDA"/>
<path d="M271.829 591.533C263.524 588.911 269.665 578.396 273.773 573.467C276.792 569.045 281.393 566.083 283.316 565.154C290.853 561.926 296.326 565.281 298.12 567.362C298.811 567.723 300.222 569.952 300.335 575.983C300.448 582.015 294.328 587.614 291.255 589.659C288.24 591.377 280.133 594.156 271.829 591.533Z" fill="#51BCDA"/>
<path d="M250.632 522.109C260.847 525.56 258.718 535.695 256.377 540.331C255.274 542.515 252.133 545.401 245.062 548.903C237.991 552.404 229.376 552.574 225.953 552.221C223.732 551.835 219.653 549.327 221.112 542.385C222.57 535.443 227.699 528.895 230.081 526.489C232.676 523.591 240.418 518.657 250.632 522.109Z" fill="#51BCDA"/>
<path d="M232.575 575.001C224.784 568.3 236.776 560.475 243.746 557.4C247.977 555.165 252.197 554.145 253.779 553.914C264.041 553.014 269.136 558.454 270.4 561.287C271.368 562.566 272.49 566.711 269.242 573.062C265.994 579.414 257.377 581.998 253.474 582.496C249.754 582.79 240.367 581.702 232.575 575.001Z" fill="#51BCDA"/>
<path d="M245.132 686.798C237.054 681.139 236.115 672.453 236.655 668.817C236.749 666.963 237.317 664.522 237.59 663.533C237.661 662.213 237.666 658.151 237.124 652.466C236.583 646.782 236.653 643.634 236.757 642.77C238.584 632.496 245.895 628.912 250.555 628.474C255.215 628.036 260.111 630.571 264.879 633.464C268.693 635.778 272.638 641.571 274.134 644.178C276.594 647.496 279.664 649.042 280.891 649.4C286.095 650.474 291.345 655.597 293.319 658.025C293.78 658.47 295.402 660.94 298.199 667.261C300.997 673.582 295.416 680.255 292.276 682.802C289.512 684.676 282.637 688.059 277.25 686.596C271.863 685.133 266.669 687.008 264.745 688.129C261.573 690.043 253.21 692.457 245.132 686.798Z" fill="#51BCDA"/>
<path d="M207.584 670.3C199.092 669.461 201.393 659.413 203.604 654.494C204.155 652.818 206.414 648.659 211.052 645.431C215.689 642.203 222.24 641.946 224.936 642.22C226.356 641.954 230.028 642.826 233.352 648.442C236.676 654.057 231.365 660.977 228.294 663.734C224.929 666.273 216.077 671.14 207.584 670.3Z" fill="#51BCDA"/>
<path d="M270.996 723.631C262.44 725.253 262.871 713.084 264.156 706.797C264.721 701.473 267.372 696.685 268.626 694.957C273.736 688.545 280.145 688.909 282.71 689.893C283.49 689.883 285.789 691.179 288.744 696.438C291.699 701.698 288.959 709.526 287.22 712.783C285.378 715.723 279.553 722.009 270.996 723.631Z" fill="#51BCDA"/>
<path d="M219.458 672.515C230.089 670.72 233.013 680.655 233.146 685.847C233.208 688.292 231.807 692.322 227.237 698.753C222.666 705.185 215.159 709.413 211.976 710.723C209.837 711.435 205.057 711.157 203.055 704.352C201.053 697.546 202.471 689.351 203.43 686.104C204.343 682.322 208.827 674.311 219.458 672.515Z" fill="#51BCDA"/>
<path d="M228.594 727.654C218.559 725.44 225.417 712.87 230.1 706.862C232.769 702.89 236.004 699.993 237.288 699.041C245.9 693.39 252.964 695.77 255.419 697.666C256.876 698.335 259.828 701.454 259.974 708.587C260.12 715.719 253.753 722.075 250.551 724.361C247.414 726.381 238.63 729.867 228.594 727.654Z" fill="#51BCDA"/>
<path d="M94.7456 694.242C90.941 685.142 94.788 677.298 97.1871 674.513C98.2576 672.996 100.043 671.236 100.801 670.546C101.566 669.468 103.741 666.038 106.321 660.943C108.9 655.849 110.642 653.225 111.191 652.551C118.225 644.842 126.32 645.719 130.493 647.839C134.665 649.959 137.45 654.718 139.934 659.71C141.922 663.704 142.162 670.709 142.033 673.712C142.339 677.831 144.108 680.778 144.954 681.736C148.779 685.425 150.479 692.56 150.851 695.667C151.003 696.29 151.054 699.245 150.041 706.082C149.029 712.92 140.745 715.579 136.731 716.054C133.393 716.161 125.774 715.347 122.002 711.233C118.23 707.118 112.838 705.927 110.613 705.846C106.909 705.769 98.5502 703.341 94.7456 694.242Z" fill="#51BCDA"/>
<path d="M71.8219 660.235C65.0919 654.988 72.4055 647.724 76.9035 644.747C78.264 643.625 82.3961 641.317 88.0408 641.066C93.6855 640.815 99.3606 644.098 101.493 645.771C102.836 646.305 105.474 649.003 105.283 655.526C105.092 662.049 96.9053 665.06 92.8359 665.75C88.6354 666.098 78.5519 665.482 71.8219 660.235Z" fill="#51BCDA"/>
<path d="M96.9272 739.197C88.8279 735.995 95.6943 725.94 100.14 721.312C103.462 717.114 108.261 714.483 110.245 713.693C117.99 711.003 123.213 714.735 124.856 716.938C125.52 717.346 126.771 719.669 126.458 725.694C126.146 731.718 119.647 736.872 116.437 738.696C113.308 740.197 105.026 742.398 96.9272 739.197Z" fill="#51BCDA"/>
<path d="M80.6756 668.452C90.6215 672.614 87.7842 682.574 85.1224 687.034C83.8684 689.135 80.5315 691.792 73.2314 694.787C65.9312 697.781 57.3261 697.344 53.9362 696.751C51.7475 696.209 47.856 693.42 49.7996 686.598C51.7433 679.776 57.3209 673.606 59.8668 671.374C62.6589 668.665 70.7298 664.289 80.6756 668.452Z" fill="#51BCDA"/>
<path d="M58.9369 719.94C51.6365 712.707 64.15 705.746 71.3192 703.17C75.6971 701.238 79.9795 700.518 81.5734 700.4C91.8728 700.225 96.572 706.011 97.6341 708.925C98.5089 710.269 99.3367 714.483 95.6492 720.59C91.9617 726.697 83.1836 728.667 79.2555 728.889C75.5245 728.92 66.2374 727.174 58.9369 719.94Z" fill="#51BCDA"/>
</g>
</svg>
