<svg width="667" height="838" viewBox="0 0 667 838" fill="none" xmlns="http://www.w3.org/2000/svg">
<g opacity="0.07">
<path d="M20.2559 290.391C11.7146 295.323 3.4444 292.505 0.37696 290.48C-1.26446 289.611 -3.23677 288.065 -4.01774 287.4C-5.18464 286.779 -8.86377 285.058 -14.2451 283.148C-19.6265 281.238 -22.45 279.844 -23.1891 279.386C-31.7298 273.39 -31.8903 265.249 -30.3189 260.84C-28.7475 256.431 -24.3817 253.064 -19.746 249.964C-16.0375 247.484 -9.11994 246.355 -6.12471 246.101C-2.07815 245.273 0.61937 243.143 1.46231 242.182C4.63382 237.919 11.4952 235.325 14.5295 234.56C15.1278 234.33 18.052 233.904 24.9628 234.038C31.8737 234.172 35.5653 242.05 36.5472 245.972C37.0786 249.269 37.241 256.929 33.6397 261.194C30.0384 265.459 29.5437 270.959 29.7465 273.176C30.1419 276.86 28.7973 285.459 20.2559 290.391Z" fill="#51BCDA"/>
<path d="M64.5671 282.505C62.4227 290.946 51.5752 285.415 46.4194 281.595C41.8321 278.834 38.6122 274.409 37.5757 272.542C33.9223 265.201 36.9595 259.546 38.9347 257.636C39.2553 256.926 41.4003 255.389 47.4158 254.933C53.4313 254.476 59.3701 260.266 61.5875 263.218C63.4742 266.13 66.7114 274.064 64.5671 282.505Z" fill="#51BCDA"/>
<path d="M-3.53419 307.629C-0.671212 297.234 9.56885 298.781 14.331 300.853C16.5744 301.83 19.6347 304.801 23.5339 311.661C27.4331 318.521 28.0943 327.112 27.9375 330.549C27.6789 332.789 25.4082 337.004 18.394 335.944C11.3798 334.885 4.55016 330.138 2.01213 327.897C-1.02955 325.472 -6.39717 318.024 -3.53419 307.629Z" fill="#51BCDA"/>
<path d="M50.3027 322.638C44.0573 330.799 35.5606 319.274 32.093 312.491C29.6198 308.394 28.3605 304.238 28.04 302.672C26.5561 292.479 31.6967 287.082 34.4525 285.657C35.6739 284.618 39.7484 283.261 46.2748 286.141C52.8012 289.022 55.8727 297.478 56.5926 301.346C57.0983 305.042 56.5482 314.476 50.3027 322.638Z" fill="#51BCDA"/>
<path d="M47.2011 419.692C38.0261 423.31 30.2616 419.304 27.5262 416.849C26.0308 415.748 24.3081 413.927 23.6336 413.155C22.5711 412.368 19.1859 410.124 14.1449 407.441C9.10393 404.759 6.51676 402.964 5.85329 402.401C-1.71014 395.212 -0.668628 387.136 1.53557 383.007C3.73977 378.879 8.5543 376.192 13.5963 373.809C17.6299 371.903 24.6383 371.807 27.6384 371.996C31.7628 371.774 34.7448 370.065 35.7202 369.239C39.4856 365.49 46.6545 363.935 49.7683 363.627C50.394 363.487 53.3491 363.497 60.1646 364.649C66.9801 365.8 69.47 374.136 69.863 378.16C69.9025 381.499 68.9339 389.1 64.7431 392.787C60.5524 396.474 59.2522 401.841 59.1259 404.064C58.9739 407.766 56.3762 416.073 47.2011 419.692Z" fill="#51BCDA"/>
<path d="M12.734 441.918C7.35094 448.54 0.237212 441.08 -2.64677 436.522C-3.74145 435.139 -5.9648 430.961 -6.10078 425.312C-6.23676 419.663 -2.83904 414.056 -1.12319 411.959C-0.56192 410.627 2.19001 408.045 8.70761 408.368C15.2252 408.692 18.069 416.938 18.6763 421.02C18.9384 425.227 18.117 435.296 12.734 441.918Z" fill="#51BCDA"/>
<path d="M92.1906 418.425C88.8253 426.457 78.9116 419.388 74.3755 414.849C70.2454 411.442 67.713 406.591 66.9631 404.591C64.4318 396.792 68.2695 391.647 70.5047 390.049C70.9266 389.393 73.2746 388.19 79.2917 388.625C85.3088 389.06 90.3291 395.662 92.0872 398.909C93.5238 402.067 95.5559 410.392 92.1906 418.425Z" fill="#51BCDA"/>
<path d="M21.1295 433.234C25.4937 423.375 35.3939 426.414 39.7984 429.166C41.8733 430.463 44.4622 433.853 47.3074 441.213C50.1527 448.573 49.5401 457.167 48.8782 460.544C48.2922 462.721 45.4249 466.555 38.6436 464.473C31.8622 462.391 25.8071 456.689 23.6272 454.098C20.9762 451.251 16.7654 443.093 21.1295 433.234Z" fill="#51BCDA"/>
<path d="M72.1653 456.016C64.7849 463.168 58.0803 450.515 55.6506 443.295C53.8084 438.879 53.1756 434.583 53.0894 432.987C53.1245 422.686 59.0046 418.105 61.9403 417.103C63.3015 416.255 67.5316 415.514 73.5621 419.325C79.5925 423.136 81.3838 431.952 81.5256 435.884C81.4807 439.615 79.5458 448.864 72.1653 456.016Z" fill="#51BCDA"/>
<path d="M179.77 484.917C174.998 493.549 166.46 495.403 162.787 495.251C160.933 495.353 158.445 495.046 157.434 494.88C156.113 494.95 152.074 495.374 146.479 496.514C140.883 497.655 137.745 497.918 136.876 497.907C126.466 497.178 122.128 490.287 121.199 485.7C120.271 481.112 122.273 475.975 124.644 470.928C126.542 466.89 131.885 462.354 134.319 460.59C137.358 457.793 138.57 454.577 138.796 453.319C139.313 448.031 143.852 442.268 146.056 440.047C146.45 439.542 148.735 437.667 154.724 434.217C160.713 430.766 167.94 435.609 170.805 438.462C172.961 441.012 177.053 447.49 176.169 453.001C175.284 458.512 177.699 463.479 179.017 465.274C181.256 468.225 184.541 476.285 179.77 484.917Z" fill="#51BCDA"/>
<path d="M167.339 524C167.404 532.533 157.168 531.309 152.043 529.63C150.318 529.261 145.944 527.454 142.243 523.185C138.542 518.915 137.592 512.428 137.58 509.718C137.165 508.334 137.643 504.59 142.875 500.69C148.107 496.791 155.55 501.339 158.618 504.101C161.498 507.178 167.275 515.466 167.339 524Z" fill="#51BCDA"/>
<path d="M213.657 455.298C216.176 463.635 204.03 464.494 197.642 463.882C192.288 463.884 187.247 461.755 185.395 460.691C178.479 456.288 178.162 449.877 178.869 447.222C178.776 446.447 179.821 444.025 184.738 440.529C189.656 437.034 197.73 438.929 201.153 440.314C204.272 441.835 211.139 446.961 213.657 455.298Z" fill="#51BCDA"/>
<path d="M168.285 511.958C165.374 501.577 174.943 497.618 180.092 496.936C182.517 496.615 186.672 497.582 193.552 501.446C200.431 505.31 205.43 512.327 207.07 515.353C208.004 517.405 208.234 522.187 201.679 524.899C195.124 527.61 186.824 527.068 183.493 526.458C179.637 525.95 171.196 522.34 168.285 511.958Z" fill="#51BCDA"/>
<path d="M222.146 497.036C221.007 507.25 207.782 501.761 201.311 497.74C197.079 495.507 193.856 492.597 192.773 491.421C186.243 483.455 187.861 476.179 189.487 473.537C189.997 472.017 192.787 468.752 199.864 467.852C206.94 466.952 213.935 472.61 216.547 475.552C218.888 478.458 223.284 486.822 222.146 497.036Z" fill="#51BCDA"/>
<path d="M247.452 608.293C239.682 614.368 231.1 612.732 227.78 611.154C226.033 610.523 223.864 609.266 222.998 608.717C221.756 608.264 217.873 607.073 212.278 605.932C206.683 604.792 203.692 603.805 202.897 603.454C193.603 598.708 192.309 590.669 193.25 586.084C194.191 581.5 198.045 577.556 202.203 573.84C205.529 570.868 212.222 568.785 215.152 568.115C219.044 566.731 221.418 564.246 222.119 563.177C224.665 558.513 231.097 554.987 233.995 553.807C234.556 553.496 237.392 552.666 244.254 551.835C251.116 551.004 255.87 558.29 257.389 562.036C258.375 565.227 259.604 572.79 256.633 577.515C253.662 582.241 253.939 587.756 254.449 589.923C255.354 593.516 255.222 602.219 247.452 608.293Z" fill="#51BCDA"/>
<path d="M220.713 639.39C217.432 647.268 208.493 642.135 204.433 638.584C202.991 637.568 199.673 634.193 197.939 628.816C196.205 623.438 197.87 617.097 198.92 614.599C199.08 613.162 200.986 609.905 207.327 608.364C213.668 606.824 218.736 613.924 220.478 617.666C221.923 621.625 223.995 631.513 220.713 639.39Z" fill="#51BCDA"/>
<path d="M290.23 594.305C289.284 602.962 277.771 598.998 272.133 595.934C267.206 593.84 263.4 589.908 262.113 588.203C257.472 581.444 259.691 575.421 261.38 573.254C261.599 572.505 263.508 570.685 269.401 569.394C275.294 568.103 281.983 573.008 284.59 575.622C286.864 578.242 291.177 585.648 290.23 594.305Z" fill="#51BCDA"/>
<path d="M226.297 628.681C227.682 617.988 238.038 618.092 243.043 619.48C245.4 620.134 248.845 622.65 253.663 628.899C258.481 635.147 260.334 643.562 260.658 646.988C260.714 649.242 259.053 653.732 251.96 653.661C244.866 653.59 237.442 649.842 234.616 647.977C231.266 646 224.912 639.373 226.297 628.681Z" fill="#51BCDA"/>
<path d="M281.701 636.035C276.655 644.988 266.634 634.759 262.254 628.526C259.234 624.815 257.407 620.875 256.872 619.369C253.981 609.482 258.318 603.421 260.849 601.626C261.913 600.427 265.759 598.515 272.623 600.457C279.487 602.399 283.708 610.344 284.96 614.074C285.977 617.664 286.747 627.082 281.701 636.035Z" fill="#51BCDA"/>
<path d="M388.878 601.838C384.91 610.867 376.576 613.489 372.905 613.671C371.067 613.942 368.562 613.862 367.539 613.788C366.231 613.977 362.247 614.767 356.778 616.411C351.31 618.055 348.209 618.602 347.342 618.67C336.909 618.889 331.963 612.421 330.621 607.937C329.28 603.453 330.807 598.155 332.71 592.913C334.233 588.72 339.142 583.717 341.406 581.74C344.178 578.678 345.093 575.365 345.204 574.091C345.238 568.778 349.235 562.627 351.229 560.215C351.575 559.676 353.68 557.602 359.331 553.621C364.982 549.641 372.619 553.807 375.731 556.388C378.11 558.732 382.773 564.811 382.393 570.38C382.013 575.949 384.869 580.677 386.344 582.344C388.842 585.08 392.846 592.808 388.878 601.838Z" fill="#51BCDA"/>
<path d="M380.049 641.888C380.888 650.38 370.584 650.091 365.328 648.885C363.576 648.673 359.056 647.272 354.982 643.356C350.909 639.44 349.374 633.066 349.116 630.369C348.577 629.028 348.713 625.256 353.569 620.897C358.426 616.538 366.251 620.392 369.556 622.864C372.704 625.667 379.21 633.396 380.049 641.888Z" fill="#51BCDA"/>
<path d="M419.935 569.263C423.2 577.337 411.183 579.296 404.766 579.266C399.434 579.755 394.22 578.093 392.28 577.201C384.992 573.444 384.094 567.088 384.557 564.38C384.395 563.617 385.215 561.11 389.794 557.182C394.374 553.255 402.587 554.409 406.121 555.477C409.365 556.708 416.67 561.19 419.935 569.263Z" fill="#51BCDA"/>
<path d="M379.897 629.81C376.055 619.736 385.225 614.924 390.291 613.778C392.677 613.238 396.902 613.823 404.104 617.046C411.306 620.269 416.922 626.804 418.83 629.668C419.947 631.627 420.61 636.368 414.328 639.664C408.046 642.96 399.732 643.173 396.36 642.868C392.473 642.713 383.739 639.884 379.897 629.81Z" fill="#51BCDA"/>
<path d="M432.18 610.058C431.974 620.333 418.305 616.068 411.496 612.651C407.078 610.812 403.604 608.206 402.42 607.134C395.192 599.794 396.143 592.401 397.522 589.622C397.892 588.062 400.374 584.557 407.34 583.018C414.305 581.479 421.785 586.478 424.653 589.171C427.248 591.852 432.386 599.783 432.18 610.058Z" fill="#51BCDA"/>
<path d="M426.426 746.849C419.564 753.934 410.839 753.493 407.333 752.386C405.517 752.001 403.196 751.055 402.262 750.63C400.97 750.352 396.96 749.706 391.261 749.345C385.562 748.984 382.465 748.418 381.628 748.18C371.771 744.757 369.383 736.972 369.686 732.301C369.988 727.631 373.263 723.195 376.87 718.943C379.756 715.541 386.099 712.558 388.91 711.492C392.574 709.586 394.584 706.798 395.131 705.642C397.012 700.673 402.899 696.296 405.607 694.729C406.119 694.344 408.814 693.132 415.497 691.366C422.18 689.6 427.89 696.162 429.91 699.665C431.325 702.689 433.582 710.012 431.289 715.1C428.995 720.189 430.028 725.615 430.831 727.691C432.221 731.125 433.287 739.764 426.426 746.849Z" fill="#51BCDA"/>
<path d="M404.216 781.326C402.049 789.58 392.489 785.725 387.98 782.765C386.412 781.958 382.661 779.071 380.204 773.983C377.747 768.895 378.526 762.385 379.222 759.766C379.183 758.321 380.623 754.832 386.692 752.435C392.762 750.038 398.757 756.373 400.997 759.84C402.973 763.563 406.384 773.072 404.216 781.326Z" fill="#51BCDA"/>
<path d="M466.876 727.113C467.129 735.818 455.18 733.474 449.174 731.214C444.006 729.817 439.696 726.445 438.187 724.934C432.661 718.877 434.03 712.606 435.406 710.227C435.519 709.456 437.161 707.39 442.82 705.301C448.48 703.212 455.779 707.151 458.721 709.382C461.334 711.665 466.623 718.407 466.876 727.113Z" fill="#51BCDA"/>
<path d="M408.276 769.95C408.178 759.169 418.45 757.848 423.598 758.535C426.023 758.859 429.781 760.877 435.412 766.404C441.043 771.932 444.035 780.012 444.827 783.361C445.192 785.586 444.165 790.262 437.129 791.166C430.093 792.071 422.223 789.379 419.168 787.92C415.578 786.422 408.373 780.732 408.276 769.95Z" fill="#51BCDA"/>
<path d="M464.164 769.619C460.397 779.18 449.065 770.427 443.87 764.855C440.368 761.594 438.017 757.943 437.28 756.525C433.057 747.129 436.52 740.529 438.78 738.403C439.67 737.069 443.216 734.647 450.282 735.627C457.348 736.607 462.621 743.896 464.374 747.418C465.874 750.834 467.932 760.057 464.164 769.619Z" fill="#51BCDA"/>
</g>
</svg>
