<svg width="314" height="284" viewBox="0 0 314 284" fill="none" xmlns="http://www.w3.org/2000/svg">
<g clip-path="url(#clip0)">
<path d="M199.589 163.862L156.253 112.307L69.2645 113.102L16.4961 164.5L17.5623 165.185H17.1816V272.093H199.472V165.185L199.589 163.862Z" fill="#3F3D56"/>
<path d="M156.299 112.417L102.16 175.889V272.092H199.473V163.815L156.299 112.417Z" fill="#51BCDA"/>
<path d="M161.095 218.89H141.221V236.456H161.095V218.89Z" fill="white"/>
<path d="M161.095 188.485H141.221V205.773H161.095V188.485Z" fill="white"/>
<path d="M72.7752 214.23H52.9014V231.796H72.7752V214.23Z" fill="white"/>
<path d="M72.7752 183.824H52.9014V201.112H72.7752V183.824Z" fill="white"/>
<path d="M314 271.759H0V272.506H314V271.759Z" fill="#3F3D56"/>
<path d="M266.712 259.954L268.206 267.425L260.734 268.92L261.855 259.58L266.712 259.954Z" fill="#A0616A"/>
<path d="M290.247 258.459L288.379 267.799H279.413L283.149 256.591L290.247 258.459Z" fill="#A0616A"/>
<path d="M298.465 193.455L299.96 203.542L298.092 225.584L296.597 233.802L290.246 260.701C290.246 260.701 283.148 260.701 282.027 257.712L283.895 242.395C283.895 242.395 285.39 230.067 285.016 228.572C284.643 227.078 279.039 203.168 279.039 203.168C279.039 203.168 270.82 240.901 269.699 244.263C268.578 247.625 267.084 262.195 267.084 262.195C267.084 262.195 260.733 263.316 260.359 262.195C259.986 261.074 259.612 234.55 259.612 230.44C259.612 226.331 260.359 224.089 260.359 223.342C260.359 222.595 257.416 186.928 257.416 186.928L298.465 193.455Z" fill="#2F2E41"/>
<path d="M283.148 265.931C283.148 265.931 285.016 266.305 286.137 265.931C287.258 265.557 286.137 263.316 286.137 263.316H290.246C290.246 263.316 294.729 273.403 296.597 274.15C298.465 274.897 304.443 283.116 297.344 283.116C292.965 283.06 288.69 281.764 285.016 279.38C285.016 279.38 284.269 276.018 280.907 275.644C277.544 275.271 275.303 271.161 275.303 271.161L280.159 262.195C280.159 262.195 281.28 266.305 283.148 265.931Z" fill="#2F2E41"/>
<path d="M265.59 265.557C265.59 265.557 264.843 267.052 264.096 266.304C263.348 265.557 262.601 263.689 262.601 263.689C262.601 263.689 260.36 262.569 259.986 263.689C259.613 264.81 258.118 270.788 257.371 271.535C256.624 272.282 248.779 280.127 256.624 281.622C264.469 283.116 265.964 279.754 265.964 279.754C265.964 279.754 264.843 277.886 267.084 277.139C269.326 276.391 269.699 273.776 269.699 273.776L268.205 262.569C268.205 262.569 266.711 266.304 265.59 265.557Z" fill="#2F2E41"/>
<path d="M307.059 167.304L308.18 186.731C308.18 186.731 313.41 199.059 306.312 198.686C299.214 198.312 303.697 186.357 303.697 186.357L296.747 169.019L307.059 167.304Z" fill="#A0616A"/>
<path d="M249.525 161.7L248.404 181.127C248.404 181.127 243.174 193.455 250.272 193.082C257.37 192.708 252.887 180.753 252.887 180.753L259.837 163.415L249.525 161.7Z" fill="#A0616A"/>
<path d="M279.412 119.485C284.777 119.485 289.126 115.136 289.126 109.771C289.126 104.407 284.777 100.058 279.412 100.058C274.048 100.058 269.699 104.407 269.699 109.771C269.699 115.136 274.048 119.485 279.412 119.485Z" fill="#A0616A"/>
<path d="M287.071 113.694C287.071 113.694 284.456 124.155 289.686 126.77C294.916 129.385 273.248 133.121 271.754 126.77L272.501 123.781C272.501 123.781 275.49 120.045 274.743 116.683L287.071 113.694Z" fill="#A0616A"/>
<path d="M281.28 126.957C281.28 126.957 274.834 127.559 272.827 123.335C272.827 123.335 257.744 124.341 254.382 138.164L259.986 174.029C259.986 174.029 254.008 184.489 254.755 185.61C254.755 185.61 251.02 196.07 285.39 196.444L300.333 195.697C300.535 193.573 300.409 191.431 299.959 189.346C299.212 185.983 295.103 162.447 295.103 162.447C295.103 162.447 306.31 144.889 305.19 142.274C304.069 139.659 302.274 129.347 287.854 125.163C287.854 125.163 287.631 127.33 281.28 126.957Z" fill="#E6E6E6"/>
<path d="M300.334 135.923L305.19 142.274C305.19 142.274 310.047 168.799 308.553 169.172C307.058 169.546 298.092 172.534 296.598 171.414C295.103 170.293 288.379 148.251 288.379 148.251L300.334 135.923Z" fill="#E6E6E6"/>
<path d="M260.733 134.055L254.382 138.164C254.382 138.164 245.042 164.315 247.657 165.436C250.272 166.557 264.842 165.81 264.842 165.81L260.733 134.055Z" fill="#E6E6E6"/>
<path d="M290.03 101.079C290.03 101.079 286.665 93.7896 280.217 95.4718C273.769 97.154 270.124 99.6773 269.843 102.201C269.563 104.724 269.984 108.509 269.984 108.509C269.984 108.509 270.685 103.322 275.17 104.443C277.556 105.04 280.656 105.081 283.035 104.989C283.502 104.97 283.967 105.046 284.403 105.213C284.839 105.38 285.237 105.633 285.571 105.959C285.906 106.284 286.171 106.674 286.349 107.106C286.528 107.537 286.617 108 286.611 108.467L286.493 116.496C286.493 116.496 295.833 110.519 290.03 101.079Z" fill="#2F2E41"/>
<path d="M244.217 103.906H112.272C111.624 103.905 111.003 103.647 110.545 103.189C110.087 102.731 109.829 102.11 109.828 101.462V40.8773C109.829 40.2295 110.087 39.6084 110.545 39.1503C111.003 38.6923 111.624 38.4346 112.272 38.4338H244.217C244.865 38.4346 245.486 38.6923 245.944 39.1503C246.402 39.6084 246.66 40.2295 246.66 40.8773V101.462C246.66 102.11 246.402 102.731 245.944 103.189C245.486 103.647 244.865 103.905 244.217 103.906ZM112.272 39.4112C111.883 39.4116 111.51 39.5662 111.235 39.8411C110.961 40.1159 110.806 40.4886 110.805 40.8773V101.462C110.806 101.851 110.961 102.224 111.235 102.499C111.51 102.773 111.883 102.928 112.272 102.928H244.217C244.606 102.928 244.978 102.773 245.253 102.499C245.528 102.224 245.683 101.851 245.683 101.462V40.8773C245.683 40.4886 245.528 40.1159 245.253 39.8411C244.978 39.5662 244.606 39.4116 244.217 39.4112H112.272Z" fill="#E6E6E6"/>
<path d="M131.797 69.8491C137.294 69.8491 141.75 65.3929 141.75 59.8959C141.75 54.3988 137.294 49.9426 131.797 49.9426C126.3 49.9426 121.844 54.3988 121.844 59.8959C121.844 65.3929 126.3 69.8491 131.797 69.8491Z" fill="#FBC658"/>
<path d="M154.783 53.2607C154.565 53.2604 154.349 53.3031 154.148 53.3863C153.946 53.4695 153.763 53.5917 153.609 53.7457C153.455 53.8998 153.332 54.0828 153.249 54.2842C153.165 54.4856 153.122 54.7016 153.122 54.9196C153.122 55.1377 153.165 55.3536 153.249 55.555C153.332 55.7564 153.455 55.9394 153.609 56.0935C153.763 56.2476 153.946 56.3697 154.148 56.4529C154.349 56.5362 154.565 56.5788 154.783 56.5785H232.987C233.427 56.5785 233.849 56.4037 234.16 56.0926C234.472 55.7815 234.646 55.3596 234.646 54.9196C234.646 54.4797 234.472 54.0577 234.16 53.7466C233.849 53.4355 233.427 53.2607 232.987 53.2607H154.783Z" fill="#E6E6E6"/>
<path d="M154.783 63.2136C154.565 63.2133 154.349 63.256 154.148 63.3392C153.946 63.4224 153.763 63.5445 153.609 63.6986C153.455 63.8527 153.332 64.0357 153.249 64.2371C153.165 64.4385 153.122 64.6544 153.122 64.8725C153.122 65.0906 153.165 65.3065 153.249 65.5079C153.332 65.7093 153.455 65.8923 153.609 66.0464C153.763 66.2005 153.946 66.3226 154.148 66.4058C154.349 66.489 154.565 66.5317 154.783 66.5314H188.435C188.653 66.5317 188.869 66.489 189.07 66.4058C189.272 66.3226 189.455 66.2005 189.609 66.0464C189.764 65.8923 189.886 65.7093 189.97 65.5079C190.053 65.3065 190.096 65.0906 190.096 64.8725C190.096 64.6544 190.053 64.4385 189.97 64.2371C189.886 64.0357 189.764 63.8527 189.609 63.6986C189.455 63.5445 189.272 63.4224 189.07 63.3392C188.869 63.256 188.653 63.2133 188.435 63.2136H154.783Z" fill="#E6E6E6"/>
<path d="M124.161 79.1262C122.899 79.1262 121.872 79.8705 121.872 80.7851C121.872 81.6997 122.899 82.444 124.161 82.444H232.058C233.32 82.444 234.347 81.6997 234.347 80.7851C234.347 79.8705 233.32 79.1262 232.058 79.1262H124.161Z" fill="#E6E6E6"/>
<path d="M124.161 89.0793C122.899 89.0793 121.872 89.8236 121.872 90.7382C121.872 91.6528 122.899 92.3971 124.161 92.3971H232.058C233.32 92.3971 234.347 91.6528 234.347 90.7382C234.347 89.8236 233.32 89.0793 232.058 89.0793H124.161Z" fill="#E6E6E6"/>
<path d="M220.452 35.4027C230.229 35.4027 238.154 27.4775 238.154 17.7014C238.154 7.92516 230.229 0 220.452 0C210.676 0 202.751 7.92516 202.751 17.7014C202.751 27.4775 210.676 35.4027 220.452 35.4027Z" fill="#FBC658"/>
<path d="M220.454 46.4772L214.918 36.8906L209.384 27.304H220.454H231.523L225.988 36.8906L220.454 46.4772Z" fill="#FBC658"/>
<path d="M220.596 23.9417C224.104 23.9417 226.947 21.0983 226.947 17.5907C226.947 14.0832 224.104 11.2397 220.596 11.2397C217.089 11.2397 214.245 14.0832 214.245 17.5907C214.245 21.0983 217.089 23.9417 220.596 23.9417Z" fill="white"/>
<path d="M287.24 111.639C288.066 111.639 288.735 110.803 288.735 109.771C288.735 108.74 288.066 107.903 287.24 107.903C286.415 107.903 285.746 108.74 285.746 109.771C285.746 110.803 286.415 111.639 287.24 111.639Z" fill="#A0616A"/>
</g>
<defs>
<clipPath id="clip0">
<rect width="314" height="283.116" fill="white"/>
</clipPath>
</defs>
</svg>
