<svg width="293" height="223" viewBox="0 0 293 223" fill="none" xmlns="http://www.w3.org/2000/svg">
<g clip-path="url(#clip0)">
<path d="M261.208 222.2C276.556 222.2 288.998 219.334 288.998 215.798C288.998 212.262 276.556 209.396 261.208 209.396C245.861 209.396 233.419 212.262 233.419 215.798C233.419 219.334 245.861 222.2 261.208 222.2Z" fill="#E6E6E6"/>
<path d="M260.844 52.1152V60.4893L265.213 71.4121L272.131 59.033V49.5665L260.844 52.1152Z" fill="#A0616A"/>
<path d="M241.364 117.106L240.272 125.116C240.272 125.116 237.723 133.854 241.364 133.854C245.005 133.854 245.005 124.388 245.005 124.388L245.733 118.926L241.364 117.106Z" fill="#A0616A"/>
<path d="M285.419 116.014L284.327 124.024C284.327 124.024 281.779 132.762 285.419 132.762C289.06 132.762 289.06 123.295 289.06 123.295L289.789 117.834L285.419 116.014Z" fill="#A0616A"/>
<path d="M251.741 107.821L250.027 108.295C250.027 108.295 245.551 137.313 245.187 152.605C244.823 167.897 244.095 206.491 244.095 206.491H255.746L263.392 140.954L267.033 206.491H279.412C279.412 206.491 284.509 120.565 281.232 113.647C277.955 106.729 251.741 107.821 251.741 107.821Z" fill="#2F2E41"/>
<path d="M244.823 205.762L241.546 210.86C241.546 210.86 232.444 218.506 240.454 218.142C248.464 217.778 251.74 214.137 251.74 214.137V215.229L256.11 213.773L255.381 205.762H244.823Z" fill="#2F2E41"/>
<path d="M278.32 205.762L281.597 210.86C281.597 210.86 290.699 218.506 282.689 218.142C274.679 217.778 271.402 214.137 271.402 214.137V215.229L267.033 213.773L267.761 205.762H278.32Z" fill="#2F2E41"/>
<path d="M265.395 54.1174C269.819 54.1174 273.405 50.5312 273.405 46.1073C273.405 41.6835 269.819 38.0973 265.395 38.0973C260.971 38.0973 257.385 41.6835 257.385 46.1073C257.385 50.5312 260.971 54.1174 265.395 54.1174Z" fill="#A0616A"/>
<path d="M264.849 65.9507L260.844 57.7499L259.023 61.9457L258.295 97.9909L275.043 60.4893L272.13 57.2682L264.849 65.9507Z" fill="#575A89"/>
<path d="M287.058 67.7712L273.782 59.0948C273.782 59.0948 272.858 67.4071 264.484 66.6789C256.11 65.9507 260.024 59.6366 260.024 59.6366L246.644 67.043L251.741 95.4423L249.556 111.826C249.556 111.826 269.217 109.642 273.586 112.919C276.138 114.863 279.148 116.117 282.325 116.56L281.597 88.5245L287.058 67.7712Z" fill="#E2E8F0"/>
<path d="M283.053 69.2277L285.571 66.7999L287.422 68.1354C287.422 68.1354 289.242 70.32 290.699 76.8737C292.155 83.4273 291.427 112.555 291.427 112.555L283.417 111.463L283.781 99.4474L280.504 83.4273L283.053 69.2277Z" fill="#E2E8F0"/>
<path d="M249.192 66.679L247.817 66.3936L246.644 67.0431C246.644 67.0431 243.367 71.4122 243.367 75.4172C243.367 79.4223 240.09 113.647 240.09 113.647L247.372 116.924L252.469 91.0732L249.192 66.679Z" fill="#E2E8F0"/>
<path d="M292.519 113.283C292.519 113.283 285.237 108.914 282.688 111.827C280.14 114.739 284.145 117.652 284.145 117.652C284.145 117.652 295.432 122.021 292.519 113.283Z" fill="#575A89"/>
<path d="M248.1 115.468C248.1 115.468 240.818 111.098 238.269 114.011C235.721 116.924 239.726 119.837 239.726 119.837C239.726 119.837 251.013 124.206 248.1 115.468Z" fill="#575A89"/>
<path d="M272.409 40.2345C272.409 40.2345 274.504 36.2294 269.895 35.8654C269.895 35.8654 265.705 33.3167 262.353 36.2294C262.353 36.2294 259.419 35.5013 258.581 37.6858C258.581 37.6858 258.162 36.5935 259.419 35.8654C259.419 35.8654 256.486 35.1372 256.486 38.7781C256.486 38.7781 255.228 42.419 256.486 45.6959C257.743 48.9727 258.16 49.3368 258.16 49.3368C258.16 49.3368 256.094 42.4667 261.123 42.1026C266.151 41.7385 271.779 38.5961 272.198 42.6011C272.617 46.6061 273.455 47.6984 273.455 47.6984C273.455 47.6984 277.228 41.8729 272.409 40.2345Z" fill="#2F2E41"/>
<path d="M97.6824 190.895H97.6325C95.7709 190.895 93.8864 190.84 92.0321 190.731L92.0597 190.262C93.9053 190.372 95.7804 190.426 97.6329 190.426H97.6828L97.6824 190.895ZM103.335 190.724L103.307 190.256C105.172 190.144 107.057 189.974 108.909 189.751L108.965 190.216C107.104 190.441 105.209 190.612 103.336 190.725L103.335 190.724ZM86.4006 190.228C84.5365 190.006 82.6552 189.723 80.8096 189.388L80.8934 188.926C82.7295 189.259 84.6013 189.541 86.4563 189.764L86.4006 190.228ZM114.555 189.37L114.471 188.908C116.308 188.573 118.159 188.176 119.971 187.73L120.083 188.186C118.263 188.634 116.402 189.032 114.555 189.37L114.555 189.37ZM75.2798 188.209C73.4567 187.763 71.6235 187.254 69.8315 186.698L69.9709 186.25C71.755 186.803 73.578 187.309 75.3919 187.754L75.2798 188.209ZM125.53 186.668L125.39 186.219C127.171 185.665 128.958 185.047 130.706 184.383L130.873 184.822C129.117 185.489 127.319 186.111 125.53 186.669V186.668ZM64.4749 184.854C62.7193 184.189 60.9589 183.46 59.2425 182.688L59.4352 182.26C61.1428 183.029 62.894 183.753 64.6417 184.415L64.4749 184.854ZM136.088 182.658L135.895 182.23C137.594 181.465 139.293 180.634 140.944 179.766L141.162 180.181C139.503 181.055 137.796 181.889 136.088 182.659V182.658ZM54.1529 180.208C52.4883 179.334 50.8302 178.398 49.2242 177.425L49.467 177.025C51.065 177.992 52.7147 178.924 54.371 179.794L54.1529 180.208ZM146.081 177.403L145.838 177.002C147.434 176.035 149.022 175.006 150.556 173.945L150.823 174.331C149.28 175.397 147.683 176.43 146.081 177.403ZM44.4757 174.351C42.9297 173.283 41.3969 172.154 39.9198 170.997L40.211 170.627C41.6805 171.779 43.2057 172.902 44.744 173.965L44.4757 174.351ZM155.373 170.978L155.081 170.608C156.554 169.452 158.008 168.242 159.401 167.004L159.712 167.355C158.312 168.596 156.852 169.814 155.371 170.976L155.373 170.978ZM35.575 167.373C34.1693 166.128 32.7835 164.825 31.4564 163.498L31.7881 163.166C33.1087 164.486 34.4875 165.783 35.886 167.022L35.575 167.373ZM163.83 163.477L163.498 163.146C164.82 161.823 166.12 160.445 167.357 159.049L167.708 159.361C166.465 160.764 165.16 162.149 163.831 163.477H163.83ZM27.5788 159.382C26.3322 157.977 25.1132 156.517 23.9557 155.043L24.3246 154.752C25.4765 156.218 26.6912 157.671 27.9291 159.069L27.5788 159.382ZM171.33 155.022L170.961 154.731C172.117 153.257 173.24 151.733 174.301 150.2L174.687 150.467C173.622 152.009 172.492 153.541 171.33 155.022ZM20.5988 150.499C19.5302 148.955 18.4954 147.36 17.5244 145.759L17.9249 145.515C18.8916 147.109 19.9208 148.696 20.9833 150.232L20.5988 150.499ZM177.765 145.72L177.364 145.477C178.333 143.877 179.266 142.228 180.136 140.574L180.551 140.793C179.676 142.454 178.74 144.111 177.765 145.72ZM14.7416 140.843C13.8678 139.184 13.0337 137.476 12.2625 135.769L12.69 135.576C13.4575 137.275 14.2872 138.973 15.1567 140.624L14.7416 140.843ZM183.032 135.704L182.604 135.511C183.375 133.8 184.101 132.05 184.762 130.305L185.201 130.471C184.536 132.224 183.806 133.984 183.032 135.703L183.032 135.704ZM10.0958 130.557C9.42805 128.802 8.80581 127.004 8.24657 125.214L8.6944 125.074C9.2511 126.855 9.87006 128.644 10.5342 130.389L10.0958 130.557ZM187.049 125.117L186.601 124.978C187.155 123.194 187.663 121.371 188.107 119.558L188.563 119.67C188.116 121.492 187.606 123.324 187.049 125.117V125.117ZM6.72611 119.768C6.27682 117.947 5.87778 116.088 5.53953 114.24L6.00121 114.155C6.33799 115.994 6.73522 117.844 7.18196 119.655L6.72611 119.768ZM189.744 114.14L189.282 114.056C189.616 112.22 189.898 110.349 190.119 108.494L190.585 108.55C190.363 110.413 190.079 112.296 189.744 114.14V114.14ZM4.6901 108.65C4.46473 106.789 4.29288 104.895 4.18037 103.02L4.6486 102.992C4.76146 104.857 4.93259 106.742 5.15833 108.594L4.6901 108.65ZM191.092 102.919L190.624 102.891C190.733 101.029 190.791 99.1378 190.791 97.2682V97.0697H191.26V97.2682C191.26 99.1469 191.203 101.048 191.092 102.919ZM4.4742 97.3679H4.00488V97.2685C4.00488 95.4222 4.05913 93.5548 4.16654 91.7176L4.63476 91.7452C4.52808 93.5733 4.47383 95.4317 4.47383 97.2689L4.4742 97.3679ZM190.611 91.4467C190.496 89.5792 190.323 87.6943 190.097 85.8451L190.563 85.7883C190.79 87.647 190.963 89.541 191.08 91.4179L190.611 91.4467ZM5.13175 86.1418L4.66571 86.0865C4.8878 84.2223 5.16925 82.3411 5.50312 80.4951L5.96516 80.5785C5.63274 82.4153 5.35239 84.2871 5.13175 86.1418ZM189.246 80.2847C188.906 78.4435 188.507 76.5931 188.059 74.7869L188.514 74.674C188.965 76.4908 189.366 78.3513 189.707 80.2006L189.246 80.2847ZM7.13426 75.0749L6.67841 74.9635C7.1237 73.143 7.63125 71.308 8.18722 69.5144L8.63542 69.6532C8.08236 71.4372 7.57736 73.2617 7.13463 75.0749H7.13426ZM186.54 69.3692C185.982 67.5873 185.361 65.7992 184.695 64.0534L185.132 63.8863C185.802 65.6394 186.426 67.4366 186.989 69.2275L186.54 69.3692ZM10.4675 64.3232L10.0284 64.1572C10.6929 62.4008 11.4207 60.64 12.1919 58.9233L12.6201 59.1159C11.8525 60.8239 11.1284 62.5759 10.4675 64.3232ZM182.534 58.8705C181.765 57.1724 180.932 55.475 180.062 53.8253L180.477 53.6068C181.353 55.2646 182.188 56.9707 182.961 58.6776L182.534 58.8705ZM15.0839 54.051L14.6681 53.8326C15.539 52.172 16.4743 50.5131 17.4483 48.9024L17.8488 49.1452C16.8814 50.7483 15.9508 52.3988 15.0839 54.051ZM177.287 48.9373C176.319 47.3455 175.288 45.7595 174.223 44.2242L174.609 43.9566C175.679 45.4999 176.715 47.0936 177.688 48.6938L177.287 48.9373ZM20.9057 44.4171L20.5194 44.1502C21.5848 42.6069 22.7127 41.0737 23.8716 39.5929L24.2412 39.882C23.0903 41.3558 21.9667 42.8814 20.9057 44.4171ZM170.879 39.7021C169.723 38.2341 168.508 36.7828 167.269 35.3883L167.62 35.0767C168.866 36.4773 170.086 37.9359 171.248 39.4119L170.879 39.7021ZM27.8439 35.558L27.4925 35.2467C28.7363 33.8413 30.0412 32.4548 31.3654 31.1266L31.6978 31.458C30.378 32.78 29.0814 34.1592 27.8439 35.558ZM163.408 31.2981C162.082 29.9772 160.702 28.681 159.306 27.4464L159.617 27.095C161.02 28.3359 162.407 29.6382 163.739 30.9661L163.408 31.2981ZM35.7895 27.5968L35.4778 27.2458C36.8785 26.0013 38.3378 24.7816 39.8149 23.6201L40.1062 23.989C38.6371 25.1446 37.1836 26.3585 35.7895 27.5968ZM154.979 23.8466C153.509 22.6961 151.983 21.5746 150.442 20.5133L150.709 20.127C152.257 21.1934 153.791 22.3207 155.268 23.4767L154.979 23.8466ZM44.6282 20.6469L44.361 20.261C45.9033 19.1924 47.4973 18.1569 49.1 17.184L49.3436 17.5845C47.7492 18.5527 46.1629 19.5831 44.6282 20.6466V20.6469ZM145.712 17.4593C144.11 16.4923 142.46 15.5627 140.806 14.6958L141.024 14.28C142.687 15.1513 144.346 16.0856 145.956 17.0573L145.712 17.4593ZM54.233 14.8145L54.0145 14.3995C55.673 13.5256 57.3795 12.6882 59.0867 11.9174L59.28 12.3449C57.5812 13.1131 55.8834 13.944 54.2337 14.8145H54.233ZM135.741 12.2353C134.033 11.4707 132.282 10.7458 130.532 10.0871L130.698 9.64805C132.455 10.3114 134.216 11.0382 135.933 11.8086L135.741 12.2353ZM64.4658 10.1876L64.2987 9.75072C66.0544 9.08188 67.8519 8.45892 69.6414 7.89895L69.7816 8.34678C67.9997 8.90202 66.2113 9.52207 64.4647 10.1876H64.4658ZM125.201 8.25794C123.417 7.70597 121.592 7.20207 119.778 6.7597L119.89 6.30385C121.71 6.74805 123.545 7.25486 125.339 7.80974L125.201 8.25794ZM75.1986 6.83069L75.0857 6.37522C76.9083 5.92447 78.7681 5.52433 80.613 5.18572L80.6978 5.64739C78.8624 5.98418 77.0121 6.3825 75.2 6.83106L75.1986 6.83069ZM114.275 5.59278C112.441 5.26182 110.569 4.98219 108.712 4.76228L108.767 4.29624C110.634 4.51725 112.515 4.79797 114.359 5.13075L114.275 5.59278ZM86.2586 4.79796L86.2018 4.33193C88.062 4.10546 89.956 3.93142 91.8318 3.81783L91.8602 4.28605C89.9939 4.40001 88.11 4.57186 86.2586 4.79578V4.79796ZM103.107 4.2693C101.295 4.16444 99.453 4.11128 97.6325 4.11128H97.4833V3.64197H97.6325C99.4617 3.64197 101.313 3.69549 103.134 3.80108L103.107 4.2693Z" fill="#3F3B56"/>
<path d="M192.099 156.653H136.461V198.382H192.099V156.653Z" fill="#FBC658"/>
<path d="M185.145 167.781H143.416V170.563H185.145V167.781Z" fill="white"/>
<path d="M185.145 176.126H143.416V178.909H185.145V176.126Z" fill="white"/>
<path d="M185.145 184.472H143.416V187.254H185.145V184.472Z" fill="white"/>
<path d="M41.7751 0H2.91211V29.1471H41.7751V0Z" fill="#E2E8F0"/>
<path d="M36.9176 7.77271H7.77051V9.71587H36.9176V7.77271Z" fill="white"/>
<path d="M36.9176 13.6018H7.77051V15.545H36.9176V13.6018Z" fill="white"/>
<path d="M36.9176 19.4312H7.77051V21.3743H36.9176V19.4312Z" fill="white"/>
<path d="M58.2926 15.0592H19.4297V44.2063H58.2926V15.0592Z" fill="#FBC658"/>
<path d="M53.4342 22.8319H24.2871V24.7751H53.4342V22.8319Z" fill="white"/>
<path d="M53.4342 28.6615H24.2871V30.6047H53.4342V28.6615Z" fill="white"/>
<path d="M53.4342 34.4905H24.2871V36.4336H53.4342V34.4905Z" fill="white"/>
<path d="M150.735 136.899H44.7842V57.5266H150.735V136.899ZM45.8765 58.6189V135.807H149.643V58.6189H45.8765Z" fill="#E6E6E6"/>
<path d="M97.7258 117.536C108.868 117.536 117.9 108.504 117.9 97.3618C117.9 86.22 108.868 77.1877 97.7258 77.1877C86.584 77.1877 77.5518 86.22 77.5518 97.3618C77.5518 108.504 86.584 117.536 97.7258 117.536Z" fill="#51BCDA"/>
<path d="M106.103 95.6676H99.2442V88.8085C99.2442 88.3804 99.0741 87.9699 98.7715 87.6672C98.4688 87.3645 98.0582 87.1945 97.6302 87.1945C97.2021 87.1945 96.7916 87.3645 96.4889 87.6672C96.1862 87.9699 96.0161 88.3804 96.0161 88.8085V95.6676H89.157C88.7289 95.6676 88.3184 95.8377 88.0157 96.1404C87.713 96.4431 87.543 96.8536 87.543 97.2817C87.543 97.7097 87.713 98.1203 88.0157 98.4229C88.3184 98.7256 88.7289 98.8957 89.157 98.8957H96.0161V105.755C96.0161 106.183 96.1862 106.593 96.4889 106.896C96.7916 107.199 97.2021 107.369 97.6302 107.369C98.0582 107.369 98.4688 107.199 98.7715 106.896C99.0741 106.593 99.2442 106.183 99.2442 105.755V98.8957H106.103C106.531 98.8957 106.942 98.7256 107.245 98.4229C107.547 98.1203 107.717 97.7097 107.717 97.2817C107.717 96.8536 107.547 96.4431 107.245 96.1404C106.942 95.8377 106.531 95.6676 106.103 95.6676Z" fill="white"/>
<path d="M38.8629 149.642H0V178.789H38.8629V149.642Z" fill="#E2E8F0"/>
<path d="M34.0045 157.415H4.85742V159.358H34.0045V157.415Z" fill="white"/>
<path d="M34.0045 163.244H4.85742V165.187H34.0045V163.244Z" fill="white"/>
<path d="M34.0045 169.074H4.85742V171.017H34.0045V169.074Z" fill="white"/>
</g>
<defs>
<clipPath id="clip0">
<rect width="293" height="222.2" fill="white"/>
</clipPath>
</defs>
</svg>
