<svg width="375" height="667" viewBox="0 0 375 667" fill="none" xmlns="http://www.w3.org/2000/svg">
<g clip-path="url(#clip0)">
<rect width="375" height="667" fill="#EEF2F6"/>
<g filter="url(#filter0_d)">
<path d="M0 -21C0 -37.5685 13.4315 -51 30 -51H345C361.569 -51 375 -37.5685 375 -21V55C375 71.5685 361.569 85 345 85H30C13.4315 85 0 71.5685 0 55V-21Z" fill="#51BCDA"/>
</g>
<path d="M101.732 18.5811H105.248L99.666 35H95.8701L90.2998 18.5811H93.8149L96.9033 28.3516C97.0755 28.9281 97.2515 29.6019 97.4312 30.373C97.6183 31.1367 97.7344 31.6683 97.7793 31.9678C97.8617 31.279 98.1424 30.0736 98.6216 28.3516L101.732 18.5811ZM115.029 35L114.367 33.293H114.277C113.7 34.0192 113.105 34.5246 112.491 34.8091C111.885 35.0861 111.091 35.2246 110.11 35.2246C108.905 35.2246 107.954 34.8802 107.258 34.1914C106.569 33.5026 106.225 32.5218 106.225 31.249C106.225 29.9163 106.689 28.9355 107.617 28.3066C108.553 27.6702 109.961 27.3184 111.84 27.251L114.019 27.1836V26.6333C114.019 25.3605 113.367 24.7241 112.064 24.7241C111.061 24.7241 109.882 25.0273 108.527 25.6338L107.393 23.3203C108.838 22.5641 110.44 22.186 112.199 22.186C113.884 22.186 115.175 22.5529 116.074 23.2866C116.972 24.0203 117.421 25.1359 117.421 26.6333V35H115.029ZM114.019 29.1826L112.693 29.2275C111.698 29.2575 110.956 29.4372 110.47 29.7666C109.983 30.096 109.74 30.5977 109.74 31.2715C109.74 32.2373 110.294 32.7202 111.402 32.7202C112.195 32.7202 112.828 32.4919 113.3 32.0352C113.779 31.5785 114.019 30.972 114.019 30.2158V29.1826ZM126.058 35.2246C122.149 35.2246 120.195 33.0796 120.195 28.7896C120.195 26.6558 120.727 25.0273 121.79 23.9043C122.853 22.7738 124.377 22.2085 126.361 22.2085C127.813 22.2085 129.116 22.493 130.269 23.062L129.258 25.7124C128.719 25.4953 128.218 25.3193 127.753 25.1846C127.289 25.0423 126.825 24.9712 126.361 24.9712C124.579 24.9712 123.688 26.2365 123.688 28.7671C123.688 31.2228 124.579 32.4507 126.361 32.4507C127.02 32.4507 127.63 32.3646 128.191 32.1924C128.753 32.0127 129.314 31.7357 129.876 31.3613V34.2925C129.322 34.6444 128.76 34.8877 128.191 35.0225C127.63 35.1572 126.919 35.2246 126.058 35.2246ZM137.895 35.2246C133.986 35.2246 132.032 33.0796 132.032 28.7896C132.032 26.6558 132.564 25.0273 133.627 23.9043C134.69 22.7738 136.214 22.2085 138.198 22.2085C139.65 22.2085 140.953 22.493 142.106 23.062L141.095 25.7124C140.556 25.4953 140.055 25.3193 139.59 25.1846C139.126 25.0423 138.662 24.9712 138.198 24.9712C136.416 24.9712 135.525 26.2365 135.525 28.7671C135.525 31.2228 136.416 32.4507 138.198 32.4507C138.857 32.4507 139.467 32.3646 140.028 32.1924C140.59 32.0127 141.151 31.7357 141.713 31.3613V34.2925C141.159 34.6444 140.597 34.8877 140.028 35.0225C139.467 35.1572 138.756 35.2246 137.895 35.2246ZM144.487 19.1987C144.487 18.0832 145.108 17.5254 146.351 17.5254C147.594 17.5254 148.215 18.0832 148.215 19.1987C148.215 19.7303 148.058 20.1458 147.744 20.4453C147.437 20.7373 146.972 20.8833 146.351 20.8833C145.108 20.8833 144.487 20.3218 144.487 19.1987ZM148.058 35H144.633V22.4443H148.058V35ZM163.253 35H159.828V27.6665C159.828 26.7606 159.667 26.083 159.345 25.6338C159.023 25.1771 158.51 24.9487 157.806 24.9487C156.848 24.9487 156.155 25.2707 155.729 25.9146C155.302 26.5509 155.088 27.6104 155.088 29.0928V35H151.663V22.4443H154.28L154.74 24.0503H154.931C155.313 23.4438 155.837 22.9871 156.503 22.6802C157.177 22.3657 157.941 22.2085 158.794 22.2085C160.254 22.2085 161.362 22.6053 162.119 23.3989C162.875 24.1851 163.253 25.3231 163.253 26.813V35ZM174.753 35L174.09 33.293H174C173.424 34.0192 172.829 34.5246 172.215 34.8091C171.608 35.0861 170.815 35.2246 169.834 35.2246C168.629 35.2246 167.678 34.8802 166.981 34.1914C166.293 33.5026 165.948 32.5218 165.948 31.249C165.948 29.9163 166.412 28.9355 167.341 28.3066C168.277 27.6702 169.684 27.3184 171.563 27.251L173.742 27.1836V26.6333C173.742 25.3605 173.091 24.7241 171.788 24.7241C170.785 24.7241 169.606 25.0273 168.25 25.6338L167.116 23.3203C168.561 22.5641 170.163 22.186 171.923 22.186C173.607 22.186 174.899 22.5529 175.797 23.2866C176.696 24.0203 177.145 25.1359 177.145 26.6333V35H174.753ZM173.742 29.1826L172.417 29.2275C171.421 29.2575 170.68 29.4372 170.193 29.7666C169.707 30.096 169.463 30.5977 169.463 31.2715C169.463 32.2373 170.017 32.7202 171.125 32.7202C171.919 32.7202 172.552 32.4919 173.023 32.0352C173.503 31.5785 173.742 30.972 173.742 30.2158V29.1826ZM185.972 32.4956C186.571 32.4956 187.29 32.3646 188.128 32.1025V34.6519C187.275 35.0337 186.227 35.2246 184.984 35.2246C183.614 35.2246 182.614 34.8802 181.985 34.1914C181.364 33.4951 181.053 32.4544 181.053 31.0693V25.0161H179.414V23.5674L181.3 22.4219L182.289 19.7715H184.479V22.4443H187.994V25.0161H184.479V31.0693C184.479 31.556 184.613 31.9154 184.883 32.1475C185.16 32.3796 185.523 32.4956 185.972 32.4956ZM190.532 19.1987C190.532 18.0832 191.153 17.5254 192.396 17.5254C193.639 17.5254 194.26 18.0832 194.26 19.1987C194.26 19.7303 194.103 20.1458 193.789 20.4453C193.482 20.7373 193.017 20.8833 192.396 20.8833C191.153 20.8833 190.532 20.3218 190.532 19.1987ZM194.103 35H190.678V22.4443H194.103V35ZM200.437 28.6997C200.437 29.9425 200.639 30.8822 201.043 31.5186C201.455 32.1549 202.122 32.4731 203.042 32.4731C203.956 32.4731 204.611 32.1587 205.008 31.5298C205.412 30.8934 205.614 29.95 205.614 28.6997C205.614 27.4569 205.412 26.5247 205.008 25.9033C204.604 25.2819 203.941 24.9712 203.02 24.9712C202.107 24.9712 201.448 25.2819 201.043 25.9033C200.639 26.5173 200.437 27.4494 200.437 28.6997ZM209.118 28.6997C209.118 30.7437 208.579 32.3421 207.501 33.4951C206.423 34.6481 204.922 35.2246 202.998 35.2246C201.792 35.2246 200.729 34.9626 199.808 34.4385C198.887 33.9069 198.18 33.147 197.686 32.1587C197.191 31.1704 196.944 30.0174 196.944 28.6997C196.944 26.6483 197.48 25.0535 198.55 23.9155C199.621 22.7775 201.126 22.2085 203.065 22.2085C204.27 22.2085 205.333 22.4705 206.254 22.9946C207.175 23.5187 207.883 24.2712 208.377 25.252C208.871 26.2327 209.118 27.382 209.118 28.6997ZM223.538 35H220.113V27.6665C220.113 26.7606 219.952 26.083 219.63 25.6338C219.308 25.1771 218.795 24.9487 218.091 24.9487C217.133 24.9487 216.44 25.2707 216.014 25.9146C215.587 26.5509 215.374 27.6104 215.374 29.0928V35H211.948V22.4443H214.565L215.025 24.0503H215.216C215.598 23.4438 216.122 22.9871 216.789 22.6802C217.462 22.3657 218.226 22.2085 219.08 22.2085C220.54 22.2085 221.648 22.6053 222.404 23.3989C223.16 24.1851 223.538 25.3231 223.538 26.813V35ZM235.824 31.2715C235.824 32.5592 235.375 33.54 234.477 34.2139C233.586 34.8877 232.249 35.2246 230.467 35.2246C229.554 35.2246 228.775 35.161 228.131 35.0337C227.487 34.9139 226.885 34.7342 226.323 34.4946V31.6646C226.96 31.964 227.675 32.2148 228.468 32.417C229.269 32.6191 229.973 32.7202 230.58 32.7202C231.822 32.7202 232.444 32.3608 232.444 31.6421C232.444 31.3726 232.361 31.1554 232.197 30.9907C232.032 30.8185 231.748 30.6276 231.343 30.418C230.939 30.2008 230.4 29.95 229.726 29.6655C228.76 29.2612 228.049 28.8869 227.592 28.5425C227.143 28.1981 226.814 27.805 226.604 27.3633C226.402 26.9141 226.301 26.3638 226.301 25.7124C226.301 24.5968 226.731 23.7358 227.592 23.1294C228.461 22.5155 229.689 22.2085 231.276 22.2085C232.788 22.2085 234.259 22.5379 235.689 23.1968L234.656 25.6675C234.027 25.3979 233.44 25.1771 232.893 25.0049C232.347 24.8327 231.789 24.7466 231.22 24.7466C230.209 24.7466 229.704 25.0199 229.704 25.5664C229.704 25.8734 229.865 26.1392 230.187 26.3638C230.516 26.5884 231.231 26.9215 232.332 27.3633C233.312 27.7601 234.031 28.1307 234.488 28.4751C234.944 28.8195 235.281 29.2163 235.499 29.6655C235.716 30.1147 235.824 30.6501 235.824 31.2715Z" fill="white"/>
<g filter="url(#filter1_d)">
<path d="M25 88C25 79.7157 31.7157 73 40 73H328C336.284 73 343 79.7157 343 88V185C343 193.284 336.284 200 328 200H40C31.7157 200 25 193.284 25 185V88Z" fill="white"/>
</g>
<path d="M294 132.917V143.667V132.917ZM294 143.667L288.25 138.292L294 143.667ZM294 143.667L299.75 138.292L294 143.667ZM303.583 152.625H284.417C283.4 152.625 282.425 152.247 281.706 151.575C280.987 150.903 280.583 149.992 280.583 149.042V123.958C280.583 123.008 280.987 122.097 281.706 121.425C282.425 120.753 283.4 120.375 284.417 120.375H295.123C295.631 120.375 296.119 120.564 296.478 120.9L306.855 130.6C307.215 130.936 307.417 131.392 307.417 131.867V149.042C307.417 149.992 307.013 150.903 306.294 151.575C305.575 152.247 304.6 152.625 303.583 152.625Z" stroke="#4A5568" stroke-width="2" stroke-linecap="round" stroke-linejoin="round"/>
<path d="M236.75 136.5C236.75 137.926 236.144 139.293 235.066 140.301C233.988 141.309 232.525 141.875 231 141.875C229.475 141.875 228.012 141.309 226.934 140.301C225.856 139.293 225.25 137.926 225.25 136.5C225.25 135.074 225.856 133.707 226.934 132.699C228.012 131.691 229.475 131.125 231 131.125C232.525 131.125 233.988 131.691 235.066 132.699C236.144 133.707 236.75 135.074 236.75 136.5V136.5Z" stroke="#4A5568" stroke-width="2" stroke-linecap="round" stroke-linejoin="round"/>
<path d="M212.711 136.5C215.153 129.231 222.419 123.958 231 123.958C239.583 123.958 246.847 129.231 249.289 136.5C246.847 143.769 239.583 149.042 231 149.042C222.419 149.042 215.153 143.769 212.711 136.5Z" stroke="#4A5568" stroke-width="2" stroke-linecap="round" stroke-linejoin="round"/>
<path d="M50.3281 118.545H52.7598C54.3906 118.545 55.5723 118.242 56.3047 117.637C57.0371 117.031 57.4033 116.133 57.4033 114.941C57.4033 113.73 57.0078 112.861 56.2168 112.334C55.4258 111.807 54.2344 111.543 52.6426 111.543H50.3281V118.545ZM50.3281 121.445V130H46.8271V108.584H52.877C55.6406 108.584 57.6865 109.102 59.0146 110.137C60.3428 111.172 61.0068 112.734 61.0068 114.824C61.0068 117.49 59.6201 119.39 56.8467 120.522L62.8965 130H58.9121L53.7852 121.445H50.3281ZM75.7871 130L75.0986 127.744H74.9814C74.2002 128.73 73.4141 129.404 72.623 129.766C71.832 130.117 70.8164 130.293 69.5762 130.293C67.9844 130.293 66.7393 129.863 65.8408 129.004C64.9521 128.145 64.5078 126.929 64.5078 125.356C64.5078 123.687 65.1279 122.427 66.3682 121.577C67.6084 120.728 69.498 120.264 72.0371 120.186L74.835 120.098V119.233C74.835 118.198 74.5908 117.427 74.1025 116.919C73.624 116.401 72.877 116.143 71.8613 116.143C71.0312 116.143 70.2354 116.265 69.4736 116.509C68.7119 116.753 67.9795 117.041 67.2764 117.373L66.1631 114.912C67.042 114.453 68.0039 114.106 69.0488 113.872C70.0938 113.628 71.0801 113.506 72.0078 113.506C74.0684 113.506 75.6211 113.955 76.666 114.854C77.7207 115.752 78.248 117.163 78.248 119.087V130H75.7871ZM70.6602 127.656C71.9102 127.656 72.9111 127.31 73.6631 126.616C74.4248 125.913 74.8057 124.932 74.8057 123.672V122.266L72.7256 122.354C71.1045 122.412 69.9229 122.686 69.1807 123.174C68.4482 123.652 68.082 124.39 68.082 125.386C68.082 126.108 68.2969 126.67 68.7266 127.07C69.1562 127.461 69.8008 127.656 70.6602 127.656ZM91.3291 113.506C93.3506 113.506 94.9229 114.238 96.0459 115.703C97.1787 117.168 97.7451 119.224 97.7451 121.87C97.7451 124.526 97.1738 126.597 96.0312 128.081C94.8887 129.556 93.3018 130.293 91.2705 130.293C89.2197 130.293 87.6279 129.556 86.4951 128.081H86.2607L85.6309 130H83.0527V107.207H86.4951V112.627C86.4951 113.027 86.4756 113.623 86.4365 114.414C86.3975 115.205 86.3682 115.708 86.3486 115.923H86.4951C87.5889 114.312 89.2002 113.506 91.3291 113.506ZM90.4355 116.318C89.0488 116.318 88.0479 116.729 87.4326 117.549C86.8271 118.359 86.5146 119.722 86.4951 121.636V121.87C86.4951 123.843 86.8076 125.273 87.4326 126.162C88.0576 127.041 89.0781 127.48 90.4941 127.48C91.7148 127.48 92.6377 126.997 93.2627 126.03C93.8975 125.063 94.2148 123.667 94.2148 121.841C94.2148 118.159 92.9551 116.318 90.4355 116.318ZM105.187 130H101.744V113.799H105.187V130ZM101.539 109.507C101.539 108.892 101.705 108.418 102.037 108.086C102.379 107.754 102.862 107.588 103.487 107.588C104.093 107.588 104.562 107.754 104.894 108.086C105.235 108.418 105.406 108.892 105.406 109.507C105.406 110.093 105.235 110.557 104.894 110.898C104.562 111.23 104.093 111.396 103.487 111.396C102.862 111.396 102.379 111.23 102.037 110.898C101.705 110.557 101.539 110.093 101.539 109.507ZM117.198 130.293C114.679 130.293 112.706 129.561 111.28 128.096C109.864 126.621 109.156 124.595 109.156 122.017C109.156 119.37 109.815 117.29 111.134 115.776C112.452 114.263 114.264 113.506 116.568 113.506C118.707 113.506 120.396 114.155 121.637 115.454C122.877 116.753 123.497 118.54 123.497 120.815V122.676H112.701C112.75 124.248 113.175 125.459 113.976 126.309C114.776 127.148 115.904 127.568 117.359 127.568C118.316 127.568 119.205 127.48 120.025 127.305C120.855 127.119 121.744 126.816 122.691 126.396V129.194C121.852 129.595 121.002 129.878 120.143 130.044C119.283 130.21 118.302 130.293 117.198 130.293ZM116.568 116.113C115.475 116.113 114.596 116.46 113.932 117.153C113.277 117.847 112.887 118.857 112.76 120.186H120.113C120.094 118.848 119.771 117.837 119.146 117.153C118.521 116.46 117.662 116.113 116.568 116.113ZM138.292 125.386C138.292 126.968 137.716 128.184 136.563 129.033C135.411 129.873 133.761 130.293 131.612 130.293C129.454 130.293 127.721 129.966 126.412 129.312V126.338C128.316 127.217 130.089 127.656 131.729 127.656C133.849 127.656 134.908 127.017 134.908 125.737C134.908 125.327 134.791 124.985 134.557 124.712C134.322 124.438 133.937 124.155 133.399 123.862C132.862 123.569 132.115 123.237 131.158 122.866C129.293 122.144 128.028 121.421 127.364 120.698C126.71 119.976 126.383 119.038 126.383 117.886C126.383 116.499 126.939 115.425 128.053 114.663C129.176 113.892 130.699 113.506 132.623 113.506C134.527 113.506 136.329 113.892 138.028 114.663L136.915 117.256C135.167 116.533 133.697 116.172 132.506 116.172C130.689 116.172 129.781 116.689 129.781 117.725C129.781 118.232 130.016 118.662 130.484 119.014C130.963 119.365 131.998 119.849 133.59 120.464C134.928 120.981 135.899 121.455 136.505 121.885C137.11 122.314 137.56 122.812 137.853 123.379C138.146 123.936 138.292 124.604 138.292 125.386Z" fill="#FBC658"/>
<path d="M50.9453 163H45.374V153.006H50.9453V154.038H46.5361V157.258H50.6787V158.283H46.5361V161.961H50.9453V163ZM54.8008 159.165L52.1963 155.508H53.4883L55.4639 158.379L57.4326 155.508H58.7109L56.1064 159.165L58.8477 163H57.5625L55.4639 159.965L53.3447 163H52.0596L54.8008 159.165ZM63.8242 163.137C63.3366 163.137 62.89 163.048 62.4844 162.87C62.0833 162.688 61.7461 162.41 61.4727 162.036H61.3906C61.4453 162.474 61.4727 162.888 61.4727 163.28V166.363H60.3379V155.508H61.2607L61.418 156.533H61.4727C61.7643 156.123 62.1038 155.827 62.4912 155.645C62.8786 155.462 63.3229 155.371 63.8242 155.371C64.8177 155.371 65.5833 155.711 66.1211 156.39C66.6634 157.069 66.9346 158.021 66.9346 159.247C66.9346 160.478 66.6589 161.435 66.1074 162.118C65.5605 162.797 64.7995 163.137 63.8242 163.137ZM63.6602 156.335C62.8945 156.335 62.3408 156.547 61.999 156.971C61.6572 157.395 61.4818 158.069 61.4727 158.994V159.247C61.4727 160.3 61.6481 161.054 61.999 161.51C62.3499 161.961 62.9128 162.187 63.6875 162.187C64.3346 162.187 64.8405 161.924 65.2051 161.4C65.5742 160.876 65.7588 160.154 65.7588 159.233C65.7588 158.299 65.5742 157.584 65.2051 157.087C64.8405 156.586 64.3255 156.335 63.6602 156.335ZM70.0586 163H68.9238V155.508H70.0586V163ZM68.8281 153.478C68.8281 153.218 68.8919 153.029 69.0195 152.91C69.1471 152.787 69.3066 152.726 69.498 152.726C69.6803 152.726 69.8376 152.787 69.9697 152.91C70.1019 153.033 70.168 153.222 70.168 153.478C70.168 153.733 70.1019 153.924 69.9697 154.052C69.8376 154.175 69.6803 154.236 69.498 154.236C69.3066 154.236 69.1471 154.175 69.0195 154.052C68.8919 153.924 68.8281 153.733 68.8281 153.478ZM75.8828 155.371C76.2155 155.371 76.514 155.398 76.7783 155.453L76.6211 156.506C76.3112 156.438 76.0378 156.403 75.8008 156.403C75.1947 156.403 74.6751 156.649 74.2422 157.142C73.8138 157.634 73.5996 158.247 73.5996 158.98V163H72.4648V155.508H73.4014L73.5312 156.896H73.5859C73.8639 156.408 74.1989 156.032 74.5908 155.768C74.9827 155.503 75.4134 155.371 75.8828 155.371ZM81.3447 163.137C80.2373 163.137 79.3623 162.799 78.7197 162.125C78.0817 161.451 77.7627 160.514 77.7627 159.315C77.7627 158.108 78.0589 157.148 78.6514 156.438C79.2484 155.727 80.0482 155.371 81.0508 155.371C81.9896 155.371 82.7324 155.681 83.2793 156.301C83.8262 156.916 84.0996 157.729 84.0996 158.741V159.459H78.9385C78.9613 160.339 79.1823 161.006 79.6016 161.462C80.0254 161.918 80.6201 162.146 81.3857 162.146C82.1924 162.146 82.9899 161.977 83.7783 161.64V162.651C83.3773 162.825 82.9967 162.948 82.6367 163.021C82.2812 163.098 81.8506 163.137 81.3447 163.137ZM81.0371 156.321C80.4355 156.321 79.9548 156.517 79.5947 156.909C79.2393 157.301 79.0296 157.843 78.9658 158.536H82.8828C82.8828 157.821 82.7233 157.274 82.4043 156.896C82.0853 156.513 81.6296 156.321 81.0371 156.321ZM90.874 160.956C90.874 161.653 90.6143 162.191 90.0947 162.569C89.5752 162.948 88.846 163.137 87.9072 163.137C86.9137 163.137 86.139 162.979 85.583 162.665V161.612C85.943 161.795 86.3281 161.938 86.7383 162.043C87.153 162.148 87.5518 162.2 87.9346 162.2C88.527 162.2 88.9827 162.107 89.3018 161.92C89.6208 161.729 89.7803 161.439 89.7803 161.052C89.7803 160.76 89.6527 160.512 89.3975 160.307C89.1468 160.097 88.6546 159.851 87.9209 159.568C87.2236 159.309 86.7269 159.083 86.4307 158.892C86.139 158.696 85.9202 158.475 85.7744 158.229C85.6331 157.982 85.5625 157.688 85.5625 157.347C85.5625 156.736 85.8109 156.255 86.3076 155.904C86.8044 155.549 87.4857 155.371 88.3516 155.371C89.1582 155.371 89.9466 155.535 90.7168 155.863L90.3135 156.786C89.5615 156.476 88.8802 156.321 88.2695 156.321C87.7318 156.321 87.3262 156.406 87.0527 156.574C86.7793 156.743 86.6426 156.975 86.6426 157.271C86.6426 157.472 86.6927 157.643 86.793 157.784C86.8978 157.925 87.0641 158.06 87.292 158.188C87.5199 158.315 87.9574 158.5 88.6045 158.741C89.4932 159.065 90.0924 159.391 90.4023 159.719C90.7168 160.047 90.874 160.459 90.874 160.956ZM96.1992 162.275C96.1992 161.97 96.2676 161.74 96.4043 161.585C96.5456 161.425 96.7461 161.346 97.0059 161.346C97.2702 161.346 97.4753 161.425 97.6211 161.585C97.7715 161.74 97.8467 161.97 97.8467 162.275C97.8467 162.572 97.7715 162.799 97.6211 162.959C97.4707 163.118 97.2656 163.198 97.0059 163.198C96.7734 163.198 96.5798 163.128 96.4248 162.986C96.2744 162.84 96.1992 162.604 96.1992 162.275ZM96.1992 156.239C96.1992 155.624 96.4681 155.316 97.0059 155.316C97.5664 155.316 97.8467 155.624 97.8467 156.239C97.8467 156.535 97.7715 156.763 97.6211 156.923C97.4707 157.082 97.2656 157.162 97.0059 157.162C96.7734 157.162 96.5798 157.091 96.4248 156.95C96.2744 156.804 96.1992 156.567 96.1992 156.239ZM104.478 163L108.62 154.052H103.172V153.006H109.823V153.915L105.735 163H104.478ZM115.538 153.006L111.812 163H110.678L114.403 153.006H115.538ZM122.935 163H116.365V162.022L118.997 159.377C119.799 158.566 120.328 157.987 120.583 157.641C120.838 157.294 121.03 156.957 121.157 156.629C121.285 156.301 121.349 155.948 121.349 155.569C121.349 155.036 121.187 154.615 120.863 154.305C120.54 153.99 120.091 153.833 119.517 153.833C119.102 153.833 118.708 153.901 118.334 154.038C117.965 154.175 117.552 154.423 117.097 154.783L116.495 154.011C117.416 153.245 118.418 152.862 119.503 152.862C120.442 152.862 121.178 153.104 121.711 153.587C122.244 154.065 122.511 154.71 122.511 155.521C122.511 156.155 122.333 156.782 121.978 157.401C121.622 158.021 120.957 158.805 119.981 159.753L117.794 161.893V161.947H122.935V163ZM128.581 163H127.474V155.877C127.474 155.285 127.492 154.724 127.528 154.195C127.433 154.291 127.326 154.391 127.207 154.496C127.089 154.601 126.546 155.045 125.58 155.829L124.979 155.05L127.624 153.006H128.581V163ZM136.702 153.006L132.977 163H131.842L135.567 153.006H136.702ZM144.099 163H137.529V162.022L140.161 159.377C140.963 158.566 141.492 157.987 141.747 157.641C142.002 157.294 142.194 156.957 142.321 156.629C142.449 156.301 142.513 155.948 142.513 155.569C142.513 155.036 142.351 154.615 142.027 154.305C141.704 153.99 141.255 153.833 140.681 153.833C140.266 153.833 139.872 153.901 139.498 154.038C139.129 154.175 138.716 154.423 138.261 154.783L137.659 154.011C138.58 153.245 139.582 152.862 140.667 152.862C141.606 152.862 142.342 153.104 142.875 153.587C143.408 154.065 143.675 154.71 143.675 155.521C143.675 156.155 143.497 156.782 143.142 157.401C142.786 158.021 142.121 158.805 141.146 159.753L138.958 161.893V161.947H144.099V163ZM152.165 157.989C152.165 159.716 151.892 161.006 151.345 161.858C150.802 162.711 149.971 163.137 148.85 163.137C147.774 163.137 146.956 162.701 146.396 161.831C145.835 160.956 145.555 159.675 145.555 157.989C145.555 156.248 145.826 154.956 146.368 154.113C146.91 153.27 147.738 152.849 148.85 152.849C149.934 152.849 150.757 153.288 151.317 154.168C151.882 155.048 152.165 156.321 152.165 157.989ZM146.703 157.989C146.703 159.443 146.874 160.503 147.216 161.168C147.558 161.829 148.102 162.159 148.85 162.159C149.606 162.159 150.153 161.824 150.49 161.154C150.832 160.48 151.003 159.425 151.003 157.989C151.003 156.554 150.832 155.503 150.49 154.838C150.153 154.168 149.606 153.833 148.85 153.833C148.102 153.833 147.558 154.163 147.216 154.824C146.874 155.48 146.703 156.535 146.703 157.989Z" fill="#2D3748"/>
<g filter="url(#filter2_d)">
<path d="M25 231C25 222.716 31.7157 216 40 216H328C336.284 216 343 222.716 343 231V328C343 336.284 336.284 343 328 343H40C31.7157 343 25 336.284 25 328V231Z" fill="white"/>
</g>
<path d="M295 275.917V286.667V275.917ZM295 286.667L289.25 281.292L295 286.667ZM295 286.667L300.75 281.292L295 286.667ZM304.583 295.625H285.417C284.4 295.625 283.425 295.247 282.706 294.575C281.987 293.903 281.583 292.992 281.583 292.042V266.958C281.583 266.008 281.987 265.097 282.706 264.425C283.425 263.753 284.4 263.375 285.417 263.375H296.123C296.631 263.375 297.119 263.564 297.478 263.9L307.855 273.6C308.215 273.936 308.417 274.392 308.417 274.867V292.042C308.417 292.992 308.013 293.903 307.294 294.575C306.575 295.247 305.6 295.625 304.583 295.625Z" stroke="#4A5568" stroke-width="2" stroke-linecap="round" stroke-linejoin="round"/>
<path d="M236.75 279.5C236.75 280.926 236.144 282.293 235.066 283.301C233.988 284.309 232.525 284.875 231 284.875C229.475 284.875 228.012 284.309 226.934 283.301C225.856 282.293 225.25 280.926 225.25 279.5C225.25 278.074 225.856 276.707 226.934 275.699C228.012 274.691 229.475 274.125 231 274.125C232.525 274.125 233.988 274.691 235.066 275.699C236.144 276.707 236.75 278.074 236.75 279.5V279.5Z" stroke="#4A5568" stroke-width="2" stroke-linecap="round" stroke-linejoin="round"/>
<path d="M212.711 279.5C215.153 272.231 222.419 266.958 231 266.958C239.583 266.958 246.847 272.231 249.289 279.5C246.847 286.769 239.583 292.042 231 292.042C222.419 292.042 215.153 286.769 212.711 279.5Z" stroke="#4A5568" stroke-width="2" stroke-linecap="round" stroke-linejoin="round"/>
<path d="M50.2988 273H46.8271V251.584H58.9121V254.543H50.2988V261.237H58.3701V264.211H50.2988V273ZM74.9961 251.584H78.6289L71.1289 273H67.4375L59.9668 251.584H63.5703L68.0381 264.899C68.2725 265.534 68.5215 266.354 68.7852 267.36C69.0488 268.356 69.2197 269.099 69.2979 269.587C69.4248 268.845 69.6201 267.985 69.8838 267.009C70.1475 266.032 70.3623 265.31 70.5283 264.841L74.9961 251.584ZM84.957 261.545H87.3887C89.0195 261.545 90.2012 261.242 90.9336 260.637C91.666 260.031 92.0322 259.133 92.0322 257.941C92.0322 256.73 91.6367 255.861 90.8457 255.334C90.0547 254.807 88.8633 254.543 87.2715 254.543H84.957V261.545ZM84.957 264.445V273H81.4561V251.584H87.5059C90.2695 251.584 92.3154 252.102 93.6436 253.137C94.9717 254.172 95.6357 255.734 95.6357 257.824C95.6357 260.49 94.249 262.39 91.4756 263.522L97.5254 273H93.541L88.4141 264.445H84.957ZM109.757 254.279C107.745 254.279 106.163 254.992 105.011 256.418C103.858 257.844 103.282 259.812 103.282 262.321C103.282 264.948 103.834 266.936 104.938 268.283C106.051 269.631 107.657 270.305 109.757 270.305C110.665 270.305 111.544 270.217 112.394 270.041C113.243 269.855 114.127 269.621 115.045 269.338V272.341C113.365 272.976 111.461 273.293 109.332 273.293C106.197 273.293 103.79 272.346 102.11 270.451C100.431 268.547 99.5908 265.827 99.5908 262.292C99.5908 260.065 99.9961 258.117 100.807 256.447C101.627 254.777 102.809 253.498 104.352 252.609C105.895 251.721 107.706 251.276 109.786 251.276C111.974 251.276 113.995 251.735 115.851 252.653L114.591 255.568C113.868 255.227 113.102 254.929 112.291 254.675C111.49 254.411 110.646 254.279 109.757 254.279ZM133.839 258.059C133.839 260.295 133.106 262.009 131.642 263.2C130.177 264.392 128.092 264.987 125.387 264.987H123.16V273H119.659V251.584H125.826C128.502 251.584 130.504 252.131 131.832 253.225C133.17 254.318 133.839 255.93 133.839 258.059ZM123.16 262.043H125.021C126.817 262.043 128.136 261.73 128.976 261.105C129.815 260.48 130.235 259.504 130.235 258.176C130.235 256.945 129.859 256.027 129.107 255.422C128.355 254.816 127.184 254.514 125.592 254.514H123.16V262.043Z" fill="#FBC658"/>
<path d="M50.9453 306H45.374V296.006H50.9453V297.038H46.5361V300.258H50.6787V301.283H46.5361V304.961H50.9453V306ZM54.8008 302.165L52.1963 298.508H53.4883L55.4639 301.379L57.4326 298.508H58.7109L56.1064 302.165L58.8477 306H57.5625L55.4639 302.965L53.3447 306H52.0596L54.8008 302.165ZM63.8242 306.137C63.3366 306.137 62.89 306.048 62.4844 305.87C62.0833 305.688 61.7461 305.41 61.4727 305.036H61.3906C61.4453 305.474 61.4727 305.888 61.4727 306.28V309.363H60.3379V298.508H61.2607L61.418 299.533H61.4727C61.7643 299.123 62.1038 298.827 62.4912 298.645C62.8786 298.462 63.3229 298.371 63.8242 298.371C64.8177 298.371 65.5833 298.711 66.1211 299.39C66.6634 300.069 66.9346 301.021 66.9346 302.247C66.9346 303.478 66.6589 304.435 66.1074 305.118C65.5605 305.797 64.7995 306.137 63.8242 306.137ZM63.6602 299.335C62.8945 299.335 62.3408 299.547 61.999 299.971C61.6572 300.395 61.4818 301.069 61.4727 301.994V302.247C61.4727 303.3 61.6481 304.054 61.999 304.51C62.3499 304.961 62.9128 305.187 63.6875 305.187C64.3346 305.187 64.8405 304.924 65.2051 304.4C65.5742 303.876 65.7588 303.154 65.7588 302.233C65.7588 301.299 65.5742 300.584 65.2051 300.087C64.8405 299.586 64.3255 299.335 63.6602 299.335ZM70.0586 306H68.9238V298.508H70.0586V306ZM68.8281 296.478C68.8281 296.218 68.8919 296.029 69.0195 295.91C69.1471 295.787 69.3066 295.726 69.498 295.726C69.6803 295.726 69.8376 295.787 69.9697 295.91C70.1019 296.033 70.168 296.222 70.168 296.478C70.168 296.733 70.1019 296.924 69.9697 297.052C69.8376 297.175 69.6803 297.236 69.498 297.236C69.3066 297.236 69.1471 297.175 69.0195 297.052C68.8919 296.924 68.8281 296.733 68.8281 296.478ZM75.8828 298.371C76.2155 298.371 76.514 298.398 76.7783 298.453L76.6211 299.506C76.3112 299.438 76.0378 299.403 75.8008 299.403C75.1947 299.403 74.6751 299.649 74.2422 300.142C73.8138 300.634 73.5996 301.247 73.5996 301.98V306H72.4648V298.508H73.4014L73.5312 299.896H73.5859C73.8639 299.408 74.1989 299.032 74.5908 298.768C74.9827 298.503 75.4134 298.371 75.8828 298.371ZM81.3447 306.137C80.2373 306.137 79.3623 305.799 78.7197 305.125C78.0817 304.451 77.7627 303.514 77.7627 302.315C77.7627 301.108 78.0589 300.148 78.6514 299.438C79.2484 298.727 80.0482 298.371 81.0508 298.371C81.9896 298.371 82.7324 298.681 83.2793 299.301C83.8262 299.916 84.0996 300.729 84.0996 301.741V302.459H78.9385C78.9613 303.339 79.1823 304.006 79.6016 304.462C80.0254 304.918 80.6201 305.146 81.3857 305.146C82.1924 305.146 82.9899 304.977 83.7783 304.64V305.651C83.3773 305.825 82.9967 305.948 82.6367 306.021C82.2812 306.098 81.8506 306.137 81.3447 306.137ZM81.0371 299.321C80.4355 299.321 79.9548 299.517 79.5947 299.909C79.2393 300.301 79.0296 300.843 78.9658 301.536H82.8828C82.8828 300.821 82.7233 300.274 82.4043 299.896C82.0853 299.513 81.6296 299.321 81.0371 299.321ZM90.874 303.956C90.874 304.653 90.6143 305.191 90.0947 305.569C89.5752 305.948 88.846 306.137 87.9072 306.137C86.9137 306.137 86.139 305.979 85.583 305.665V304.612C85.943 304.795 86.3281 304.938 86.7383 305.043C87.153 305.148 87.5518 305.2 87.9346 305.2C88.527 305.2 88.9827 305.107 89.3018 304.92C89.6208 304.729 89.7803 304.439 89.7803 304.052C89.7803 303.76 89.6527 303.512 89.3975 303.307C89.1468 303.097 88.6546 302.851 87.9209 302.568C87.2236 302.309 86.7269 302.083 86.4307 301.892C86.139 301.696 85.9202 301.475 85.7744 301.229C85.6331 300.982 85.5625 300.688 85.5625 300.347C85.5625 299.736 85.8109 299.255 86.3076 298.904C86.8044 298.549 87.4857 298.371 88.3516 298.371C89.1582 298.371 89.9466 298.535 90.7168 298.863L90.3135 299.786C89.5615 299.476 88.8802 299.321 88.2695 299.321C87.7318 299.321 87.3262 299.406 87.0527 299.574C86.7793 299.743 86.6426 299.975 86.6426 300.271C86.6426 300.472 86.6927 300.643 86.793 300.784C86.8978 300.925 87.0641 301.06 87.292 301.188C87.5199 301.315 87.9574 301.5 88.6045 301.741C89.4932 302.065 90.0924 302.391 90.4023 302.719C90.7168 303.047 90.874 303.459 90.874 303.956ZM96.1992 305.275C96.1992 304.97 96.2676 304.74 96.4043 304.585C96.5456 304.425 96.7461 304.346 97.0059 304.346C97.2702 304.346 97.4753 304.425 97.6211 304.585C97.7715 304.74 97.8467 304.97 97.8467 305.275C97.8467 305.572 97.7715 305.799 97.6211 305.959C97.4707 306.118 97.2656 306.198 97.0059 306.198C96.7734 306.198 96.5798 306.128 96.4248 305.986C96.2744 305.84 96.1992 305.604 96.1992 305.275ZM96.1992 299.239C96.1992 298.624 96.4681 298.316 97.0059 298.316C97.5664 298.316 97.8467 298.624 97.8467 299.239C97.8467 299.535 97.7715 299.763 97.6211 299.923C97.4707 300.082 97.2656 300.162 97.0059 300.162C96.7734 300.162 96.5798 300.091 96.4248 299.95C96.2744 299.804 96.1992 299.567 96.1992 299.239ZM104.478 306L108.62 297.052H103.172V296.006H109.823V296.915L105.735 306H104.478ZM115.538 296.006L111.812 306H110.678L114.403 296.006H115.538ZM122.935 306H116.365V305.022L118.997 302.377C119.799 301.566 120.328 300.987 120.583 300.641C120.838 300.294 121.03 299.957 121.157 299.629C121.285 299.301 121.349 298.948 121.349 298.569C121.349 298.036 121.187 297.615 120.863 297.305C120.54 296.99 120.091 296.833 119.517 296.833C119.102 296.833 118.708 296.901 118.334 297.038C117.965 297.175 117.552 297.423 117.097 297.783L116.495 297.011C117.416 296.245 118.418 295.862 119.503 295.862C120.442 295.862 121.178 296.104 121.711 296.587C122.244 297.065 122.511 297.71 122.511 298.521C122.511 299.155 122.333 299.782 121.978 300.401C121.622 301.021 120.957 301.805 119.981 302.753L117.794 304.893V304.947H122.935V306ZM128.581 306H127.474V298.877C127.474 298.285 127.492 297.724 127.528 297.195C127.433 297.291 127.326 297.391 127.207 297.496C127.089 297.601 126.546 298.045 125.58 298.829L124.979 298.05L127.624 296.006H128.581V306ZM136.702 296.006L132.977 306H131.842L135.567 296.006H136.702ZM144.099 306H137.529V305.022L140.161 302.377C140.963 301.566 141.492 300.987 141.747 300.641C142.002 300.294 142.194 299.957 142.321 299.629C142.449 299.301 142.513 298.948 142.513 298.569C142.513 298.036 142.351 297.615 142.027 297.305C141.704 296.99 141.255 296.833 140.681 296.833C140.266 296.833 139.872 296.901 139.498 297.038C139.129 297.175 138.716 297.423 138.261 297.783L137.659 297.011C138.58 296.245 139.582 295.862 140.667 295.862C141.606 295.862 142.342 296.104 142.875 296.587C143.408 297.065 143.675 297.71 143.675 298.521C143.675 299.155 143.497 299.782 143.142 300.401C142.786 301.021 142.121 301.805 141.146 302.753L138.958 304.893V304.947H144.099V306ZM152.165 300.989C152.165 302.716 151.892 304.006 151.345 304.858C150.802 305.711 149.971 306.137 148.85 306.137C147.774 306.137 146.956 305.701 146.396 304.831C145.835 303.956 145.555 302.675 145.555 300.989C145.555 299.248 145.826 297.956 146.368 297.113C146.91 296.27 147.738 295.849 148.85 295.849C149.934 295.849 150.757 296.288 151.317 297.168C151.882 298.048 152.165 299.321 152.165 300.989ZM146.703 300.989C146.703 302.443 146.874 303.503 147.216 304.168C147.558 304.829 148.102 305.159 148.85 305.159C149.606 305.159 150.153 304.824 150.49 304.154C150.832 303.48 151.003 302.425 151.003 300.989C151.003 299.554 150.832 298.503 150.49 297.838C150.153 297.168 149.606 296.833 148.85 296.833C148.102 296.833 147.558 297.163 147.216 297.824C146.874 298.48 146.703 299.535 146.703 300.989Z" fill="#2D3748"/>
<g filter="url(#filter3_d)">
<path d="M25 374C25 365.716 31.7157 359 40 359H328C336.284 359 343 365.716 343 374V471C343 479.284 336.284 486 328 486H40C31.7157 486 25 479.284 25 471V374Z" fill="white"/>
</g>
<path d="M295 418.917V429.667V418.917ZM295 429.667L289.25 424.292L295 429.667ZM295 429.667L300.75 424.292L295 429.667ZM304.583 438.625H285.417C284.4 438.625 283.425 438.247 282.706 437.575C281.987 436.903 281.583 435.992 281.583 435.042V409.958C281.583 409.008 281.987 408.097 282.706 407.425C283.425 406.753 284.4 406.375 285.417 406.375H296.123C296.631 406.375 297.119 406.564 297.478 406.9L307.855 416.6C308.215 416.936 308.417 417.392 308.417 417.867V435.042C308.417 435.992 308.013 436.903 307.294 437.575C306.575 438.247 305.6 438.625 304.583 438.625Z" stroke="#4A5568" stroke-width="2" stroke-linecap="round" stroke-linejoin="round"/>
<path d="M236.75 422.5C236.75 423.926 236.144 425.293 235.066 426.301C233.988 427.309 232.525 427.875 231 427.875C229.475 427.875 228.012 427.309 226.934 426.301C225.856 425.293 225.25 423.926 225.25 422.5C225.25 421.074 225.856 419.707 226.934 418.699C228.012 417.691 229.475 417.125 231 417.125C232.525 417.125 233.988 417.691 235.066 418.699C236.144 419.707 236.75 421.074 236.75 422.5V422.5Z" stroke="#4A5568" stroke-width="2" stroke-linecap="round" stroke-linejoin="round"/>
<path d="M212.711 422.5C215.153 415.231 222.419 409.958 231 409.958C239.583 409.958 246.847 415.231 249.289 422.5C246.847 429.769 239.583 435.042 231 435.042C222.419 435.042 215.153 429.769 212.711 422.5Z" stroke="#4A5568" stroke-width="2" stroke-linecap="round" stroke-linejoin="round"/>
<path d="M55.9385 397.279C53.9268 397.279 52.3447 397.992 51.1924 399.418C50.04 400.844 49.4639 402.812 49.4639 405.321C49.4639 407.948 50.0156 409.936 51.1191 411.283C52.2324 412.631 53.8389 413.305 55.9385 413.305C56.8467 413.305 57.7256 413.217 58.5752 413.041C59.4248 412.855 60.3086 412.621 61.2266 412.338V415.341C59.5469 415.976 57.6426 416.293 55.5137 416.293C52.3789 416.293 49.9717 415.346 48.292 413.451C46.6123 411.547 45.7725 408.827 45.7725 405.292C45.7725 403.065 46.1777 401.117 46.9883 399.447C47.8086 397.777 48.9902 396.498 50.5332 395.609C52.0762 394.721 53.8877 394.276 55.9678 394.276C58.1553 394.276 60.1768 394.735 62.0322 395.653L60.7725 398.568C60.0498 398.227 59.2832 397.929 58.4727 397.675C57.6719 397.411 56.8271 397.279 55.9385 397.279ZM75.6113 416L74.9229 413.744H74.8057C74.0244 414.73 73.2383 415.404 72.4473 415.766C71.6562 416.117 70.6406 416.293 69.4004 416.293C67.8086 416.293 66.5635 415.863 65.665 415.004C64.7764 414.145 64.332 412.929 64.332 411.356C64.332 409.687 64.9521 408.427 66.1924 407.577C67.4326 406.728 69.3223 406.264 71.8613 406.186L74.6592 406.098V405.233C74.6592 404.198 74.415 403.427 73.9268 402.919C73.4482 402.401 72.7012 402.143 71.6855 402.143C70.8555 402.143 70.0596 402.265 69.2979 402.509C68.5361 402.753 67.8037 403.041 67.1006 403.373L65.9873 400.912C66.8662 400.453 67.8281 400.106 68.873 399.872C69.918 399.628 70.9043 399.506 71.832 399.506C73.8926 399.506 75.4453 399.955 76.4902 400.854C77.5449 401.752 78.0723 403.163 78.0723 405.087V416H75.6113ZM70.4844 413.656C71.7344 413.656 72.7354 413.31 73.4873 412.616C74.249 411.913 74.6299 410.932 74.6299 409.672V408.266L72.5498 408.354C70.9287 408.412 69.7471 408.686 69.0049 409.174C68.2725 409.652 67.9062 410.39 67.9062 411.386C67.9062 412.108 68.1211 412.67 68.5508 413.07C68.9805 413.461 69.625 413.656 70.4844 413.656ZM97.1299 416H93.6729V406.039C93.6729 404.789 93.4189 403.856 92.9111 403.241C92.4131 402.626 91.6172 402.318 90.5234 402.318C89.0684 402.318 88.0039 402.748 87.3301 403.607C86.6562 404.467 86.3193 405.907 86.3193 407.929V416H82.877V399.799H85.5723L86.0557 401.923H86.2314C86.7197 401.151 87.4131 400.556 88.3115 400.136C89.21 399.716 90.2061 399.506 91.2998 399.506C95.1865 399.506 97.1299 401.483 97.1299 405.438V416ZM105.362 416H101.92V399.799H105.362V416ZM101.715 395.507C101.715 394.892 101.881 394.418 102.213 394.086C102.555 393.754 103.038 393.588 103.663 393.588C104.269 393.588 104.737 393.754 105.069 394.086C105.411 394.418 105.582 394.892 105.582 395.507C105.582 396.093 105.411 396.557 105.069 396.898C104.737 397.23 104.269 397.396 103.663 397.396C103.038 397.396 102.555 397.23 102.213 396.898C101.881 396.557 101.715 396.093 101.715 395.507ZM124.552 416H121.095V406.039C121.095 404.789 120.841 403.856 120.333 403.241C119.835 402.626 119.039 402.318 117.945 402.318C116.49 402.318 115.426 402.748 114.752 403.607C114.078 404.467 113.741 405.907 113.741 407.929V416H110.299V399.799H112.994L113.478 401.923H113.653C114.142 401.151 114.835 400.556 115.733 400.136C116.632 399.716 117.628 399.506 118.722 399.506C122.608 399.506 124.552 401.483 124.552 405.438V416ZM136.417 416.293C133.897 416.293 131.925 415.561 130.499 414.096C129.083 412.621 128.375 410.595 128.375 408.017C128.375 405.37 129.034 403.29 130.353 401.776C131.671 400.263 133.482 399.506 135.787 399.506C137.926 399.506 139.615 400.155 140.855 401.454C142.096 402.753 142.716 404.54 142.716 406.815V408.676H131.92C131.969 410.248 132.394 411.459 133.194 412.309C133.995 413.148 135.123 413.568 136.578 413.568C137.535 413.568 138.424 413.48 139.244 413.305C140.074 413.119 140.963 412.816 141.91 412.396V415.194C141.07 415.595 140.221 415.878 139.361 416.044C138.502 416.21 137.521 416.293 136.417 416.293ZM135.787 402.113C134.693 402.113 133.814 402.46 133.15 403.153C132.496 403.847 132.105 404.857 131.979 406.186H139.332C139.312 404.848 138.99 403.837 138.365 403.153C137.74 402.46 136.881 402.113 135.787 402.113Z" fill="#FBC658"/>
<path d="M50.9453 449H45.374V439.006H50.9453V440.038H46.5361V443.258H50.6787V444.283H46.5361V447.961H50.9453V449ZM54.8008 445.165L52.1963 441.508H53.4883L55.4639 444.379L57.4326 441.508H58.7109L56.1064 445.165L58.8477 449H57.5625L55.4639 445.965L53.3447 449H52.0596L54.8008 445.165ZM63.8242 449.137C63.3366 449.137 62.89 449.048 62.4844 448.87C62.0833 448.688 61.7461 448.41 61.4727 448.036H61.3906C61.4453 448.474 61.4727 448.888 61.4727 449.28V452.363H60.3379V441.508H61.2607L61.418 442.533H61.4727C61.7643 442.123 62.1038 441.827 62.4912 441.645C62.8786 441.462 63.3229 441.371 63.8242 441.371C64.8177 441.371 65.5833 441.711 66.1211 442.39C66.6634 443.069 66.9346 444.021 66.9346 445.247C66.9346 446.478 66.6589 447.435 66.1074 448.118C65.5605 448.797 64.7995 449.137 63.8242 449.137ZM63.6602 442.335C62.8945 442.335 62.3408 442.547 61.999 442.971C61.6572 443.395 61.4818 444.069 61.4727 444.994V445.247C61.4727 446.3 61.6481 447.054 61.999 447.51C62.3499 447.961 62.9128 448.187 63.6875 448.187C64.3346 448.187 64.8405 447.924 65.2051 447.4C65.5742 446.876 65.7588 446.154 65.7588 445.233C65.7588 444.299 65.5742 443.584 65.2051 443.087C64.8405 442.586 64.3255 442.335 63.6602 442.335ZM70.0586 449H68.9238V441.508H70.0586V449ZM68.8281 439.478C68.8281 439.218 68.8919 439.029 69.0195 438.91C69.1471 438.787 69.3066 438.726 69.498 438.726C69.6803 438.726 69.8376 438.787 69.9697 438.91C70.1019 439.033 70.168 439.222 70.168 439.478C70.168 439.733 70.1019 439.924 69.9697 440.052C69.8376 440.175 69.6803 440.236 69.498 440.236C69.3066 440.236 69.1471 440.175 69.0195 440.052C68.8919 439.924 68.8281 439.733 68.8281 439.478ZM75.8828 441.371C76.2155 441.371 76.514 441.398 76.7783 441.453L76.6211 442.506C76.3112 442.438 76.0378 442.403 75.8008 442.403C75.1947 442.403 74.6751 442.649 74.2422 443.142C73.8138 443.634 73.5996 444.247 73.5996 444.98V449H72.4648V441.508H73.4014L73.5312 442.896H73.5859C73.8639 442.408 74.1989 442.032 74.5908 441.768C74.9827 441.503 75.4134 441.371 75.8828 441.371ZM81.3447 449.137C80.2373 449.137 79.3623 448.799 78.7197 448.125C78.0817 447.451 77.7627 446.514 77.7627 445.315C77.7627 444.108 78.0589 443.148 78.6514 442.438C79.2484 441.727 80.0482 441.371 81.0508 441.371C81.9896 441.371 82.7324 441.681 83.2793 442.301C83.8262 442.916 84.0996 443.729 84.0996 444.741V445.459H78.9385C78.9613 446.339 79.1823 447.006 79.6016 447.462C80.0254 447.918 80.6201 448.146 81.3857 448.146C82.1924 448.146 82.9899 447.977 83.7783 447.64V448.651C83.3773 448.825 82.9967 448.948 82.6367 449.021C82.2812 449.098 81.8506 449.137 81.3447 449.137ZM81.0371 442.321C80.4355 442.321 79.9548 442.517 79.5947 442.909C79.2393 443.301 79.0296 443.843 78.9658 444.536H82.8828C82.8828 443.821 82.7233 443.274 82.4043 442.896C82.0853 442.513 81.6296 442.321 81.0371 442.321ZM90.874 446.956C90.874 447.653 90.6143 448.191 90.0947 448.569C89.5752 448.948 88.846 449.137 87.9072 449.137C86.9137 449.137 86.139 448.979 85.583 448.665V447.612C85.943 447.795 86.3281 447.938 86.7383 448.043C87.153 448.148 87.5518 448.2 87.9346 448.2C88.527 448.2 88.9827 448.107 89.3018 447.92C89.6208 447.729 89.7803 447.439 89.7803 447.052C89.7803 446.76 89.6527 446.512 89.3975 446.307C89.1468 446.097 88.6546 445.851 87.9209 445.568C87.2236 445.309 86.7269 445.083 86.4307 444.892C86.139 444.696 85.9202 444.475 85.7744 444.229C85.6331 443.982 85.5625 443.688 85.5625 443.347C85.5625 442.736 85.8109 442.255 86.3076 441.904C86.8044 441.549 87.4857 441.371 88.3516 441.371C89.1582 441.371 89.9466 441.535 90.7168 441.863L90.3135 442.786C89.5615 442.476 88.8802 442.321 88.2695 442.321C87.7318 442.321 87.3262 442.406 87.0527 442.574C86.7793 442.743 86.6426 442.975 86.6426 443.271C86.6426 443.472 86.6927 443.643 86.793 443.784C86.8978 443.925 87.0641 444.06 87.292 444.188C87.5199 444.315 87.9574 444.5 88.6045 444.741C89.4932 445.065 90.0924 445.391 90.4023 445.719C90.7168 446.047 90.874 446.459 90.874 446.956ZM96.1992 448.275C96.1992 447.97 96.2676 447.74 96.4043 447.585C96.5456 447.425 96.7461 447.346 97.0059 447.346C97.2702 447.346 97.4753 447.425 97.6211 447.585C97.7715 447.74 97.8467 447.97 97.8467 448.275C97.8467 448.572 97.7715 448.799 97.6211 448.959C97.4707 449.118 97.2656 449.198 97.0059 449.198C96.7734 449.198 96.5798 449.128 96.4248 448.986C96.2744 448.84 96.1992 448.604 96.1992 448.275ZM96.1992 442.239C96.1992 441.624 96.4681 441.316 97.0059 441.316C97.5664 441.316 97.8467 441.624 97.8467 442.239C97.8467 442.535 97.7715 442.763 97.6211 442.923C97.4707 443.082 97.2656 443.162 97.0059 443.162C96.7734 443.162 96.5798 443.091 96.4248 442.95C96.2744 442.804 96.1992 442.567 96.1992 442.239ZM104.478 449L108.62 440.052H103.172V439.006H109.823V439.915L105.735 449H104.478ZM115.538 439.006L111.812 449H110.678L114.403 439.006H115.538ZM122.935 449H116.365V448.022L118.997 445.377C119.799 444.566 120.328 443.987 120.583 443.641C120.838 443.294 121.03 442.957 121.157 442.629C121.285 442.301 121.349 441.948 121.349 441.569C121.349 441.036 121.187 440.615 120.863 440.305C120.54 439.99 120.091 439.833 119.517 439.833C119.102 439.833 118.708 439.901 118.334 440.038C117.965 440.175 117.552 440.423 117.097 440.783L116.495 440.011C117.416 439.245 118.418 438.862 119.503 438.862C120.442 438.862 121.178 439.104 121.711 439.587C122.244 440.065 122.511 440.71 122.511 441.521C122.511 442.155 122.333 442.782 121.978 443.401C121.622 444.021 120.957 444.805 119.981 445.753L117.794 447.893V447.947H122.935V449ZM128.581 449H127.474V441.877C127.474 441.285 127.492 440.724 127.528 440.195C127.433 440.291 127.326 440.391 127.207 440.496C127.089 440.601 126.546 441.045 125.58 441.829L124.979 441.05L127.624 439.006H128.581V449ZM136.702 439.006L132.977 449H131.842L135.567 439.006H136.702ZM144.099 449H137.529V448.022L140.161 445.377C140.963 444.566 141.492 443.987 141.747 443.641C142.002 443.294 142.194 442.957 142.321 442.629C142.449 442.301 142.513 441.948 142.513 441.569C142.513 441.036 142.351 440.615 142.027 440.305C141.704 439.99 141.255 439.833 140.681 439.833C140.266 439.833 139.872 439.901 139.498 440.038C139.129 440.175 138.716 440.423 138.261 440.783L137.659 440.011C138.58 439.245 139.582 438.862 140.667 438.862C141.606 438.862 142.342 439.104 142.875 439.587C143.408 440.065 143.675 440.71 143.675 441.521C143.675 442.155 143.497 442.782 143.142 443.401C142.786 444.021 142.121 444.805 141.146 445.753L138.958 447.893V447.947H144.099V449ZM152.165 443.989C152.165 445.716 151.892 447.006 151.345 447.858C150.802 448.711 149.971 449.137 148.85 449.137C147.774 449.137 146.956 448.701 146.396 447.831C145.835 446.956 145.555 445.675 145.555 443.989C145.555 442.248 145.826 440.956 146.368 440.113C146.91 439.27 147.738 438.849 148.85 438.849C149.934 438.849 150.757 439.288 151.317 440.168C151.882 441.048 152.165 442.321 152.165 443.989ZM146.703 443.989C146.703 445.443 146.874 446.503 147.216 447.168C147.558 447.829 148.102 448.159 148.85 448.159C149.606 448.159 150.153 447.824 150.49 447.154C150.832 446.48 151.003 445.425 151.003 443.989C151.003 442.554 150.832 441.503 150.49 440.838C150.153 440.168 149.606 439.833 148.85 439.833C148.102 439.833 147.558 440.163 147.216 440.824C146.874 441.48 146.703 442.535 146.703 443.989Z" fill="#2D3748"/>
<g filter="url(#filter4_d)">
<circle cx="326.5" cy="617.5" r="31.5" fill="#51BCDA"/>
</g>
<path d="M339.265 617.5H313.735M326.5 604.735V630.265V604.735Z" stroke="white" stroke-width="4" stroke-linecap="round" stroke-linejoin="round"/>
<path d="M267 26L260 33L253 26" stroke="white" stroke-width="3" stroke-linecap="round" stroke-linejoin="round"/>
</g>
<defs>
<filter id="filter0_d" x="-20" y="-67" width="415" height="176" filterUnits="userSpaceOnUse" color-interpolation-filters="sRGB">
<feFlood flood-opacity="0" result="BackgroundImageFix"/>
<feColorMatrix in="SourceAlpha" type="matrix" values="0 0 0 0 0 0 0 0 0 0 0 0 0 0 0 0 0 0 127 0"/>
<feOffset dy="4"/>
<feGaussianBlur stdDeviation="10"/>
<feColorMatrix type="matrix" values="0 0 0 0 0.317647 0 0 0 0 0.737255 0 0 0 0 0.854902 0 0 0 0.4 0"/>
<feBlend mode="normal" in2="BackgroundImageFix" result="effect1_dropShadow"/>
<feBlend mode="normal" in="SourceGraphic" in2="effect1_dropShadow" result="shape"/>
</filter>
<filter id="filter1_d" x="5" y="57" width="358" height="167" filterUnits="userSpaceOnUse" color-interpolation-filters="sRGB">
<feFlood flood-opacity="0" result="BackgroundImageFix"/>
<feColorMatrix in="SourceAlpha" type="matrix" values="0 0 0 0 0 0 0 0 0 0 0 0 0 0 0 0 0 0 127 0"/>
<feOffset dy="4"/>
<feGaussianBlur stdDeviation="10"/>
<feColorMatrix type="matrix" values="0 0 0 0 0.317647 0 0 0 0 0.737255 0 0 0 0 0.854902 0 0 0 0.3 0"/>
<feBlend mode="normal" in2="BackgroundImageFix" result="effect1_dropShadow"/>
<feBlend mode="normal" in="SourceGraphic" in2="effect1_dropShadow" result="shape"/>
</filter>
<filter id="filter2_d" x="5" y="200" width="358" height="167" filterUnits="userSpaceOnUse" color-interpolation-filters="sRGB">
<feFlood flood-opacity="0" result="BackgroundImageFix"/>
<feColorMatrix in="SourceAlpha" type="matrix" values="0 0 0 0 0 0 0 0 0 0 0 0 0 0 0 0 0 0 127 0"/>
<feOffset dy="4"/>
<feGaussianBlur stdDeviation="10"/>
<feColorMatrix type="matrix" values="0 0 0 0 0.317647 0 0 0 0 0.737255 0 0 0 0 0.854902 0 0 0 0.3 0"/>
<feBlend mode="normal" in2="BackgroundImageFix" result="effect1_dropShadow"/>
<feBlend mode="normal" in="SourceGraphic" in2="effect1_dropShadow" result="shape"/>
</filter>
<filter id="filter3_d" x="5" y="343" width="358" height="167" filterUnits="userSpaceOnUse" color-interpolation-filters="sRGB">
<feFlood flood-opacity="0" result="BackgroundImageFix"/>
<feColorMatrix in="SourceAlpha" type="matrix" values="0 0 0 0 0 0 0 0 0 0 0 0 0 0 0 0 0 0 127 0"/>
<feOffset dy="4"/>
<feGaussianBlur stdDeviation="10"/>
<feColorMatrix type="matrix" values="0 0 0 0 0.317647 0 0 0 0 0.737255 0 0 0 0 0.854902 0 0 0 0.3 0"/>
<feBlend mode="normal" in2="BackgroundImageFix" result="effect1_dropShadow"/>
<feBlend mode="normal" in="SourceGraphic" in2="effect1_dropShadow" result="shape"/>
</filter>
<filter id="filter4_d" x="291" y="586" width="71" height="71" filterUnits="userSpaceOnUse" color-interpolation-filters="sRGB">
<feFlood flood-opacity="0" result="BackgroundImageFix"/>
<feColorMatrix in="SourceAlpha" type="matrix" values="0 0 0 0 0 0 0 0 0 0 0 0 0 0 0 0 0 0 127 0"/>
<feOffset dy="4"/>
<feGaussianBlur stdDeviation="2"/>
<feColorMatrix type="matrix" values="0 0 0 0 0 0 0 0 0 0 0 0 0 0 0 0 0 0 0.1 0"/>
<feBlend mode="normal" in2="BackgroundImageFix" result="effect1_dropShadow"/>
<feBlend mode="normal" in="SourceGraphic" in2="effect1_dropShadow" result="shape"/>
</filter>
<clipPath id="clip0">
<rect width="375" height="667" fill="white"/>
</clipPath>
</defs>
</svg>
